<?xml version='1.0' encoding='UTF-8' standalone='no'?>
<!-- Created with Fritzing (http://www.fritzing.org/) -->
<svg xmlns:svg='http://www.w3.org/2000/svg' xmlns='http://www.w3.org/2000/svg' version='1.2' baseProfile='tiny' x='0in' y='0in' width='6.59627in' height='3.96393in' viewBox='0 0 474.931 285.403' >
<g partID='61640'><g transform='translate(98.4,84.2801)' ><g id="schematic">
<rect x="14.85" y="14.85" height="135.9" fill="#FFFFFF" stroke-width="0.9" stroke-linecap="round" width="78.3" class="interior rect" stroke="#000000"/>
<line id="connector61pin" fill="none" y1="28.8" y2="28.8" stroke-width="0.699999" x1="93.2499" x2="107.65" stroke-linecap="round" class="pin" stroke="#787878"/>
<text x="91.8499" text-anchor="end" font-size="3.49999" y="29.4999" fill="#8c8c8c" stroke-width="0" font-family="'Droid Sans'" class="text" stroke="none">D0/RX</text>
<g x="107.65" y="28.4499" height="0.699999" id="connector61terminal" fill="none" stroke-width="0" width="0.699999" class="terminal" stroke="none"/>
<line id="connector62pin" fill="none" y1="36" y2="36" stroke-width="0.699999" x1="93.2499" x2="107.65" stroke-linecap="round" class="pin" stroke="#787878"/>
<text x="91.8499" text-anchor="end" font-size="3.49999" y="36.6999" fill="#8c8c8c" stroke-width="0" font-family="'Droid Sans'" class="text" stroke="none">D1/TX</text>
<g x="107.65" y="35.6499" height="0.699999" id="connector62terminal" fill="none" stroke-width="0" width="0.699999" class="terminal" stroke="none"/>
<line id="connector63pin" fill="none" y1="43.2" y2="43.2" stroke-width="0.699999" x1="93.2499" x2="107.65" stroke-linecap="round" class="pin" stroke="#787878"/>
<text x="91.8499" text-anchor="end" font-size="3.49999" y="43.8999" fill="#8c8c8c" stroke-width="0" font-family="'Droid Sans'" class="text" stroke="none">D2</text>
<g x="107.65" y="42.8499" height="0.699999" id="connector63terminal" fill="none" stroke-width="0" width="0.699999" class="terminal" stroke="none"/>
<line id="connector64pin" fill="none" y1="50.4" y2="50.4" stroke-width="0.699999" x1="93.2499" x2="107.65" stroke-linecap="round" class="pin" stroke="#787878"/>
<text x="91.8499" text-anchor="end" font-size="3.49999" y="51.0999" fill="#8c8c8c" stroke-width="0" font-family="'Droid Sans'" class="text" stroke="none">D3 PWM</text>
<g x="107.65" y="50.0499" height="0.699999" id="connector64terminal" fill="none" stroke-width="0" width="0.699999" class="terminal" stroke="none"/>
<line id="connector65pin" fill="none" y1="57.6" y2="57.6" stroke-width="0.699999" x1="93.2499" x2="107.65" stroke-linecap="round" class="pin" stroke="#787878"/>
<text x="91.8499" text-anchor="end" font-size="3.49999" y="58.2999" fill="#8c8c8c" stroke-width="0" font-family="'Droid Sans'" class="text" stroke="none">D4</text>
<g x="107.65" y="57.2499" height="0.699999" id="connector65terminal" fill="none" stroke-width="0" width="0.699999" class="terminal" stroke="none"/>
<line id="connector66pin" fill="none" y1="64.8" y2="64.8" stroke-width="0.699999" x1="93.2499" x2="107.65" stroke-linecap="round" class="pin" stroke="#787878"/>
<text x="91.8499" text-anchor="end" font-size="3.49999" y="65.4999" fill="#8c8c8c" stroke-width="0" font-family="'Droid Sans'" class="text" stroke="none">D5 PWM</text>
<g x="107.65" y="64.4499" height="0.699999" id="connector66terminal" fill="none" stroke-width="0" width="0.699999" class="terminal" stroke="none"/>
<line id="connector67pin" fill="none" y1="72" y2="72" stroke-width="0.699999" x1="93.2499" x2="107.65" stroke-linecap="round" class="pin" stroke="#787878"/>
<text x="91.8499" text-anchor="end" font-size="3.49999" y="72.6999" fill="#8c8c8c" stroke-width="0" font-family="'Droid Sans'" class="text" stroke="none">D6 PWM</text>
<g x="107.65" y="71.6499" height="0.699999" id="connector67terminal" fill="none" stroke-width="0" width="0.699999" class="terminal" stroke="none"/>
<line id="connector68pin" fill="none" y1="79.2" y2="79.2" stroke-width="0.699999" x1="93.2499" x2="107.65" stroke-linecap="round" class="pin" stroke="#787878"/>
<text x="91.8499" text-anchor="end" font-size="3.49999" y="79.8999" fill="#8c8c8c" stroke-width="0" font-family="'Droid Sans'" class="text" stroke="none">D7</text>
<g x="107.65" y="78.8499" height="0.699999" id="connector68terminal" fill="none" stroke-width="0" width="0.699999" class="terminal" stroke="none"/>
<line id="connector51pin" fill="none" y1="86.4" y2="86.4" stroke-width="0.699999" x1="93.2499" x2="107.65" stroke-linecap="round" class="pin" stroke="#787878"/>
<text x="91.8499" text-anchor="end" font-size="3.49999" y="87.0999" fill="#8c8c8c" stroke-width="0" font-family="'Droid Sans'" class="text" stroke="none">D8</text>
<g x="107.65" y="86.0499" height="0.699999" id="connector51terminal" fill="none" stroke-width="0" width="0.699999" class="terminal" stroke="none"/>
<line id="connector52pin" fill="none" y1="93.6" y2="93.6" stroke-width="0.699999" x1="93.2499" x2="107.65" stroke-linecap="round" class="pin" stroke="#787878"/>
<text x="91.8499" text-anchor="end" font-size="3.49999" y="94.2999" fill="#8c8c8c" stroke-width="0" font-family="'Droid Sans'" class="text" stroke="none">D9 PWM</text>
<g x="107.65" y="93.2499" height="0.699999" id="connector52terminal" fill="none" stroke-width="0" width="0.699999" class="terminal" stroke="none"/>
<line id="connector53pin" fill="none" y1="100.8" y2="100.8" stroke-width="0.699999" x1="93.2499" x2="107.65" stroke-linecap="round" class="pin" stroke="#787878"/>
<text x="91.8499" text-anchor="end" font-size="3.49999" y="101.5" fill="#8c8c8c" stroke-width="0" font-family="'Droid Sans'" class="text" stroke="none">D10 PWM/SS</text>
<g x="107.65" y="100.45" height="0.699999" id="connector53terminal" fill="none" stroke-width="0" width="0.699999" class="terminal" stroke="none"/>
<line id="connector54pin" fill="none" y1="108" y2="108" stroke-width="0.699999" x1="93.2499" x2="107.65" stroke-linecap="round" class="pin" stroke="#787878"/>
<text x="91.8499" text-anchor="end" font-size="3.49999" y="108.7" fill="#8c8c8c" stroke-width="0" font-family="'Droid Sans'" class="text" stroke="none">D11 PWM/MOSI</text>
<g x="107.65" y="107.65" height="0.699999" id="connector54terminal" fill="none" stroke-width="0" width="0.699999" class="terminal" stroke="none"/>
<line id="connector55pin" fill="none" y1="115.2" y2="115.2" stroke-width="0.699999" x1="93.2499" x2="107.65" stroke-linecap="round" class="pin" stroke="#787878"/>
<text x="91.8499" text-anchor="end" font-size="3.49999" y="115.9" fill="#8c8c8c" stroke-width="0" font-family="'Droid Sans'" class="text" stroke="none">D12/MISO</text>
<g x="107.65" y="114.85" height="0.699999" id="connector55terminal" fill="none" stroke-width="0" width="0.699999" class="terminal" stroke="none"/>
<line id="connector41pin" fill="none" y1="122.4" y2="122.4" stroke-width="0" x1="93.2499" x2="107.65" stroke-linecap="round" class="pin" stroke="none"/>
<rect x="107.65" y="122.05" height="0.699999" id="connector41terminal" fill="none" stroke-width="0" width="0.699999" class="terminal" stroke="none"/>
<line id="connector56pin" fill="none" y1="122.4" y2="122.4" stroke-width="0.699999" x1="93.2499" x2="107.65" stroke-linecap="round" class="pin" stroke="#787878"/>
<text x="91.8499" text-anchor="end" font-size="3.49999" y="123.1" fill="#8c8c8c" stroke-width="0" font-family="'Droid Sans'" class="text" stroke="none">D13/SCK</text>
<g x="107.65" y="122.05" height="0.699999" id="connector56terminal" fill="none" stroke-width="0" width="0.699999" class="terminal" stroke="none"/>
<line id="connector43pin" fill="none" y1="28.8" y2="28.8" stroke-width="0" x1="0.349999" x2="14.75" stroke-linecap="round" class="pin" stroke="none"/>
<rect x="-0.349999" y="28.4499" height="0.699999" id="connector43terminal" fill="none" stroke-width="0" width="0.699999" class="terminal" stroke="none"/>
<line id="connector85pin" fill="none" y1="28.8" y2="28.8" stroke-width="0.699999" x1="0.349999" x2="14.75" stroke-linecap="round" class="pin" stroke="#787878"/>
<text x="16.15" text-anchor="start" font-size="3.49999" y="29.4999" fill="#8c8c8c" stroke-width="0" font-family="'Droid Sans'" class="text" stroke="none">RESET</text>
<g x="-0.349999" y="28.4499" height="0.699999" id="connector85terminal" fill="none" stroke-width="0" width="0.699999" class="terminal" stroke="none"/>
<line id="connector49pin" fill="none" y1="36" y2="36" stroke-width="0.699999" x1="0.349999" x2="14.75" stroke-linecap="round" class="pin" stroke="#787878"/>
<text x="16.15" text-anchor="start" font-size="3.49999" y="36.6999" fill="#8c8c8c" stroke-width="0" font-family="'Droid Sans'" class="text" stroke="none">RESET2</text>
<rect x="-0.349999" y="35.6499" height="0.699999" id="connector49terminal" fill="none" stroke-width="0" width="0.699999" class="terminal" stroke="none"/>
<line id="connector58pin" fill="none" y1="43.2" y2="43.2" stroke-width="0.699999" x1="0.349999" x2="14.75" stroke-linecap="round" class="pin" stroke="#787878"/>
<text x="16.15" text-anchor="start" font-size="3.49999" y="43.8999" fill="#8c8c8c" stroke-width="0" font-family="'Droid Sans'" class="text" stroke="none">AREF</text>
<g x="-0.349999" y="42.8499" height="0.699999" id="connector58terminal" fill="none" stroke-width="0" width="0.699999" class="terminal" stroke="none"/>
<line id="connector84pin" fill="none" y1="50.4" y2="50.4" stroke-width="0.699999" x1="0.349999" x2="14.75" stroke-linecap="round" class="pin" stroke="#787878"/>
<text x="16.15" text-anchor="start" font-size="3.49999" y="51.0999" fill="#8c8c8c" stroke-width="0" font-family="'Droid Sans'" class="text" stroke="none">ioref</text>
<g x="-0.349999" y="50.0499" height="0.699999" id="connector84terminal" fill="none" stroke-width="0" width="0.699999" class="terminal" stroke="none"/>
<line id="connector0pin" fill="none" y1="64.8" y2="64.8" stroke-width="0.699999" x1="0.349999" x2="14.75" stroke-linecap="round" class="pin" stroke="#787878"/>
<text x="16.15" text-anchor="start" font-size="3.49999" y="65.4999" fill="#8c8c8c" stroke-width="0" font-family="'Droid Sans'" class="text" stroke="none">A0</text>
<g x="-0.349999" y="64.4499" height="0.699999" id="connector0terminal" fill="none" stroke-width="0" width="0.699999" class="terminal" stroke="none"/>
<line id="connector1pin" fill="none" y1="72" y2="72" stroke-width="0.699999" x1="0.349999" x2="14.75" stroke-linecap="round" class="pin" stroke="#787878"/>
<text x="16.15" text-anchor="start" font-size="3.49999" y="72.6999" fill="#8c8c8c" stroke-width="0" font-family="'Droid Sans'" class="text" stroke="none">A1</text>
<g x="-0.349999" y="71.6499" height="0.699999" id="connector1terminal" fill="none" stroke-width="0" width="0.699999" class="terminal" stroke="none"/>
<line id="connector2pin" fill="none" y1="79.2" y2="79.2" stroke-width="0.699999" x1="0.349999" x2="14.75" stroke-linecap="round" class="pin" stroke="#787878"/>
<text x="16.15" text-anchor="start" font-size="3.49999" y="79.8999" fill="#8c8c8c" stroke-width="0" font-family="'Droid Sans'" class="text" stroke="none">A2</text>
<g x="-0.349999" y="78.8499" height="0.699999" id="connector2terminal" fill="none" stroke-width="0" width="0.699999" class="terminal" stroke="none"/>
<line id="connector3pin" fill="none" y1="86.4" y2="86.4" stroke-width="0.699999" x1="0.349999" x2="14.75" stroke-linecap="round" class="pin" stroke="#787878"/>
<text x="16.15" text-anchor="start" font-size="3.49999" y="87.0999" fill="#8c8c8c" stroke-width="0" font-family="'Droid Sans'" class="text" stroke="none">A3</text>
<g x="-0.349999" y="86.0499" height="0.699999" id="connector3terminal" fill="none" stroke-width="0" width="0.699999" class="terminal" stroke="none"/>
<line id="connector48pin" fill="none" y1="93.6" y2="93.6" stroke-width="0" x1="0.349999" x2="14.75" stroke-linecap="round" class="pin" stroke="none"/>
<rect x="-0.349999" y="93.2499" height="0.699999" id="connector48terminal" fill="none" stroke-width="0" width="0.699999" class="terminal" stroke="none"/>
<line id="connector45pin" fill="none" y1="93.6" y2="93.6" stroke-width="0" x1="0.349999" x2="14.75" stroke-linecap="round" class="pin" stroke="none"/>
<rect x="-0.349999" y="93.2499" height="0.699999" id="connector45terminal" fill="none" stroke-width="0" width="0.699999" class="terminal" stroke="none"/>
<line id="connector4pin" fill="none" y1="93.6" y2="93.6" stroke-width="0" x1="0.349999" x2="14.75" stroke-linecap="round" class="pin" stroke="none"/>
<g x="-0.349999" y="93.2499" height="0.699999" id="connector4terminal" fill="none" stroke-width="0" width="0.699999" class="terminal" stroke="none"/>
<line id="connector39pin" fill="none" y1="93.6" y2="93.6" stroke-width="0" x1="0.349999" x2="14.75" stroke-linecap="round" class="pin" stroke="none"/>
<rect x="-0.349999" y="93.2499" height="0.699999" id="connector39terminal" fill="none" stroke-width="0" width="0.699999" class="terminal" stroke="none"/>
<line id="connector47pin" fill="none" y1="93.6" y2="93.6" stroke-width="0" x1="0.349999" x2="14.75" stroke-linecap="round" class="pin" stroke="none"/>
<rect x="-0.349999" y="93.2499" height="0.699999" id="connector47terminal" fill="none" stroke-width="0" width="0.699999" class="terminal" stroke="none"/>
<line id="connector42pin" fill="none" y1="93.6" y2="93.6" stroke-width="0" x1="0.349999" x2="14.75" stroke-linecap="round" class="pin" stroke="none"/>
<rect x="-0.349999" y="93.2499" height="0.699999" id="connector42terminal" fill="none" stroke-width="0" width="0.699999" class="terminal" stroke="none"/>
<line id="connector59pin" fill="none" y1="93.6" y2="93.6" stroke-width="0.699999" x1="0.349999" x2="14.75" stroke-linecap="round" class="pin" stroke="#787878"/>
<text x="16.15" text-anchor="start" font-size="3.49999" y="94.2999" fill="#8c8c8c" stroke-width="0" font-family="'Droid Sans'" class="text" stroke="none">A4/SDA</text>
<g x="-0.349999" y="93.2499" height="0.699999" id="connector59terminal" fill="none" stroke-width="0" width="0.699999" class="terminal" stroke="none"/>
<line id="connector5pin" fill="none" y1="100.8" y2="100.8" stroke-width="0" x1="0.349999" x2="14.75" stroke-linecap="round" class="pin" stroke="none"/>
<g x="-0.349999" y="100.45" height="0.699999" id="connector5terminal" fill="none" stroke-width="0" width="0.699999" class="terminal" stroke="none"/>
<line id="connector60pin" fill="none" y1="100.8" y2="100.8" stroke-width="0.699999" x1="0.349999" x2="14.75" stroke-linecap="round" class="pin" stroke="#787878"/>
<text x="16.15" text-anchor="start" font-size="3.49999" y="101.5" fill="#8c8c8c" stroke-width="0" font-family="'Droid Sans'" class="text" stroke="none">A5/SCL</text>
<g x="-0.349999" y="100.45" height="0.699999" id="connector60terminal" fill="none" stroke-width="0" width="0.699999" class="terminal" stroke="none"/>
<line id="connector91pin" fill="none" y1="136.8" y2="136.8" stroke-width="0.699999" x1="0.349999" x2="14.75" stroke-linecap="round" class="pin" stroke="#787878"/>
<text x="16.15" text-anchor="start" font-size="3.49999" y="137.5" fill="#8c8c8c" stroke-width="0" font-family="'Droid Sans'" class="text" stroke="none">N/C</text>
<g x="-0.349999" y="136.45" height="0.699999" id="connector91terminal" fill="none" stroke-width="0" width="0.699999" class="terminal" stroke="none"/>
<line id="connector88pin" fill="none" y1="150.85" y2="165.25" stroke-width="0" x1="57.6" x2="57.6" stroke-linecap="round" class="pin" stroke="none"/>
<g x="57.2499" y="165.25" height="0.699999" id="connector88terminal" fill="none" stroke-width="0" width="0.699999" class="terminal" stroke="none"/>
<line id="connector57pin" fill="none" y1="150.85" y2="165.25" stroke-width="0" x1="57.6" x2="57.6" stroke-linecap="round" class="pin" stroke="none"/>
<g x="57.2499" y="165.25" height="0.699999" id="connector57terminal" fill="none" stroke-width="0" width="0.699999" class="terminal" stroke="none"/>
<line id="connector44pin" fill="none" y1="150.85" y2="165.25" stroke-width="0" x1="57.6" x2="57.6" stroke-linecap="round" class="pin" stroke="none"/>
<rect x="57.2499" y="165.25" height="0.699999" id="connector44terminal" fill="none" stroke-width="0" width="0.699999" class="terminal" stroke="none"/>
<line id="connector50pin" fill="none" y1="150.85" y2="165.25" stroke-width="0" x1="57.6" x2="57.6" stroke-linecap="round" class="pin" stroke="none"/>
<rect x="57.2499" y="165.25" height="0.699999" id="connector50terminal" fill="none" stroke-width="0" width="0.699999" class="terminal" stroke="none"/>
<line id="connector89pin" fill="none" y1="150.85" y2="165.25" stroke-width="0.699999" x1="57.6" x2="57.6" stroke-linecap="round" class="pin" stroke="#787878"/>
<g transform="matrix(1, 0, 0, 1, 58.2999, 149.45)">
<g>
<g transform="rotate(270)">
<g>
<text x="0" text-anchor="start" font-size="3.49999" y="0" fill="#8c8c8c" stroke-width="0" font-family="'Droid Sans'" class="text" stroke="none">GND</text>
</g>
</g>
</g>
</g>
<g x="57.2499" y="165.25" height="0.699999" id="connector89terminal" fill="none" stroke-width="0" width="0.699999" class="terminal" stroke="none"/>
<line id="connector86pin" fill="none" y1="0.349999" y2="14.75" stroke-width="0.699999" x1="36" x2="36" stroke-linecap="round" class="pin" stroke="#787878"/>
<g transform="matrix(1, 0, 0, 1, 36.6999, 16.15)">
<g>
<g transform="rotate(270)">
<g>
<text x="0" text-anchor="end" font-size="3.49999" y="0" fill="#8c8c8c" stroke-width="0" font-family="'Droid Sans'" class="text" stroke="none">3V3</text>
</g>
</g>
</g>
</g>
<g x="35.6499" y="-0.349999" height="0.699999" id="connector86terminal" fill="none" stroke-width="0" width="0.699999" class="terminal" stroke="none"/>
<line id="connector40pin" fill="none" y1="0.349999" y2="14.75" stroke-width="0" x1="50.4" x2="50.4" stroke-linecap="round" class="pin" stroke="none"/>
<rect x="50.0499" y="-0.349999" height="0.699999" id="connector40terminal" fill="none" stroke-width="0" width="0.699999" class="terminal" stroke="none"/>
<line id="connector46pin" fill="none" y1="0.349999" y2="14.75" stroke-width="0" x1="50.4" x2="50.4" stroke-linecap="round" class="pin" stroke="none"/>
<rect x="50.0499" y="-0.349999" height="0.699999" id="connector46terminal" fill="none" stroke-width="0" width="0.699999" class="terminal" stroke="none"/>
<line id="connector87pin" fill="none" y1="0.349999" y2="14.75" stroke-width="0.699999" x1="50.4" x2="50.4" stroke-linecap="round" class="pin" stroke="#787878"/>
<g transform="matrix(1, 0, 0, 1, 51.0999, 16.15)">
<g>
<g transform="rotate(270)">
<g>
<text x="0" text-anchor="end" font-size="3.49999" y="0" fill="#8c8c8c" stroke-width="0" font-family="'Droid Sans'" class="text" stroke="none">5V</text>
</g>
</g>
</g>
</g>
<g x="50.0499" y="-0.349999" height="0.699999" id="connector87terminal" fill="none" stroke-width="0" width="0.699999" class="terminal" stroke="none"/>
<line id="connector90pin" fill="none" y1="0.349999" y2="14.75" stroke-width="0.699999" x1="64.8" x2="64.8" stroke-linecap="round" class="pin" stroke="#787878"/>
<g transform="matrix(1, 0, 0, 1, 65.4999, 16.15)">
<g>
<g transform="rotate(270)">
<g>
<text x="0" text-anchor="end" font-size="3.49999" y="0" fill="#8c8c8c" stroke-width="0" font-family="'Droid Sans'" class="text" stroke="none">VIN</text>
</g>
</g>
</g>
</g>
<g x="64.4499" y="-0.349999" height="0.699999" id="connector90terminal" fill="none" stroke-width="0" width="0.699999" class="terminal" stroke="none"/>
<text x="54.4501" text-anchor="middle" id="label" font-size="4.25001" y="76.4498" fill="#000000" stroke-width="0" font-family="'Droid Sans'" class="text" stroke="none">Arduino</text>
<text x="54.4501" text-anchor="middle" id="label" font-size="4.25001" y="80.9833" fill="#000000" stroke-width="0" font-family="'Droid Sans'" class="text" stroke="none">Uno</text>
<text x="54.4501" text-anchor="middle" id="label" font-size="4.25001" y="85.5167" fill="#000000" stroke-width="0" font-family="'Droid Sans'" class="text" stroke="none">(Rev3)</text>
</g>
</g></g><g partID='64520'><g transform='translate(268.499,206.464)' ><g id="schematic">
<g>
<path d="M13.5,14.966L9.9,14.966c-0.193,0,-0.35,-0.156,-0.35,-0.35s0.156,-0.35,0.35,-0.35L13.5,14.266c0.193,0,0.35,0.156,0.35,0.35S13.694,14.966,13.5,14.966z"/>
</g>
<g>
<path d="M9.9,14.966L6.3,14.966c-0.193,0,-0.35,-0.156,-0.35,-0.35s0.157,-0.35,0.35,-0.35l3.6,0c0.193,0,0.35,0.156,0.35,0.35S10.093,14.966,9.9,14.966z"/>
</g>
<g>
<polygon fill="#FFFFFF" points="9.9,14.616,6.3,7.416,9.9,7.416,13.5,7.416"/>
<path d="M9.9,15.398L5.734,7.066l8.333,0L9.9,15.398zM6.866,7.766L9.9,13.834l3.034,-6.068L6.866,7.766z"/>
</g>
<g>
<path d="M9.9,14.841c-0.124,0,-0.225,-0.101,-0.225,-0.225l0,-7.2c0,-0.124,0.101,-0.225,0.225,-0.225s0.225,0.101,0.225,0.225l0,7.2C10.124,14.74,10.024,14.841,9.9,14.841z"/>
</g>
<g>
<path d="M1.8,12.141c-0.058,0,-0.115,-0.021,-0.159,-0.065c-0.088,-0.088,-0.088,-0.23,0,-0.318l2.34,-2.341c0.088,-0.088,0.23,-0.088,0.318,0s0.088,0.23,0,0.318l-2.34,2.341C1.915,12.12,1.858,12.141,1.8,12.141z"/>
</g>
<g>
<path d="M2.16,15.381c-0.058,0,-0.115,-0.021,-0.159,-0.065c-0.088,-0.088,-0.088,-0.23,0,-0.318l2.34,-2.34c0.088,-0.088,0.23,-0.088,0.318,0s0.088,0.23,0,0.318l-2.34,2.34C2.276,15.359,2.218,15.381,2.16,15.381z"/>
</g>
<g id="connector0pin">
<path fill="#787878" d="M9.9,22.166c-0.193,0,-0.35,-0.156,-0.35,-0.35l0,-7.2c0,-0.193,0.156,-0.35,0.35,-0.35s0.35,0.156,0.35,0.35l0,7.2C10.249,22.01,10.093,22.166,9.9,22.166z"/>
</g>
<g id="connector0terminal">
<rect x="9.9" y="21.816" height="0.001" fill="none" width="0.001"/>
</g>
<g transform="matrix(1, 0, 0, 1, 3.429, 6.4262)">
<g>
<g transform="rotate(270)">
<g>
<g enable-background="new    ">
<path fill="#787878" d="M-11.647,5.54l-0.891,0L-12.538,5.388l0.342,-0.372c0.049,-0.053,0.093,-0.101,0.131,-0.145s0.071,-0.086,0.099,-0.128c0.026,-0.042,0.047,-0.084,0.062,-0.125c0.015,-0.043,0.021,-0.088,0.021,-0.138c0,-0.038,-0.005,-0.072,-0.017,-0.102s-0.027,-0.054,-0.047,-0.075c-0.021,-0.02,-0.045,-0.035,-0.073,-0.046s-0.06,-0.016,-0.094,-0.016c-0.062,0,-0.118,0.013,-0.167,0.038c-0.051,0.024,-0.098,0.057,-0.143,0.096l-0.1,-0.116c0.025,-0.023,0.055,-0.046,0.084,-0.065c0.029,-0.021,0.063,-0.039,0.097,-0.054s0.071,-0.026,0.109,-0.036c0.038,-0.008,0.079,-0.013,0.121,-0.013c0.063,0,0.119,0.009,0.169,0.026c0.051,0.018,0.094,0.043,0.129,0.076c0.035,0.032,0.063,0.072,0.082,0.119c0.019,0.048,0.028,0.101,0.028,0.16c0,0.056,-0.009,0.108,-0.026,0.158c-0.017,0.05,-0.041,0.1,-0.07,0.148c-0.031,0.048,-0.066,0.097,-0.109,0.146c-0.041,0.049,-0.087,0.1,-0.136,0.152L-12.32,5.37l0,0.008l0.673,0L-11.647,5.54z"/>
</g>
</g>
</g>
</g>
</g>
<g id="connector1pin">
<path fill="#787878" d="M9.9,7.766c-0.193,0,-0.35,-0.157,-0.35,-0.35l0,-7.2c0,-0.193,0.156,-0.35,0.35,-0.35s0.35,0.157,0.35,0.35l0,7.2C10.249,7.609,10.093,7.766,9.9,7.766z"/>
</g>
<g id="connector1terminal">
<polygon fill="none" points="9.9,0.216,9.901,0.216,9.901,0.216"/>
</g>
<g transform="matrix(1, 0, 0, 1, 3.429, 1.3462)">
<g>
<g transform="rotate(270)">
<g>
<g enable-background="new    ">
<path fill="#787878" d="M-2.616,5.54l-0.172,0L-2.788,4.648c0,-0.028,0,-0.058,0,-0.09s0.001,-0.063,0.002,-0.095c0.001,-0.032,0.002,-0.063,0.003,-0.092c0.001,-0.028,0.002,-0.054,0.002,-0.076c-0.011,0.012,-0.021,0.021,-0.029,0.03s-0.017,0.017,-0.026,0.024s-0.018,0.016,-0.028,0.025c-0.01,0.008,-0.021,0.019,-0.035,0.03l-0.145,0.118l-0.094,-0.12l0.374,-0.292l0.146,0L-2.618,5.54z"/>
</g>
</g>
</g>
</g>
</g>
<g>
<path d="M0.18,13.536l1.08,-2.521l1.44,1.438L0.18,13.536z"/>
</g>
<g>
<path d="M0.54,16.776l1.08,-2.521l1.438,1.438L0.54,16.776z"/>
</g>
</g>
</g></g><g partID='83140'><g transform='translate(278.418,41.507)' ><g id="schematic">
<line id="connector0pin" fill="none" y1="6.78" stroke-width="0.75" y2="13.98" stroke-miterlimit="10" x1="7.2" x2="7.2" stroke-linecap="round" stroke="#787878"/>
<g id="connector0terminal" fill="none" points="6.817,13.567,7.546,13.546,7.546,14.4,6.859,14.359"/>
<path fill="none" stroke-width="0.9" stroke-linecap="round" stroke="#000000" d="M0.45,6.564l13.5,0"/>
<g transform="matrix(1, 0, 0, 1, 1.4985, 4.9878)">
<text id="label" font-size="4.4991" font-family="'DroidSans'">5V</text>
</g>
</g>
</g></g><g partID='83400'><g transform='translate(364.819,41.507)' ><g id="schematic">
<line id="connector0pin" fill="none" y1="6.78" stroke-width="0.75" y2="13.98" stroke-miterlimit="10" x1="7.2" x2="7.2" stroke-linecap="round" stroke="#787878"/>
<g id="connector0terminal" fill="none" points="6.817,13.567,7.546,13.546,7.546,14.4,6.859,14.359"/>
<path fill="none" stroke-width="0.9" stroke-linecap="round" stroke="#000000" d="M0.45,6.564l13.5,0"/>
<g transform="matrix(1, 0, 0, 1, 1.4985, 4.9878)">
<text id="label" font-size="4.4991" font-family="'DroidSans'">5V</text>
</g>
</g>
</g></g><g partID='64550'><g transform='translate(40.8185,41.5072)' ><g id="schematic">
<line id="connector0pin" fill="none" y1="6.78" stroke-width="0.75" y2="13.98" stroke-miterlimit="10" x1="7.2" x2="7.2" stroke-linecap="round" stroke="#787878"/>
<g id="connector0terminal" fill="none" points="6.817,13.567,7.546,13.546,7.546,14.4,6.859,14.359"/>
<path fill="none" stroke-width="0.9" stroke-linecap="round" stroke="#000000" d="M0.45,6.564l13.5,0"/>
<g transform="matrix(1, 0, 0, 1, 1.4985, 4.9878)">
<text id="label" font-size="4.4991" font-family="'DroidSans'">5V</text>
</g>
</g>
</g></g><g partID='64600'><g transform='translate(148.799,271.003)' ><g xmlns="http://www.w3.org/2000/svg" id="schematic">
<path xmlns="http://www.w3.org/2000/svg" id="connector0pin" fill="none" stroke-width="0.75" stroke-linecap="round" stroke="#787878" d="M7.201,7.575l0,-7.2"/>
<g xmlns="http://www.w3.org/2000/svg" x="6.728" id="connector0terminal" y="0" height="0.953" fill="none" width="0.945"/>
<path xmlns="http://www.w3.org/2000/svg" id="path4098" fill="none" stroke-width="0.9" stroke-linecap="round" stroke="#000000" d="M0.5,7.711L13.9,7.711"/>
<path xmlns="http://www.w3.org/2000/svg" id="path4100" fill="none" stroke-width="0.9" stroke-linecap="round" stroke="#000000" d="M2.732,10.456l8.935,0"/>
<path xmlns="http://www.w3.org/2000/svg" id="path4102" fill="none" stroke-width="0.9" stroke-linecap="round" stroke="#000000" d="M9.431,13.175L4.967,13.175"/>
</g>
</g></g><g partID='64980'><g transform='translate(244.859,177.546)' ><g xmlns="http://www.w3.org/2000/svg" id="schematic">
<line xmlns="http://www.w3.org/2000/svg" fill="none" y1="9.333" stroke-width="0.7" y2="7.534" x1="4.741" x2="4.741" stroke-linecap="round" stroke="#000000"/>
<line xmlns="http://www.w3.org/2000/svg" fill="none" y1="21.934" stroke-width="0.7" y2="9.333" x1="4.741" x2="1.142" stroke-linecap="round" stroke="#000000"/>
<circle xmlns="http://www.w3.org/2000/svg" fill="none" stroke-width="0.7" cx="4.741" cy="21.934" r="0.36" stroke="#000000"/>
<circle xmlns="http://www.w3.org/2000/svg" fill="none" stroke-width="0.7" cx="4.741" cy="7.534" r="0.36" stroke="#000000"/>
<line xmlns="http://www.w3.org/2000/svg" id="connector0pin" fill="none" y1="29.135" stroke-width="0.7" y2="21.934" x1="4.741" x2="4.741" stroke-linecap="round" stroke="#555555"/>
<g xmlns="http://www.w3.org/2000/svg" x="4.74" id="connector0terminal" y="29.134" height="0.001" fill="none" width="0.002"/>
<line xmlns="http://www.w3.org/2000/svg" id="connector1pin" fill="none" y1="0.333" stroke-width="0.7" y2="7.534" x1="4.741" x2="4.741" stroke-linecap="round" stroke="#555555"/>
<g xmlns="http://www.w3.org/2000/svg" x="4.741" id="connector1terminal" y="0.333" height="0.001" fill="none" width="0"/>
</g>
</g></g><g partID='66770'><g transform='translate(275.304,264.63)' ><g transform='matrix(0,-1,1,0,0,0)'  ><g xmlns="http://www.w3.org/2000/svg" id="schematic">
<line xmlns="http://www.w3.org/2000/svg" y1="3.096" y2="0.216" stroke-width="0.432002" x1="7.55002" x2="8.63003" stroke-linecap="round" class="other" stroke="#000000"/>
<line xmlns="http://www.w3.org/2000/svg" y1="0.216" y2="5.976" stroke-width="0.432002" x1="8.63003" x2="10.43" stroke-linecap="round" class="other" stroke="#000000"/>
<line xmlns="http://www.w3.org/2000/svg" y1="5.976" y2="0.216" stroke-width="0.432002" x1="10.43" x2="12.23" stroke-linecap="round" class="other" stroke="#000000"/>
<line xmlns="http://www.w3.org/2000/svg" y1="0.216" y2="5.976" stroke-width="0.432002" x1="12.23" x2="14.03" stroke-linecap="round" class="other" stroke="#000000"/>
<line xmlns="http://www.w3.org/2000/svg" y1="5.976" y2="0.216" stroke-width="0.432002" x1="14.03" x2="15.8301" stroke-linecap="round" class="other" stroke="#000000"/>
<line xmlns="http://www.w3.org/2000/svg" y1="0.216" y2="5.976" stroke-width="0.432002" x1="15.8301" x2="17.6301" stroke-linecap="round" class="other" stroke="#000000"/>
<line xmlns="http://www.w3.org/2000/svg" y1="5.976" y2="0.216" stroke-width="0.432002" x1="17.6301" x2="19.4301" stroke-linecap="round" class="other" stroke="#000000"/>
<line xmlns="http://www.w3.org/2000/svg" y1="0.216" y2="5.976" stroke-width="0.432002" x1="19.4301" x2="21.2301" stroke-linecap="round" class="other" stroke="#000000"/>
<line xmlns="http://www.w3.org/2000/svg" y1="5.976" y2="3.096" stroke-width="0.432002" x1="21.2301" x2="21.9501" stroke-linecap="round" class="other" stroke="#000000"/>
<line xmlns="http://www.w3.org/2000/svg" id="connector1pin" y1="3.096" y2="3.096" stroke-width="0.700001" x1="29.1502" x2="21.9501" stroke-linecap="round" connectorname="2" class="pin" stroke="#787878"/>
<g xmlns="http://www.w3.org/2000/svg" x="29.1502" id="connector1terminal" y="3.096" height="0.000283465" fill="none" stroke-width="0" width="0.000283466" class="terminal" stroke="none"/>
<text xmlns="http://www.w3.org/2000/svg" x="25.5501" text-anchor="middle" font-size="2.50001" y="2.046" fill="#8c8c8c" stroke-width="0" font-family="'Droid Sans'" class="text" stroke="none">2</text>
<line xmlns="http://www.w3.org/2000/svg" id="connector0pin" y1="3.096" y2="3.096" stroke-width="0.700001" x1="0.350001" x2="7.55002" stroke-linecap="round" connectorname="1" class="pin" stroke="#787878"/>
<g xmlns="http://www.w3.org/2000/svg" x="0.350001" id="connector0terminal" y="3.096" height="0.000283465" fill="none" stroke-width="0" width="0.000283466" class="terminal" stroke="none"/>
<text xmlns="http://www.w3.org/2000/svg" x="3.95001" text-anchor="middle" font-size="2.50001" y="2.046" fill="#8c8c8c" stroke-width="0" font-family="'Droid Sans'" class="text" stroke="none">1</text>
</g>
</g></g></g><g partID='65770'><g transform='translate(246.504,264.63)' ><g transform='matrix(0,-1,1,0,0,0)'  ><g xmlns="http://www.w3.org/2000/svg" id="schematic">
<line xmlns="http://www.w3.org/2000/svg" y1="3.096" y2="0.216" stroke-width="0.432002" x1="7.55002" x2="8.63003" stroke-linecap="round" class="other" stroke="#000000"/>
<line xmlns="http://www.w3.org/2000/svg" y1="0.216" y2="5.976" stroke-width="0.432002" x1="8.63003" x2="10.43" stroke-linecap="round" class="other" stroke="#000000"/>
<line xmlns="http://www.w3.org/2000/svg" y1="5.976" y2="0.216" stroke-width="0.432002" x1="10.43" x2="12.23" stroke-linecap="round" class="other" stroke="#000000"/>
<line xmlns="http://www.w3.org/2000/svg" y1="0.216" y2="5.976" stroke-width="0.432002" x1="12.23" x2="14.03" stroke-linecap="round" class="other" stroke="#000000"/>
<line xmlns="http://www.w3.org/2000/svg" y1="5.976" y2="0.216" stroke-width="0.432002" x1="14.03" x2="15.8301" stroke-linecap="round" class="other" stroke="#000000"/>
<line xmlns="http://www.w3.org/2000/svg" y1="0.216" y2="5.976" stroke-width="0.432002" x1="15.8301" x2="17.6301" stroke-linecap="round" class="other" stroke="#000000"/>
<line xmlns="http://www.w3.org/2000/svg" y1="5.976" y2="0.216" stroke-width="0.432002" x1="17.6301" x2="19.4301" stroke-linecap="round" class="other" stroke="#000000"/>
<line xmlns="http://www.w3.org/2000/svg" y1="0.216" y2="5.976" stroke-width="0.432002" x1="19.4301" x2="21.2301" stroke-linecap="round" class="other" stroke="#000000"/>
<line xmlns="http://www.w3.org/2000/svg" y1="5.976" y2="3.096" stroke-width="0.432002" x1="21.2301" x2="21.9501" stroke-linecap="round" class="other" stroke="#000000"/>
<line xmlns="http://www.w3.org/2000/svg" id="connector1pin" y1="3.096" y2="3.096" stroke-width="0.700001" x1="29.1502" x2="21.9501" stroke-linecap="round" connectorname="2" class="pin" stroke="#787878"/>
<g xmlns="http://www.w3.org/2000/svg" x="29.1502" id="connector1terminal" y="3.096" height="0.000283465" fill="none" stroke-width="0" width="0.000283466" class="terminal" stroke="none"/>
<text xmlns="http://www.w3.org/2000/svg" x="25.5501" text-anchor="middle" font-size="2.50001" y="2.046" fill="#8c8c8c" stroke-width="0" font-family="'Droid Sans'" class="text" stroke="none">2</text>
<line xmlns="http://www.w3.org/2000/svg" id="connector0pin" y1="3.096" y2="3.096" stroke-width="0.700001" x1="0.350001" x2="7.55002" stroke-linecap="round" connectorname="1" class="pin" stroke="#787878"/>
<g xmlns="http://www.w3.org/2000/svg" x="0.350001" id="connector0terminal" y="3.096" height="0.000283465" fill="none" stroke-width="0" width="0.000283466" class="terminal" stroke="none"/>
<text xmlns="http://www.w3.org/2000/svg" x="3.95001" text-anchor="middle" font-size="2.50001" y="2.046" fill="#8c8c8c" stroke-width="0" font-family="'Droid Sans'" class="text" stroke="none">1</text>
</g>
</g></g></g><g partID='68310'><g transform='translate(371.831,84.2805)' ><g xmlns="http://www.w3.org/2000/svg" id="schematic">
<rect xmlns="http://www.w3.org/2000/svg" id="connector0pin" y="28.461" height="0.677" fill="none" width="4.063"/>
<rect xmlns="http://www.w3.org/2000/svg" id="connector1pin" y="14.062" height="0.677" fill="none" width="4.063"/>
<rect xmlns="http://www.w3.org/2000/svg" id="connector2pin" y="21.262" height="0.677" fill="none" width="4.063"/>
<g xmlns="http://www.w3.org/2000/svg" id="connector0terminal" y="28.461" height="0.677" fill="none" width="0.338"/>
<g xmlns="http://www.w3.org/2000/svg" id="connector1terminal" y="14.062" height="0.677" fill="none" width="0.338"/>
<g xmlns="http://www.w3.org/2000/svg" id="connector2terminal" y="21.262" height="0.677" fill="none" width="0.338"/>
<g xmlns="http://www.w3.org/2000/svg" id="Diagram">
<rect xmlns="http://www.w3.org/2000/svg" x="7.2" y="7.2" stroke-linejoin="round" height="28.8" fill="none" stroke-width="0.9" stroke-linecap="round" width="28.8" stroke="#000000"/>
<line xmlns="http://www.w3.org/2000/svg" stroke-linejoin="round" fill="none" y1="28.8" stroke-width="0.7" y2="28.8" x1="7.2" x2="0" stroke-linecap="round" stroke="#787878"/>
<line xmlns="http://www.w3.org/2000/svg" stroke-linejoin="round" fill="none" y1="14.4" stroke-width="0.7" y2="14.4" x1="0" x2="7.2" stroke-linecap="round" stroke="#787878"/>
<line xmlns="http://www.w3.org/2000/svg" stroke-linejoin="round" fill="none" y1="21.6" stroke-width="0.7" y2="21.6" x1="0" x2="7.2" stroke-linecap="round" stroke="#787878"/>
<g xmlns="http://www.w3.org/2000/svg">
<path xmlns="http://www.w3.org/2000/svg" stroke-linejoin="round" fill="#FFFFFF" stroke-width="0.9" stroke-linecap="round" stroke="#000000" d="M46.091,15.05c-0.469,-1.065,-1.604,-1.63,-2.701,-1.424l0,0l-12.355,1.986l0.002,0.004c-0.513,0.071,-1.023,0.209,-1.521,0.427c-2.91,1.278,-4.233,4.675,-2.955,7.585c1.277,2.911,4.674,4.233,7.584,2.956c0.498,-0.219,0.944,-0.503,1.344,-0.832l0.002,0.004l9.823,-7.753l-0.001,-0.001C46.206,17.333,46.559,16.116,46.091,15.05z"/>
<circle xmlns="http://www.w3.org/2000/svg" stroke-linejoin="round" fill="none" stroke-width="0.9" cx="31.83" cy="21.313" stroke-linecap="round" r="3.301" stroke="#000000"/>
<circle xmlns="http://www.w3.org/2000/svg" stroke-linejoin="round" fill="#FFFFFF" stroke-width="0.9" cx="43.843" cy="16.037" stroke-linecap="round" r="1.051" stroke="#000000"/>
</g>
</g>
</g>
</g></g><g partID='67310'><g transform='translate(285.431,84.2805)' ><g xmlns="http://www.w3.org/2000/svg" id="schematic">
<rect xmlns="http://www.w3.org/2000/svg" id="connector0pin" y="28.461" height="0.677" fill="none" width="4.063"/>
<rect xmlns="http://www.w3.org/2000/svg" id="connector1pin" y="14.062" height="0.677" fill="none" width="4.063"/>
<rect xmlns="http://www.w3.org/2000/svg" id="connector2pin" y="21.262" height="0.677" fill="none" width="4.063"/>
<g xmlns="http://www.w3.org/2000/svg" id="connector0terminal" y="28.461" height="0.677" fill="none" width="0.338"/>
<g xmlns="http://www.w3.org/2000/svg" id="connector1terminal" y="14.062" height="0.677" fill="none" width="0.338"/>
<g xmlns="http://www.w3.org/2000/svg" id="connector2terminal" y="21.262" height="0.677" fill="none" width="0.338"/>
<g xmlns="http://www.w3.org/2000/svg" id="Diagram">
<rect xmlns="http://www.w3.org/2000/svg" x="7.2" y="7.2" stroke-linejoin="round" height="28.8" fill="none" stroke-width="0.9" stroke-linecap="round" width="28.8" stroke="#000000"/>
<line xmlns="http://www.w3.org/2000/svg" stroke-linejoin="round" fill="none" y1="28.8" stroke-width="0.7" y2="28.8" x1="7.2" x2="0" stroke-linecap="round" stroke="#787878"/>
<line xmlns="http://www.w3.org/2000/svg" stroke-linejoin="round" fill="none" y1="14.4" stroke-width="0.7" y2="14.4" x1="0" x2="7.2" stroke-linecap="round" stroke="#787878"/>
<line xmlns="http://www.w3.org/2000/svg" stroke-linejoin="round" fill="none" y1="21.6" stroke-width="0.7" y2="21.6" x1="0" x2="7.2" stroke-linecap="round" stroke="#787878"/>
<g xmlns="http://www.w3.org/2000/svg">
<path xmlns="http://www.w3.org/2000/svg" stroke-linejoin="round" fill="#FFFFFF" stroke-width="0.9" stroke-linecap="round" stroke="#000000" d="M46.091,15.05c-0.469,-1.065,-1.604,-1.63,-2.701,-1.424l0,0l-12.355,1.986l0.002,0.004c-0.513,0.071,-1.023,0.209,-1.521,0.427c-2.91,1.278,-4.233,4.675,-2.955,7.585c1.277,2.911,4.674,4.233,7.584,2.956c0.498,-0.219,0.944,-0.503,1.344,-0.832l0.002,0.004l9.823,-7.753l-0.001,-0.001C46.206,17.333,46.559,16.116,46.091,15.05z"/>
<circle xmlns="http://www.w3.org/2000/svg" stroke-linejoin="round" fill="none" stroke-width="0.9" cx="31.83" cy="21.313" stroke-linecap="round" r="3.301" stroke="#000000"/>
<circle xmlns="http://www.w3.org/2000/svg" stroke-linejoin="round" fill="#FFFFFF" stroke-width="0.9" cx="43.843" cy="16.037" stroke-linecap="round" r="1.051" stroke="#000000"/>
</g>
</g>
</g>
</g></g><g partID='79840'><g transform='translate(48.021,188.688)' ><g transform='matrix(-1,0,0,-1,0,0)'  ><g xmlns="http://www.w3.org/2000/svg" id="schematic">
<line xmlns="http://www.w3.org/2000/svg" id="connector0pin" stroke-linejoin="round" fill="none" y1="3.6" stroke-width="0.7" y2="3.6" x1="0.35" x2="7.346" stroke-linecap="round" stroke="#000000"/>
<g xmlns="http://www.w3.org/2000/svg" x="-0.252" id="connector0terminal" y="3.504" height="0.208" fill="none" width="0.546"/>
<polyline xmlns="http://www.w3.org/2000/svg" stroke-linejoin="round" fill="none" stroke-width="0.7" stroke-linecap="round" stroke="#000000" points="14.1,5.557,9.928,3.6,14.1,1.643"/>
<line xmlns="http://www.w3.org/2000/svg" id="line" stroke-linejoin="round" fill="none" y1="3.6" stroke-width="0.7" y2="3.6" x1="10.11" x2="4.804" stroke-linecap="round" stroke="#000000"/>
<text xmlns="http://www.w3.org/2000/svg" x="5.05" text-anchor="middle" font-size="2.5" y="2.58" fill="#8c8c8c" stroke-width="0" font-family="'Droid Sans'" class="text" stroke="none">1</text>
<line xmlns="http://www.w3.org/2000/svg" id="connector1pin" stroke-linejoin="round" fill="none" y1="10.8" stroke-width="0.7" y2="10.8" x1="0.35" x2="7.346" stroke-linecap="round" stroke="#000000"/>
<g xmlns="http://www.w3.org/2000/svg" x="-0.252" id="connector1terminal" y="10.704" height="0.208" fill="none" width="0.546"/>
<polyline xmlns="http://www.w3.org/2000/svg" stroke-linejoin="round" fill="none" stroke-width="0.7" stroke-linecap="round" stroke="#000000" points="14.1,12.757,9.928,10.8,14.1,8.843"/>
<line xmlns="http://www.w3.org/2000/svg" id="line" stroke-linejoin="round" fill="none" y1="10.8" stroke-width="0.7" y2="10.8" x1="10.11" x2="4.804" stroke-linecap="round" stroke="#000000"/>
<text xmlns="http://www.w3.org/2000/svg" x="5.05" text-anchor="middle" font-size="2.5" y="9.78" fill="#8c8c8c" stroke-width="0" font-family="'Droid Sans'" class="text" stroke="none">2</text>
</g>
</g></g></g><g partID='64720'><line stroke-linecap='round' stroke='#404040' x1='156' y1='249.88' x2='156' y2='271.48' stroke-width='0.699998' /></g><circle  fill="black" cx="156" cy="271.48" r="1.44" stroke-width="0" stroke="none" /><g partID='64840'><line stroke-linecap='round' stroke='#404040' x1='148.8' y1='55.88' x2='48' y2='55.48' stroke-width='0.699998' /></g><circle  fill="black" cx="148.8" cy="55.88" r="1.44" stroke-width="0" stroke="none" /><g partID='64810'><line stroke-linecap='round' stroke='#404040' x1='148.8' y1='84.2801' x2='148.8' y2='55.88' stroke-width='0.699998' /></g><g partID='67340'><line stroke-linecap='round' stroke='#404040' x1='249.2' y1='55.48' x2='249.6' y2='55.48' stroke-width='0.699998' /></g><g partID='65940'><line stroke-linecap='round' stroke='#404040' x1='249.6' y1='55.48' x2='249.6' y2='177.879' stroke-width='0.699998' /></g><g partID='65870'><line stroke-linecap='round' stroke='#404040' x1='148.8' y1='55.88' x2='249.2' y2='55.48' stroke-width='0.699998' /></g><g partID='66790'><line stroke-linecap='round' stroke='#404040' x1='278.4' y1='228.28' x2='278.4' y2='235.48' stroke-width='0.699998' /></g><g partID='68140'><line stroke-linecap='round' stroke='#404040' x1='250' y1='271.08' x2='278.4' y2='271.48' stroke-width='0.699998' /></g><circle  fill="black" cx="250" cy="271.08" r="1.44" stroke-width="0" stroke="none" /><g partID='67150'><line stroke-linecap='round' stroke='#404040' x1='156' y1='271.48' x2='250' y2='271.08' stroke-width='0.699998' /></g><circle  fill="black" cx="156" cy="271.48" r="1.44" stroke-width="0" stroke="none" /><g partID='68050'><line stroke-linecap='round' stroke='#404040' x1='278.4' y1='271.48' x2='278.4' y2='264.28' stroke-width='0.699998' /></g><circle  fill="black" cx="278.4" cy="271.48" r="1.44" stroke-width="0" stroke="none" /><g partID='68200'><line stroke-linecap='round' stroke='#404040' x1='250' y1='271.08' x2='249.6' y2='264.28' stroke-width='0.699998' /></g><g partID='68500'><line stroke-linecap='round' stroke='#404040' x1='285.6' y1='55.48' x2='285.6' y2='98.681' stroke-width='0.699998' /></g><g partID='83420'><line stroke-linecap='round' stroke='#404040' x1='372' y1='98.681' x2='372' y2='98.681' stroke-width='0.699998' /></g><g partID='68840'><line stroke-linecap='round' stroke='#404040' x1='372' y1='55.48' x2='372' y2='98.681' stroke-width='0.699998' /></g><g partID='71870'><line stroke-linecap='round' stroke='#404040' x1='285.6' y1='149.08' x2='285.6' y2='113.08' stroke-width='0.699998' /></g><g partID='71330'><line stroke-linecap='round' stroke='#404040' x1='321.6' y1='149.08' x2='285.6' y2='149.08' stroke-width='0.699998' /></g><circle  fill="black" cx="321.6" cy="149.08" r="1.44" stroke-width="0" stroke="none" /><g partID='69880'><line stroke-linecap='round' stroke='#404040' x1='322' y1='271.88' x2='321.6' y2='149.08' stroke-width='0.699998' /></g><g partID='69730'><line stroke-linecap='round' stroke='#404040' x1='278.4' y1='271.48' x2='322' y2='271.88' stroke-width='0.699998' /></g><g partID='71680'><line stroke-linecap='round' stroke='#404040' x1='372' y1='149.08' x2='372' y2='113.08' stroke-width='0.699998' /></g><g partID='71490'><line stroke-linecap='round' stroke='#404040' x1='321.6' y1='149.08' x2='372' y2='149.08' stroke-width='0.699998' /></g><g partID='72200'><line stroke-linecap='round' stroke='#404040' x1='220.8' y1='105.88' x2='285.6' y2='105.881' stroke-width='0.699998' /></g><g partID='72130'><line stroke-linecap='round' stroke='#404040' x1='220.8' y1='185.08' x2='220.8' y2='105.88' stroke-width='0.699998' /></g><g partID='72060'><line stroke-linecap='round' stroke='#404040' x1='206.4' y1='185.08' x2='220.8' y2='185.08' stroke-width='0.699998' /></g><g partID='72550'><line stroke-linecap='round' stroke='#404040' x1='228' y1='127.48' x2='350.4' y2='127.48' stroke-width='0.699998' /></g><g partID='72480'><line stroke-linecap='round' stroke='#404040' x1='350.4' y1='105.88' x2='372' y2='105.881' stroke-width='0.699998' /></g><g partID='72410'><line stroke-linecap='round' stroke='#404040' x1='350.4' y1='127.48' x2='350.4' y2='105.88' stroke-width='0.699998' /></g><g partID='72340'><line stroke-linecap='round' stroke='#404040' x1='228' y1='177.88' x2='228' y2='127.48' stroke-width='0.699998' /></g><g partID='72270'><line stroke-linecap='round' stroke='#404040' x1='206.4' y1='177.88' x2='228' y2='177.88' stroke-width='0.699998' /></g><g partID='72960'><line stroke-linecap='round' stroke='#404040' x1='235.2' y1='141.88' x2='235.2' y2='206.68' stroke-width='0.699998' /></g><g partID='72890'><line stroke-linecap='round' stroke='#404040' x1='235.2' y1='206.68' x2='249.6' y2='206.68' stroke-width='0.699998' /></g><circle  fill="black" cx="249.6" cy="206.68" r="1.44" stroke-width="0" stroke="none" /><g partID='72820'><line stroke-linecap='round' stroke='#404040' x1='206.4' y1='141.88' x2='235.2' y2='141.88' stroke-width='0.699998' /></g><g partID='73030'><line stroke-linecap='round' stroke='#404040' x1='249.6' y1='206.68' x2='249.6' y2='235.48' stroke-width='0.699998' /></g><circle  fill="black" cx="249.6" cy="206.68" r="1.44" stroke-width="0" stroke="none" /><g partID='79870'><line stroke-linecap='round' stroke='#404040' x1='98.4' y1='177.88' x2='47.9999' y2='177.88' stroke-width='0.699998' /></g><g partID='79940'><line stroke-linecap='round' stroke='#404040' x1='98.4' y1='185.08' x2='47.9999' y2='185.08' stroke-width='0.699998' /></g><g partID='80130'><line stroke-linecap='round' stroke='#404040' x1='249.6' y1='206.68' x2='278.4' y2='206.68' stroke-width='0.699998' /></g><g partID='61640' id='partLabel'><g transform='translate(206.4,78.6801)' ><g font-size='5' font-style='normal' font-weight='normal' fill='#000000' font-family="'DroidSans'" id='schematicLabel' fill-opacity='1' stroke='none' ><text x='0' y='3.75'>MCU</text></g></g></g><g partID='64520' id='partLabel'><g transform='translate(282.179,195.264)' ><g font-size='5' font-style='normal' font-weight='normal' fill='#000000' font-family="'DroidSans'" id='schematicLabel' fill-opacity='1' stroke='none' ><text x='0' y='3.75'>LED1</text><text x='0' y='8.75'>Red (633nm)</text></g></g></g><g partID='64980' id='partLabel'><g transform='translate(251.475,171.946)' ><g font-size='5' font-style='normal' font-weight='normal' fill='#000000' font-family="'DroidSans'" id='schematicLabel' fill-opacity='1' stroke='none' ><text x='0' y='3.75'>S1 / Magnetic sensor</text></g></g></g><g partID='65770' id='partLabel'><g transform='translate(233.704,222.33)' ><g font-size='5' font-style='normal' font-weight='normal' fill='#000000' font-family="'DroidSans'" id='schematicLabel' fill-opacity='1' stroke='none' ><text x='0' y='3.75'>R1</text><text x='0' y='8.75'>10k&#x3a9;</text></g></g></g><g partID='66770' id='partLabel'><g transform='translate(262.504,222.33)' ><g font-size='5' font-style='normal' font-weight='normal' fill='#000000' font-family="'DroidSans'" id='schematicLabel' fill-opacity='1' stroke='none' ><text x='0' y='3.75'>R2</text><text x='0' y='8.75'>330&#x3a9;</text></g></g></g><g partID='68310' id='partLabel'><g transform='translate(418.931,78.6805)' ><g font-size='5' font-style='normal' font-weight='normal' fill='#000000' font-family="'DroidSans'" id='schematicLabel' fill-opacity='1' stroke='none' ><text x='0' y='3.75'>J2 / Lock servo</text></g></g></g><g partID='67310' id='partLabel'><g transform='translate(332.531,78.6805)' ><g font-size='5' font-style='normal' font-weight='normal' fill='#000000' font-family="'DroidSans'" id='schematicLabel' fill-opacity='1' stroke='none' ><text x='0' y='3.75'>J1 / Door servo</text></g></g></g><g partID='79840' id='partLabel'><g transform='translate(52.821,188.688)' ><g transform='matrix(1,0,0,1,0,0)'  ><g font-size='5' font-style='normal' font-weight='normal' fill='#000000' font-family="'DroidSans'" id='schematicLabel' fill-opacity='1' stroke='none' ><text x='0' y='3.75'>J3 / i2c </text></g></g></g></g></svg>