<?xml version='1.0' encoding='UTF-8' standalone='no'?>
<!-- Created with Fritzing (http://www.fritzing.org/) -->
<svg xmlns:svg='http://www.w3.org/2000/svg' xmlns='http://www.w3.org/2000/svg' version='1.2' baseProfile='tiny' x='0in' y='0in' width='6.59627in' height='3.96393in' viewBox='0 0 474.931 285.403' >
<g partID='61640'><g transform='translate(98.4,84.2801)' ><g id="schematic">
<rect class="interior rect" fill="#FFFFFF" stroke="#000000" x="14.85" height="135.9" y="14.85" stroke-width="0.9" stroke-linecap="round" width="78.3"/>
<line class="pin" fill="none" stroke="#787878" id="connector61pin" y1="28.8" y2="28.8" stroke-width="0.699999" x1="93.2499" stroke-linecap="round" x2="107.65"/>
<text font-size="3.49999" class="text" font-family="'Droid Sans'" fill="#8c8c8c" stroke="none" x="91.8499" stroke-width="0" y="29.4999" text-anchor="end">D0/RX</text>
<g class="terminal" fill="none" stroke="none" id="connector61terminal" x="107.65" height="0.699999" y="28.4499" stroke-width="0" width="0.699999"/>
<line class="pin" fill="none" stroke="#787878" id="connector62pin" y1="36" y2="36" stroke-width="0.699999" x1="93.2499" stroke-linecap="round" x2="107.65"/>
<text font-size="3.49999" class="text" font-family="'Droid Sans'" fill="#8c8c8c" stroke="none" x="91.8499" stroke-width="0" y="36.6999" text-anchor="end">D1/TX</text>
<g class="terminal" fill="none" stroke="none" id="connector62terminal" x="107.65" height="0.699999" y="35.6499" stroke-width="0" width="0.699999"/>
<line class="pin" fill="none" stroke="#787878" id="connector63pin" y1="43.2" y2="43.2" stroke-width="0.699999" x1="93.2499" stroke-linecap="round" x2="107.65"/>
<text font-size="3.49999" class="text" font-family="'Droid Sans'" fill="#8c8c8c" stroke="none" x="91.8499" stroke-width="0" y="43.8999" text-anchor="end">D2</text>
<g class="terminal" fill="none" stroke="none" id="connector63terminal" x="107.65" height="0.699999" y="42.8499" stroke-width="0" width="0.699999"/>
<line class="pin" fill="none" stroke="#787878" id="connector64pin" y1="50.4" y2="50.4" stroke-width="0.699999" x1="93.2499" stroke-linecap="round" x2="107.65"/>
<text font-size="3.49999" class="text" font-family="'Droid Sans'" fill="#8c8c8c" stroke="none" x="91.8499" stroke-width="0" y="51.0999" text-anchor="end">D3 PWM</text>
<g class="terminal" fill="none" stroke="none" id="connector64terminal" x="107.65" height="0.699999" y="50.0499" stroke-width="0" width="0.699999"/>
<line class="pin" fill="none" stroke="#787878" id="connector65pin" y1="57.6" y2="57.6" stroke-width="0.699999" x1="93.2499" stroke-linecap="round" x2="107.65"/>
<text font-size="3.49999" class="text" font-family="'Droid Sans'" fill="#8c8c8c" stroke="none" x="91.8499" stroke-width="0" y="58.2999" text-anchor="end">D4</text>
<g class="terminal" fill="none" stroke="none" id="connector65terminal" x="107.65" height="0.699999" y="57.2499" stroke-width="0" width="0.699999"/>
<line class="pin" fill="none" stroke="#787878" id="connector66pin" y1="64.8" y2="64.8" stroke-width="0.699999" x1="93.2499" stroke-linecap="round" x2="107.65"/>
<text font-size="3.49999" class="text" font-family="'Droid Sans'" fill="#8c8c8c" stroke="none" x="91.8499" stroke-width="0" y="65.4999" text-anchor="end">D5 PWM</text>
<g class="terminal" fill="none" stroke="none" id="connector66terminal" x="107.65" height="0.699999" y="64.4499" stroke-width="0" width="0.699999"/>
<line class="pin" fill="none" stroke="#787878" id="connector67pin" y1="72" y2="72" stroke-width="0.699999" x1="93.2499" stroke-linecap="round" x2="107.65"/>
<text font-size="3.49999" class="text" font-family="'Droid Sans'" fill="#8c8c8c" stroke="none" x="91.8499" stroke-width="0" y="72.6999" text-anchor="end">D6 PWM</text>
<g class="terminal" fill="none" stroke="none" id="connector67terminal" x="107.65" height="0.699999" y="71.6499" stroke-width="0" width="0.699999"/>
<line class="pin" fill="none" stroke="#787878" id="connector68pin" y1="79.2" y2="79.2" stroke-width="0.699999" x1="93.2499" stroke-linecap="round" x2="107.65"/>
<text font-size="3.49999" class="text" font-family="'Droid Sans'" fill="#8c8c8c" stroke="none" x="91.8499" stroke-width="0" y="79.8999" text-anchor="end">D7</text>
<g class="terminal" fill="none" stroke="none" id="connector68terminal" x="107.65" height="0.699999" y="78.8499" stroke-width="0" width="0.699999"/>
<line class="pin" fill="none" stroke="#787878" id="connector51pin" y1="86.4" y2="86.4" stroke-width="0.699999" x1="93.2499" stroke-linecap="round" x2="107.65"/>
<text font-size="3.49999" class="text" font-family="'Droid Sans'" fill="#8c8c8c" stroke="none" x="91.8499" stroke-width="0" y="87.0999" text-anchor="end">D8</text>
<g class="terminal" fill="none" stroke="none" id="connector51terminal" x="107.65" height="0.699999" y="86.0499" stroke-width="0" width="0.699999"/>
<line class="pin" fill="none" stroke="#787878" id="connector52pin" y1="93.6" y2="93.6" stroke-width="0.699999" x1="93.2499" stroke-linecap="round" x2="107.65"/>
<text font-size="3.49999" class="text" font-family="'Droid Sans'" fill="#8c8c8c" stroke="none" x="91.8499" stroke-width="0" y="94.2999" text-anchor="end">D9 PWM</text>
<g class="terminal" fill="none" stroke="none" id="connector52terminal" x="107.65" height="0.699999" y="93.2499" stroke-width="0" width="0.699999"/>
<line class="pin" fill="none" stroke="#787878" id="connector53pin" y1="100.8" y2="100.8" stroke-width="0.699999" x1="93.2499" stroke-linecap="round" x2="107.65"/>
<text font-size="3.49999" class="text" font-family="'Droid Sans'" fill="#8c8c8c" stroke="none" x="91.8499" stroke-width="0" y="101.5" text-anchor="end">D10 PWM/SS</text>
<g class="terminal" fill="none" stroke="none" id="connector53terminal" x="107.65" height="0.699999" y="100.45" stroke-width="0" width="0.699999"/>
<line class="pin" fill="none" stroke="#787878" id="connector54pin" y1="108" y2="108" stroke-width="0.699999" x1="93.2499" stroke-linecap="round" x2="107.65"/>
<text font-size="3.49999" class="text" font-family="'Droid Sans'" fill="#8c8c8c" stroke="none" x="91.8499" stroke-width="0" y="108.7" text-anchor="end">D11 PWM/MOSI</text>
<g class="terminal" fill="none" stroke="none" id="connector54terminal" x="107.65" height="0.699999" y="107.65" stroke-width="0" width="0.699999"/>
<line class="pin" fill="none" stroke="#787878" id="connector55pin" y1="115.2" y2="115.2" stroke-width="0.699999" x1="93.2499" stroke-linecap="round" x2="107.65"/>
<text font-size="3.49999" class="text" font-family="'Droid Sans'" fill="#8c8c8c" stroke="none" x="91.8499" stroke-width="0" y="115.9" text-anchor="end">D12/MISO</text>
<g class="terminal" fill="none" stroke="none" id="connector55terminal" x="107.65" height="0.699999" y="114.85" stroke-width="0" width="0.699999"/>
<line class="pin" fill="none" stroke="none" id="connector41pin" y1="122.4" y2="122.4" stroke-width="0" x1="93.2499" stroke-linecap="round" x2="107.65"/>
<rect class="terminal" fill="none" stroke="none" id="connector41terminal" x="107.65" height="0.699999" y="122.05" stroke-width="0" width="0.699999"/>
<line class="pin" fill="none" stroke="#787878" id="connector56pin" y1="122.4" y2="122.4" stroke-width="0.699999" x1="93.2499" stroke-linecap="round" x2="107.65"/>
<text font-size="3.49999" class="text" font-family="'Droid Sans'" fill="#8c8c8c" stroke="none" x="91.8499" stroke-width="0" y="123.1" text-anchor="end">D13/SCK</text>
<g class="terminal" fill="none" stroke="none" id="connector56terminal" x="107.65" height="0.699999" y="122.05" stroke-width="0" width="0.699999"/>
<line class="pin" fill="none" stroke="none" id="connector43pin" y1="28.8" y2="28.8" stroke-width="0" x1="0.349999" stroke-linecap="round" x2="14.75"/>
<rect class="terminal" fill="none" stroke="none" id="connector43terminal" x="-0.349999" height="0.699999" y="28.4499" stroke-width="0" width="0.699999"/>
<line class="pin" fill="none" stroke="#787878" id="connector85pin" y1="28.8" y2="28.8" stroke-width="0.699999" x1="0.349999" stroke-linecap="round" x2="14.75"/>
<text font-size="3.49999" class="text" font-family="'Droid Sans'" fill="#8c8c8c" stroke="none" x="16.15" stroke-width="0" y="29.4999" text-anchor="start">RESET</text>
<g class="terminal" fill="none" stroke="none" id="connector85terminal" x="-0.349999" height="0.699999" y="28.4499" stroke-width="0" width="0.699999"/>
<line class="pin" fill="none" stroke="#787878" id="connector49pin" y1="36" y2="36" stroke-width="0.699999" x1="0.349999" stroke-linecap="round" x2="14.75"/>
<text font-size="3.49999" class="text" font-family="'Droid Sans'" fill="#8c8c8c" stroke="none" x="16.15" stroke-width="0" y="36.6999" text-anchor="start">RESET2</text>
<rect class="terminal" fill="none" stroke="none" id="connector49terminal" x="-0.349999" height="0.699999" y="35.6499" stroke-width="0" width="0.699999"/>
<line class="pin" fill="none" stroke="#787878" id="connector58pin" y1="43.2" y2="43.2" stroke-width="0.699999" x1="0.349999" stroke-linecap="round" x2="14.75"/>
<text font-size="3.49999" class="text" font-family="'Droid Sans'" fill="#8c8c8c" stroke="none" x="16.15" stroke-width="0" y="43.8999" text-anchor="start">AREF</text>
<g class="terminal" fill="none" stroke="none" id="connector58terminal" x="-0.349999" height="0.699999" y="42.8499" stroke-width="0" width="0.699999"/>
<line class="pin" fill="none" stroke="#787878" id="connector84pin" y1="50.4" y2="50.4" stroke-width="0.699999" x1="0.349999" stroke-linecap="round" x2="14.75"/>
<text font-size="3.49999" class="text" font-family="'Droid Sans'" fill="#8c8c8c" stroke="none" x="16.15" stroke-width="0" y="51.0999" text-anchor="start">ioref</text>
<g class="terminal" fill="none" stroke="none" id="connector84terminal" x="-0.349999" height="0.699999" y="50.0499" stroke-width="0" width="0.699999"/>
<line class="pin" fill="none" stroke="#787878" id="connector0pin" y1="64.8" y2="64.8" stroke-width="0.699999" x1="0.349999" stroke-linecap="round" x2="14.75"/>
<text font-size="3.49999" class="text" font-family="'Droid Sans'" fill="#8c8c8c" stroke="none" x="16.15" stroke-width="0" y="65.4999" text-anchor="start">A0</text>
<g class="terminal" fill="none" stroke="none" id="connector0terminal" x="-0.349999" height="0.699999" y="64.4499" stroke-width="0" width="0.699999"/>
<line class="pin" fill="none" stroke="#787878" id="connector1pin" y1="72" y2="72" stroke-width="0.699999" x1="0.349999" stroke-linecap="round" x2="14.75"/>
<text font-size="3.49999" class="text" font-family="'Droid Sans'" fill="#8c8c8c" stroke="none" x="16.15" stroke-width="0" y="72.6999" text-anchor="start">A1</text>
<g class="terminal" fill="none" stroke="none" id="connector1terminal" x="-0.349999" height="0.699999" y="71.6499" stroke-width="0" width="0.699999"/>
<line class="pin" fill="none" stroke="#787878" id="connector2pin" y1="79.2" y2="79.2" stroke-width="0.699999" x1="0.349999" stroke-linecap="round" x2="14.75"/>
<text font-size="3.49999" class="text" font-family="'Droid Sans'" fill="#8c8c8c" stroke="none" x="16.15" stroke-width="0" y="79.8999" text-anchor="start">A2</text>
<g class="terminal" fill="none" stroke="none" id="connector2terminal" x="-0.349999" height="0.699999" y="78.8499" stroke-width="0" width="0.699999"/>
<line class="pin" fill="none" stroke="#787878" id="connector3pin" y1="86.4" y2="86.4" stroke-width="0.699999" x1="0.349999" stroke-linecap="round" x2="14.75"/>
<text font-size="3.49999" class="text" font-family="'Droid Sans'" fill="#8c8c8c" stroke="none" x="16.15" stroke-width="0" y="87.0999" text-anchor="start">A3</text>
<g class="terminal" fill="none" stroke="none" id="connector3terminal" x="-0.349999" height="0.699999" y="86.0499" stroke-width="0" width="0.699999"/>
<line class="pin" fill="none" stroke="none" id="connector48pin" y1="93.6" y2="93.6" stroke-width="0" x1="0.349999" stroke-linecap="round" x2="14.75"/>
<rect class="terminal" fill="none" stroke="none" id="connector48terminal" x="-0.349999" height="0.699999" y="93.2499" stroke-width="0" width="0.699999"/>
<line class="pin" fill="none" stroke="none" id="connector45pin" y1="93.6" y2="93.6" stroke-width="0" x1="0.349999" stroke-linecap="round" x2="14.75"/>
<rect class="terminal" fill="none" stroke="none" id="connector45terminal" x="-0.349999" height="0.699999" y="93.2499" stroke-width="0" width="0.699999"/>
<line class="pin" fill="none" stroke="none" id="connector4pin" y1="93.6" y2="93.6" stroke-width="0" x1="0.349999" stroke-linecap="round" x2="14.75"/>
<g class="terminal" fill="none" stroke="none" id="connector4terminal" x="-0.349999" height="0.699999" y="93.2499" stroke-width="0" width="0.699999"/>
<line class="pin" fill="none" stroke="none" id="connector39pin" y1="93.6" y2="93.6" stroke-width="0" x1="0.349999" stroke-linecap="round" x2="14.75"/>
<rect class="terminal" fill="none" stroke="none" id="connector39terminal" x="-0.349999" height="0.699999" y="93.2499" stroke-width="0" width="0.699999"/>
<line class="pin" fill="none" stroke="none" id="connector47pin" y1="93.6" y2="93.6" stroke-width="0" x1="0.349999" stroke-linecap="round" x2="14.75"/>
<rect class="terminal" fill="none" stroke="none" id="connector47terminal" x="-0.349999" height="0.699999" y="93.2499" stroke-width="0" width="0.699999"/>
<line class="pin" fill="none" stroke="none" id="connector42pin" y1="93.6" y2="93.6" stroke-width="0" x1="0.349999" stroke-linecap="round" x2="14.75"/>
<rect class="terminal" fill="none" stroke="none" id="connector42terminal" x="-0.349999" height="0.699999" y="93.2499" stroke-width="0" width="0.699999"/>
<line class="pin" fill="none" stroke="#787878" id="connector59pin" y1="93.6" y2="93.6" stroke-width="0.699999" x1="0.349999" stroke-linecap="round" x2="14.75"/>
<text font-size="3.49999" class="text" font-family="'Droid Sans'" fill="#8c8c8c" stroke="none" x="16.15" stroke-width="0" y="94.2999" text-anchor="start">A4/SDA</text>
<g class="terminal" fill="none" stroke="none" id="connector59terminal" x="-0.349999" height="0.699999" y="93.2499" stroke-width="0" width="0.699999"/>
<line class="pin" fill="none" stroke="none" id="connector5pin" y1="100.8" y2="100.8" stroke-width="0" x1="0.349999" stroke-linecap="round" x2="14.75"/>
<g class="terminal" fill="none" stroke="none" id="connector5terminal" x="-0.349999" height="0.699999" y="100.45" stroke-width="0" width="0.699999"/>
<line class="pin" fill="none" stroke="#787878" id="connector60pin" y1="100.8" y2="100.8" stroke-width="0.699999" x1="0.349999" stroke-linecap="round" x2="14.75"/>
<text font-size="3.49999" class="text" font-family="'Droid Sans'" fill="#8c8c8c" stroke="none" x="16.15" stroke-width="0" y="101.5" text-anchor="start">A5/SCL</text>
<g class="terminal" fill="none" stroke="none" id="connector60terminal" x="-0.349999" height="0.699999" y="100.45" stroke-width="0" width="0.699999"/>
<line class="pin" fill="none" stroke="#787878" id="connector91pin" y1="136.8" y2="136.8" stroke-width="0.699999" x1="0.349999" stroke-linecap="round" x2="14.75"/>
<text font-size="3.49999" class="text" font-family="'Droid Sans'" fill="#8c8c8c" stroke="none" x="16.15" stroke-width="0" y="137.5" text-anchor="start">N/C</text>
<g class="terminal" fill="none" stroke="none" id="connector91terminal" x="-0.349999" height="0.699999" y="136.45" stroke-width="0" width="0.699999"/>
<line class="pin" fill="none" stroke="none" id="connector88pin" y1="150.85" y2="165.25" stroke-width="0" x1="57.6" stroke-linecap="round" x2="57.6"/>
<g class="terminal" fill="none" stroke="none" id="connector88terminal" x="57.2499" height="0.699999" y="165.25" stroke-width="0" width="0.699999"/>
<line class="pin" fill="none" stroke="none" id="connector57pin" y1="150.85" y2="165.25" stroke-width="0" x1="57.6" stroke-linecap="round" x2="57.6"/>
<g class="terminal" fill="none" stroke="none" id="connector57terminal" x="57.2499" height="0.699999" y="165.25" stroke-width="0" width="0.699999"/>
<line class="pin" fill="none" stroke="none" id="connector44pin" y1="150.85" y2="165.25" stroke-width="0" x1="57.6" stroke-linecap="round" x2="57.6"/>
<rect class="terminal" fill="none" stroke="none" id="connector44terminal" x="57.2499" height="0.699999" y="165.25" stroke-width="0" width="0.699999"/>
<line class="pin" fill="none" stroke="none" id="connector50pin" y1="150.85" y2="165.25" stroke-width="0" x1="57.6" stroke-linecap="round" x2="57.6"/>
<rect class="terminal" fill="none" stroke="none" id="connector50terminal" x="57.2499" height="0.699999" y="165.25" stroke-width="0" width="0.699999"/>
<line class="pin" fill="none" stroke="#787878" id="connector89pin" y1="150.85" y2="165.25" stroke-width="0.699999" x1="57.6" stroke-linecap="round" x2="57.6"/>
<g transform="matrix(1, 0, 0, 1, 58.2999, 149.45)">
<g>
<g transform="rotate(270)">
<g>
<text font-size="3.49999" class="text" font-family="'Droid Sans'" fill="#8c8c8c" stroke="none" x="0" stroke-width="0" y="0" text-anchor="start">GND</text>
</g>
</g>
</g>
</g>
<g class="terminal" fill="none" stroke="none" id="connector89terminal" x="57.2499" height="0.699999" y="165.25" stroke-width="0" width="0.699999"/>
<line class="pin" fill="none" stroke="#787878" id="connector86pin" y1="0.349999" y2="14.75" stroke-width="0.699999" x1="36" stroke-linecap="round" x2="36"/>
<g transform="matrix(1, 0, 0, 1, 36.6999, 16.15)">
<g>
<g transform="rotate(270)">
<g>
<text font-size="3.49999" class="text" font-family="'Droid Sans'" fill="#8c8c8c" stroke="none" x="0" stroke-width="0" y="0" text-anchor="end">3V3</text>
</g>
</g>
</g>
</g>
<g class="terminal" fill="none" stroke="none" id="connector86terminal" x="35.6499" height="0.699999" y="-0.349999" stroke-width="0" width="0.699999"/>
<line class="pin" fill="none" stroke="none" id="connector40pin" y1="0.349999" y2="14.75" stroke-width="0" x1="50.4" stroke-linecap="round" x2="50.4"/>
<rect class="terminal" fill="none" stroke="none" id="connector40terminal" x="50.0499" height="0.699999" y="-0.349999" stroke-width="0" width="0.699999"/>
<line class="pin" fill="none" stroke="none" id="connector46pin" y1="0.349999" y2="14.75" stroke-width="0" x1="50.4" stroke-linecap="round" x2="50.4"/>
<rect class="terminal" fill="none" stroke="none" id="connector46terminal" x="50.0499" height="0.699999" y="-0.349999" stroke-width="0" width="0.699999"/>
<line class="pin" fill="none" stroke="#787878" id="connector87pin" y1="0.349999" y2="14.75" stroke-width="0.699999" x1="50.4" stroke-linecap="round" x2="50.4"/>
<g transform="matrix(1, 0, 0, 1, 51.0999, 16.15)">
<g>
<g transform="rotate(270)">
<g>
<text font-size="3.49999" class="text" font-family="'Droid Sans'" fill="#8c8c8c" stroke="none" x="0" stroke-width="0" y="0" text-anchor="end">5V</text>
</g>
</g>
</g>
</g>
<g class="terminal" fill="none" stroke="none" id="connector87terminal" x="50.0499" height="0.699999" y="-0.349999" stroke-width="0" width="0.699999"/>
<line class="pin" fill="none" stroke="#787878" id="connector90pin" y1="0.349999" y2="14.75" stroke-width="0.699999" x1="64.8" stroke-linecap="round" x2="64.8"/>
<g transform="matrix(1, 0, 0, 1, 65.4999, 16.15)">
<g>
<g transform="rotate(270)">
<g>
<text font-size="3.49999" class="text" font-family="'Droid Sans'" fill="#8c8c8c" stroke="none" x="0" stroke-width="0" y="0" text-anchor="end">VIN</text>
</g>
</g>
</g>
</g>
<g class="terminal" fill="none" stroke="none" id="connector90terminal" x="64.4499" height="0.699999" y="-0.349999" stroke-width="0" width="0.699999"/>
<text font-size="4.25001" class="text" font-family="'Droid Sans'" fill="#000000" id="label" stroke="none" x="54.4501" stroke-width="0" y="76.4498" text-anchor="middle">Arduino</text>
<text font-size="4.25001" class="text" font-family="'Droid Sans'" fill="#000000" id="label" stroke="none" x="54.4501" stroke-width="0" y="80.9833" text-anchor="middle">Uno</text>
<text font-size="4.25001" class="text" font-family="'Droid Sans'" fill="#000000" id="label" stroke="none" x="54.4501" stroke-width="0" y="85.5167" text-anchor="middle">(Rev3)</text>
</g>
</g></g><g partID='64520'><g transform='translate(268.499,206.464)' ><g id="schematic">
<g>
<path d="M13.5,14.966L9.9,14.966c-0.193,0,-0.35,-0.156,-0.35,-0.35s0.156,-0.35,0.35,-0.35L13.5,14.266c0.193,0,0.35,0.156,0.35,0.35S13.694,14.966,13.5,14.966z"/>
</g>
<g>
<path d="M9.9,14.966L6.3,14.966c-0.193,0,-0.35,-0.156,-0.35,-0.35s0.157,-0.35,0.35,-0.35l3.6,0c0.193,0,0.35,0.156,0.35,0.35S10.093,14.966,9.9,14.966z"/>
</g>
<g>
<polygon fill="#FFFFFF" points="9.9,14.616,6.3,7.416,9.9,7.416,13.5,7.416"/>
<path d="M9.9,15.398L5.734,7.066l8.333,0L9.9,15.398zM6.866,7.766L9.9,13.834l3.034,-6.068L6.866,7.766z"/>
</g>
<g>
<path d="M9.9,14.841c-0.124,0,-0.225,-0.101,-0.225,-0.225l0,-7.2c0,-0.124,0.101,-0.225,0.225,-0.225s0.225,0.101,0.225,0.225l0,7.2C10.124,14.74,10.024,14.841,9.9,14.841z"/>
</g>
<g>
<path d="M1.8,12.141c-0.058,0,-0.115,-0.021,-0.159,-0.065c-0.088,-0.088,-0.088,-0.23,0,-0.318l2.34,-2.341c0.088,-0.088,0.23,-0.088,0.318,0s0.088,0.23,0,0.318l-2.34,2.341C1.915,12.12,1.858,12.141,1.8,12.141z"/>
</g>
<g>
<path d="M2.16,15.381c-0.058,0,-0.115,-0.021,-0.159,-0.065c-0.088,-0.088,-0.088,-0.23,0,-0.318l2.34,-2.34c0.088,-0.088,0.23,-0.088,0.318,0s0.088,0.23,0,0.318l-2.34,2.34C2.276,15.359,2.218,15.381,2.16,15.381z"/>
</g>
<g id="connector0pin">
<path fill="#787878" d="M9.9,22.166c-0.193,0,-0.35,-0.156,-0.35,-0.35l0,-7.2c0,-0.193,0.156,-0.35,0.35,-0.35s0.35,0.156,0.35,0.35l0,7.2C10.249,22.01,10.093,22.166,9.9,22.166z"/>
</g>
<g id="connector0terminal">
<rect fill="none" x="9.9" height="0.001" y="21.816" width="0.001"/>
</g>
<g transform="matrix(1, 0, 0, 1, 3.429, 6.4262)">
<g>
<g transform="rotate(270)">
<g>
<g enable-background="new    ">
<path fill="#787878" d="M-11.647,5.54l-0.891,0L-12.538,5.388l0.342,-0.372c0.049,-0.053,0.093,-0.101,0.131,-0.145s0.071,-0.086,0.099,-0.128c0.026,-0.042,0.047,-0.084,0.062,-0.125c0.015,-0.043,0.021,-0.088,0.021,-0.138c0,-0.038,-0.005,-0.072,-0.017,-0.102s-0.027,-0.054,-0.047,-0.075c-0.021,-0.02,-0.045,-0.035,-0.073,-0.046s-0.06,-0.016,-0.094,-0.016c-0.062,0,-0.118,0.013,-0.167,0.038c-0.051,0.024,-0.098,0.057,-0.143,0.096l-0.1,-0.116c0.025,-0.023,0.055,-0.046,0.084,-0.065c0.029,-0.021,0.063,-0.039,0.097,-0.054s0.071,-0.026,0.109,-0.036c0.038,-0.008,0.079,-0.013,0.121,-0.013c0.063,0,0.119,0.009,0.169,0.026c0.051,0.018,0.094,0.043,0.129,0.076c0.035,0.032,0.063,0.072,0.082,0.119c0.019,0.048,0.028,0.101,0.028,0.16c0,0.056,-0.009,0.108,-0.026,0.158c-0.017,0.05,-0.041,0.1,-0.07,0.148c-0.031,0.048,-0.066,0.097,-0.109,0.146c-0.041,0.049,-0.087,0.1,-0.136,0.152L-12.32,5.37l0,0.008l0.673,0L-11.647,5.54z"/>
</g>
</g>
</g>
</g>
</g>
<g id="connector1pin">
<path fill="#787878" d="M9.9,7.766c-0.193,0,-0.35,-0.157,-0.35,-0.35l0,-7.2c0,-0.193,0.156,-0.35,0.35,-0.35s0.35,0.157,0.35,0.35l0,7.2C10.249,7.609,10.093,7.766,9.9,7.766z"/>
</g>
<g id="connector1terminal">
<polygon fill="none" points="9.9,0.216,9.901,0.216,9.901,0.216"/>
</g>
<g transform="matrix(1, 0, 0, 1, 3.429, 1.3462)">
<g>
<g transform="rotate(270)">
<g>
<g enable-background="new    ">
<path fill="#787878" d="M-2.616,5.54l-0.172,0L-2.788,4.648c0,-0.028,0,-0.058,0,-0.09s0.001,-0.063,0.002,-0.095c0.001,-0.032,0.002,-0.063,0.003,-0.092c0.001,-0.028,0.002,-0.054,0.002,-0.076c-0.011,0.012,-0.021,0.021,-0.029,0.03s-0.017,0.017,-0.026,0.024s-0.018,0.016,-0.028,0.025c-0.01,0.008,-0.021,0.019,-0.035,0.03l-0.145,0.118l-0.094,-0.12l0.374,-0.292l0.146,0L-2.618,5.54z"/>
</g>
</g>
</g>
</g>
</g>
<g>
<path d="M0.18,13.536l1.08,-2.521l1.44,1.438L0.18,13.536z"/>
</g>
<g>
<path d="M0.54,16.776l1.08,-2.521l1.438,1.438L0.54,16.776z"/>
</g>
</g>
</g></g><g partID='64550'><g transform='translate(40.8185,41.5072)' ><g id="schematic">
<line fill="none" stroke-miterlimit="10" id="connector0pin" stroke="#787878" y1="6.78" y2="13.98" stroke-width="0.75" stroke-linecap="round" x1="7.2" x2="7.2"/>
<g fill="none" id="connector0terminal" points="6.817,13.567,7.546,13.546,7.546,14.4,6.859,14.359"/>
<path fill="none" stroke="#000000" d="M0.45,6.564l13.5,0" stroke-width="0.9" stroke-linecap="round"/>
<g transform="matrix(1, 0, 0, 1, 1.4985, 4.9878)">
<text font-size="4.4991" font-family="'DroidSans'" id="label">5V</text>
</g>
</g>
</g></g><g partID='64600'><g transform='translate(148.799,271.003)' ><g xmlns="http://www.w3.org/2000/svg" id="schematic">
<path fill="none" xmlns="http://www.w3.org/2000/svg" id="connector0pin" stroke="#787878" d="M7.201,7.575l0,-7.2" stroke-width="0.75" stroke-linecap="round"/>
<g fill="none" xmlns="http://www.w3.org/2000/svg" id="connector0terminal" x="6.728" height="0.953" y="0" width="0.945"/>
<path fill="none" xmlns="http://www.w3.org/2000/svg" id="path4098" stroke="#000000" d="M0.5,7.711L13.9,7.711" stroke-width="0.9" stroke-linecap="round"/>
<path fill="none" xmlns="http://www.w3.org/2000/svg" id="path4100" stroke="#000000" d="M2.732,10.456l8.935,0" stroke-width="0.9" stroke-linecap="round"/>
<path fill="none" xmlns="http://www.w3.org/2000/svg" id="path4102" stroke="#000000" d="M9.431,13.175L4.967,13.175" stroke-width="0.9" stroke-linecap="round"/>
</g>
</g></g><g partID='64980'><g transform='translate(244.859,177.546)' ><g xmlns="http://www.w3.org/2000/svg" id="schematic">
<line fill="none" xmlns="http://www.w3.org/2000/svg" stroke="#000000" y1="9.333" y2="7.534" stroke-width="0.7" stroke-linecap="round" x1="4.741" x2="4.741"/>
<line fill="none" xmlns="http://www.w3.org/2000/svg" stroke="#000000" y1="21.934" y2="9.333" stroke-width="0.7" stroke-linecap="round" x1="4.741" x2="1.142"/>
<circle fill="none" r="0.36" xmlns="http://www.w3.org/2000/svg" stroke="#000000" cx="4.741" stroke-width="0.7" cy="21.934"/>
<circle fill="none" r="0.36" xmlns="http://www.w3.org/2000/svg" stroke="#000000" cx="4.741" stroke-width="0.7" cy="7.534"/>
<line fill="none" xmlns="http://www.w3.org/2000/svg" id="connector0pin" stroke="#555555" y1="29.135" y2="21.934" stroke-width="0.7" stroke-linecap="round" x1="4.741" x2="4.741"/>
<g fill="none" xmlns="http://www.w3.org/2000/svg" id="connector0terminal" x="4.74" height="0.001" y="29.134" width="0.002"/>
<line fill="none" xmlns="http://www.w3.org/2000/svg" id="connector1pin" stroke="#555555" y1="0.333" y2="7.534" stroke-width="0.7" stroke-linecap="round" x1="4.741" x2="4.741"/>
<g fill="none" xmlns="http://www.w3.org/2000/svg" id="connector1terminal" x="4.741" height="0.001" y="0.333" width="0"/>
</g>
</g></g><g partID='66770'><g transform='translate(275.304,264.63)' ><g transform='matrix(0,-1,1,0,0,0)'  ><g xmlns="http://www.w3.org/2000/svg" id="schematic">
<line class="other" xmlns="http://www.w3.org/2000/svg" stroke="#000000" y1="3.096" y2="0.216" stroke-width="0.432002" x1="7.55002" stroke-linecap="round" x2="8.63003"/>
<line class="other" xmlns="http://www.w3.org/2000/svg" stroke="#000000" y1="0.216" y2="5.976" stroke-width="0.432002" x1="8.63003" stroke-linecap="round" x2="10.43"/>
<line class="other" xmlns="http://www.w3.org/2000/svg" stroke="#000000" y1="5.976" y2="0.216" stroke-width="0.432002" x1="10.43" stroke-linecap="round" x2="12.23"/>
<line class="other" xmlns="http://www.w3.org/2000/svg" stroke="#000000" y1="0.216" y2="5.976" stroke-width="0.432002" x1="12.23" stroke-linecap="round" x2="14.03"/>
<line class="other" xmlns="http://www.w3.org/2000/svg" stroke="#000000" y1="5.976" y2="0.216" stroke-width="0.432002" x1="14.03" stroke-linecap="round" x2="15.8301"/>
<line class="other" xmlns="http://www.w3.org/2000/svg" stroke="#000000" y1="0.216" y2="5.976" stroke-width="0.432002" x1="15.8301" stroke-linecap="round" x2="17.6301"/>
<line class="other" xmlns="http://www.w3.org/2000/svg" stroke="#000000" y1="5.976" y2="0.216" stroke-width="0.432002" x1="17.6301" stroke-linecap="round" x2="19.4301"/>
<line class="other" xmlns="http://www.w3.org/2000/svg" stroke="#000000" y1="0.216" y2="5.976" stroke-width="0.432002" x1="19.4301" stroke-linecap="round" x2="21.2301"/>
<line class="other" xmlns="http://www.w3.org/2000/svg" stroke="#000000" y1="5.976" y2="3.096" stroke-width="0.432002" x1="21.2301" stroke-linecap="round" x2="21.9501"/>
<line connectorname="2" class="pin" xmlns="http://www.w3.org/2000/svg" id="connector1pin" stroke="#787878" y1="3.096" y2="3.096" stroke-width="0.700001" x1="29.1502" stroke-linecap="round" x2="21.9501"/>
<g class="terminal" fill="none" xmlns="http://www.w3.org/2000/svg" id="connector1terminal" stroke="none" x="29.1502" height="0.000283465" y="3.096" stroke-width="0" width="0.000283466"/>
<text font-size="2.50001" class="text" font-family="'Droid Sans'" fill="#8c8c8c" xmlns="http://www.w3.org/2000/svg" stroke="none" x="25.5501" stroke-width="0" y="2.046" text-anchor="middle">2</text>
<line connectorname="1" class="pin" xmlns="http://www.w3.org/2000/svg" id="connector0pin" stroke="#787878" y1="3.096" y2="3.096" stroke-width="0.700001" x1="0.350001" stroke-linecap="round" x2="7.55002"/>
<g class="terminal" fill="none" xmlns="http://www.w3.org/2000/svg" id="connector0terminal" stroke="none" x="0.350001" height="0.000283465" y="3.096" stroke-width="0" width="0.000283466"/>
<text font-size="2.50001" class="text" font-family="'Droid Sans'" fill="#8c8c8c" xmlns="http://www.w3.org/2000/svg" stroke="none" x="3.95001" stroke-width="0" y="2.046" text-anchor="middle">1</text>
</g>
</g></g></g><g partID='65770'><g transform='translate(246.504,264.63)' ><g transform='matrix(0,-1,1,0,0,0)'  ><g xmlns="http://www.w3.org/2000/svg" id="schematic">
<line class="other" xmlns="http://www.w3.org/2000/svg" stroke="#000000" y1="3.096" y2="0.216" stroke-width="0.432002" x1="7.55002" stroke-linecap="round" x2="8.63003"/>
<line class="other" xmlns="http://www.w3.org/2000/svg" stroke="#000000" y1="0.216" y2="5.976" stroke-width="0.432002" x1="8.63003" stroke-linecap="round" x2="10.43"/>
<line class="other" xmlns="http://www.w3.org/2000/svg" stroke="#000000" y1="5.976" y2="0.216" stroke-width="0.432002" x1="10.43" stroke-linecap="round" x2="12.23"/>
<line class="other" xmlns="http://www.w3.org/2000/svg" stroke="#000000" y1="0.216" y2="5.976" stroke-width="0.432002" x1="12.23" stroke-linecap="round" x2="14.03"/>
<line class="other" xmlns="http://www.w3.org/2000/svg" stroke="#000000" y1="5.976" y2="0.216" stroke-width="0.432002" x1="14.03" stroke-linecap="round" x2="15.8301"/>
<line class="other" xmlns="http://www.w3.org/2000/svg" stroke="#000000" y1="0.216" y2="5.976" stroke-width="0.432002" x1="15.8301" stroke-linecap="round" x2="17.6301"/>
<line class="other" xmlns="http://www.w3.org/2000/svg" stroke="#000000" y1="5.976" y2="0.216" stroke-width="0.432002" x1="17.6301" stroke-linecap="round" x2="19.4301"/>
<line class="other" xmlns="http://www.w3.org/2000/svg" stroke="#000000" y1="0.216" y2="5.976" stroke-width="0.432002" x1="19.4301" stroke-linecap="round" x2="21.2301"/>
<line class="other" xmlns="http://www.w3.org/2000/svg" stroke="#000000" y1="5.976" y2="3.096" stroke-width="0.432002" x1="21.2301" stroke-linecap="round" x2="21.9501"/>
<line connectorname="2" class="pin" xmlns="http://www.w3.org/2000/svg" id="connector1pin" stroke="#787878" y1="3.096" y2="3.096" stroke-width="0.700001" x1="29.1502" stroke-linecap="round" x2="21.9501"/>
<g class="terminal" fill="none" xmlns="http://www.w3.org/2000/svg" id="connector1terminal" stroke="none" x="29.1502" height="0.000283465" y="3.096" stroke-width="0" width="0.000283466"/>
<text font-size="2.50001" class="text" font-family="'Droid Sans'" fill="#8c8c8c" xmlns="http://www.w3.org/2000/svg" stroke="none" x="25.5501" stroke-width="0" y="2.046" text-anchor="middle">2</text>
<line connectorname="1" class="pin" xmlns="http://www.w3.org/2000/svg" id="connector0pin" stroke="#787878" y1="3.096" y2="3.096" stroke-width="0.700001" x1="0.350001" stroke-linecap="round" x2="7.55002"/>
<g class="terminal" fill="none" xmlns="http://www.w3.org/2000/svg" id="connector0terminal" stroke="none" x="0.350001" height="0.000283465" y="3.096" stroke-width="0" width="0.000283466"/>
<text font-size="2.50001" class="text" font-family="'Droid Sans'" fill="#8c8c8c" xmlns="http://www.w3.org/2000/svg" stroke="none" x="3.95001" stroke-width="0" y="2.046" text-anchor="middle">1</text>
</g>
</g></g></g><g partID='68310'><g transform='translate(371.831,84.2805)' ><g xmlns="http://www.w3.org/2000/svg" id="schematic">
<rect fill="none" xmlns="http://www.w3.org/2000/svg" id="connector0pin" height="0.677" y="28.461" width="4.063"/>
<rect fill="none" xmlns="http://www.w3.org/2000/svg" id="connector1pin" height="0.677" y="14.062" width="4.063"/>
<rect fill="none" xmlns="http://www.w3.org/2000/svg" id="connector2pin" height="0.677" y="21.262" width="4.063"/>
<g fill="none" xmlns="http://www.w3.org/2000/svg" id="connector0terminal" height="0.677" y="28.461" width="0.338"/>
<g fill="none" xmlns="http://www.w3.org/2000/svg" id="connector1terminal" height="0.677" y="14.062" width="0.338"/>
<g fill="none" xmlns="http://www.w3.org/2000/svg" id="connector2terminal" height="0.677" y="21.262" width="0.338"/>
<g xmlns="http://www.w3.org/2000/svg" id="Diagram">
<rect fill="none" xmlns="http://www.w3.org/2000/svg" stroke="#000000" stroke-linejoin="round" x="7.2" height="28.8" y="7.2" stroke-width="0.9" stroke-linecap="round" width="28.8"/>
<line fill="none" xmlns="http://www.w3.org/2000/svg" stroke="#787878" stroke-linejoin="round" y1="28.8" y2="28.8" stroke-width="0.7" stroke-linecap="round" x1="7.2" x2="0"/>
<line fill="none" xmlns="http://www.w3.org/2000/svg" stroke="#787878" stroke-linejoin="round" y1="14.4" y2="14.4" stroke-width="0.7" stroke-linecap="round" x1="0" x2="7.2"/>
<line fill="none" xmlns="http://www.w3.org/2000/svg" stroke="#787878" stroke-linejoin="round" y1="21.6" y2="21.6" stroke-width="0.7" stroke-linecap="round" x1="0" x2="7.2"/>
<g xmlns="http://www.w3.org/2000/svg">
<path fill="#FFFFFF" xmlns="http://www.w3.org/2000/svg" stroke="#000000" stroke-linejoin="round" d="M46.091,15.05c-0.469,-1.065,-1.604,-1.63,-2.701,-1.424l0,0l-12.355,1.986l0.002,0.004c-0.513,0.071,-1.023,0.209,-1.521,0.427c-2.91,1.278,-4.233,4.675,-2.955,7.585c1.277,2.911,4.674,4.233,7.584,2.956c0.498,-0.219,0.944,-0.503,1.344,-0.832l0.002,0.004l9.823,-7.753l-0.001,-0.001C46.206,17.333,46.559,16.116,46.091,15.05z" stroke-width="0.9" stroke-linecap="round"/>
<circle fill="none" r="3.301" xmlns="http://www.w3.org/2000/svg" stroke="#000000" stroke-linejoin="round" cx="31.83" stroke-width="0.9" cy="21.313" stroke-linecap="round"/>
<circle fill="#FFFFFF" r="1.051" xmlns="http://www.w3.org/2000/svg" stroke="#000000" stroke-linejoin="round" cx="43.843" stroke-width="0.9" cy="16.037" stroke-linecap="round"/>
</g>
</g>
</g>
</g></g><g partID='67310'><g transform='translate(285.431,84.2805)' ><g xmlns="http://www.w3.org/2000/svg" id="schematic">
<rect fill="none" xmlns="http://www.w3.org/2000/svg" id="connector0pin" height="0.677" y="28.461" width="4.063"/>
<rect fill="none" xmlns="http://www.w3.org/2000/svg" id="connector1pin" height="0.677" y="14.062" width="4.063"/>
<rect fill="none" xmlns="http://www.w3.org/2000/svg" id="connector2pin" height="0.677" y="21.262" width="4.063"/>
<g fill="none" xmlns="http://www.w3.org/2000/svg" id="connector0terminal" height="0.677" y="28.461" width="0.338"/>
<g fill="none" xmlns="http://www.w3.org/2000/svg" id="connector1terminal" height="0.677" y="14.062" width="0.338"/>
<g fill="none" xmlns="http://www.w3.org/2000/svg" id="connector2terminal" height="0.677" y="21.262" width="0.338"/>
<g xmlns="http://www.w3.org/2000/svg" id="Diagram">
<rect fill="none" xmlns="http://www.w3.org/2000/svg" stroke="#000000" stroke-linejoin="round" x="7.2" height="28.8" y="7.2" stroke-width="0.9" stroke-linecap="round" width="28.8"/>
<line fill="none" xmlns="http://www.w3.org/2000/svg" stroke="#787878" stroke-linejoin="round" y1="28.8" y2="28.8" stroke-width="0.7" stroke-linecap="round" x1="7.2" x2="0"/>
<line fill="none" xmlns="http://www.w3.org/2000/svg" stroke="#787878" stroke-linejoin="round" y1="14.4" y2="14.4" stroke-width="0.7" stroke-linecap="round" x1="0" x2="7.2"/>
<line fill="none" xmlns="http://www.w3.org/2000/svg" stroke="#787878" stroke-linejoin="round" y1="21.6" y2="21.6" stroke-width="0.7" stroke-linecap="round" x1="0" x2="7.2"/>
<g xmlns="http://www.w3.org/2000/svg">
<path fill="#FFFFFF" xmlns="http://www.w3.org/2000/svg" stroke="#000000" stroke-linejoin="round" d="M46.091,15.05c-0.469,-1.065,-1.604,-1.63,-2.701,-1.424l0,0l-12.355,1.986l0.002,0.004c-0.513,0.071,-1.023,0.209,-1.521,0.427c-2.91,1.278,-4.233,4.675,-2.955,7.585c1.277,2.911,4.674,4.233,7.584,2.956c0.498,-0.219,0.944,-0.503,1.344,-0.832l0.002,0.004l9.823,-7.753l-0.001,-0.001C46.206,17.333,46.559,16.116,46.091,15.05z" stroke-width="0.9" stroke-linecap="round"/>
<circle fill="none" r="3.301" xmlns="http://www.w3.org/2000/svg" stroke="#000000" stroke-linejoin="round" cx="31.83" stroke-width="0.9" cy="21.313" stroke-linecap="round"/>
<circle fill="#FFFFFF" r="1.051" xmlns="http://www.w3.org/2000/svg" stroke="#000000" stroke-linejoin="round" cx="43.843" stroke-width="0.9" cy="16.037" stroke-linecap="round"/>
</g>
</g>
</g>
</g></g><g partID='79840'><g transform='translate(48.021,188.688)' ><g transform='matrix(-1,0,0,-1,0,0)'  ><g xmlns="http://www.w3.org/2000/svg" id="schematic">
<line fill="none" xmlns="http://www.w3.org/2000/svg" id="connector0pin" stroke="#000000" stroke-linejoin="round" y1="3.6" y2="3.6" stroke-width="0.7" stroke-linecap="round" x1="0.35" x2="7.346"/>
<g fill="none" xmlns="http://www.w3.org/2000/svg" id="connector0terminal" x="-0.252" height="0.208" y="3.504" width="0.546"/>
<polyline fill="none" xmlns="http://www.w3.org/2000/svg" stroke="#000000" stroke-linejoin="round" points="14.1,5.557,9.928,3.6,14.1,1.643" stroke-width="0.7" stroke-linecap="round"/>
<line fill="none" xmlns="http://www.w3.org/2000/svg" id="line" stroke="#000000" stroke-linejoin="round" y1="3.6" y2="3.6" stroke-width="0.7" stroke-linecap="round" x1="10.11" x2="4.804"/>
<text font-size="2.5" class="text" font-family="'Droid Sans'" fill="#8c8c8c" xmlns="http://www.w3.org/2000/svg" stroke="none" x="5.05" stroke-width="0" y="2.58" text-anchor="middle">1</text>
<line fill="none" xmlns="http://www.w3.org/2000/svg" id="connector1pin" stroke="#000000" stroke-linejoin="round" y1="10.8" y2="10.8" stroke-width="0.7" stroke-linecap="round" x1="0.35" x2="7.346"/>
<g fill="none" xmlns="http://www.w3.org/2000/svg" id="connector1terminal" x="-0.252" height="0.208" y="10.704" width="0.546"/>
<polyline fill="none" xmlns="http://www.w3.org/2000/svg" stroke="#000000" stroke-linejoin="round" points="14.1,12.757,9.928,10.8,14.1,8.843" stroke-width="0.7" stroke-linecap="round"/>
<line fill="none" xmlns="http://www.w3.org/2000/svg" id="line" stroke="#000000" stroke-linejoin="round" y1="10.8" y2="10.8" stroke-width="0.7" stroke-linecap="round" x1="10.11" x2="4.804"/>
<text font-size="2.5" class="text" font-family="'Droid Sans'" fill="#8c8c8c" xmlns="http://www.w3.org/2000/svg" stroke="none" x="5.05" stroke-width="0" y="9.78" text-anchor="middle">2</text>
</g>
</g></g></g><g partID='64720'><line stroke-linecap='round' stroke='#404040' x1='156' y1='249.88' x2='156' y2='271.48' stroke-width='0.699998' /></g><circle  fill="black" cx="156" cy="271.48" r="1.44" stroke-width="0" stroke="none" /><g partID='64840'><line stroke-linecap='round' stroke='#404040' x1='148.8' y1='55.88' x2='48' y2='55.48' stroke-width='0.699998' /></g><circle  fill="black" cx="148.8" cy="55.88" r="1.44" stroke-width="0" stroke="none" /><g partID='64810'><line stroke-linecap='round' stroke='#404040' x1='148.8' y1='84.2801' x2='148.8' y2='55.88' stroke-width='0.699998' /></g><g partID='67340'><line stroke-linecap='round' stroke='#404040' x1='249.2' y1='55.48' x2='249.6' y2='55.48' stroke-width='0.699998' /></g><g partID='65940'><line stroke-linecap='round' stroke='#404040' x1='249.6' y1='55.48' x2='249.6' y2='177.879' stroke-width='0.699998' /></g><g partID='65870'><line stroke-linecap='round' stroke='#404040' x1='148.8' y1='55.88' x2='249.2' y2='55.48' stroke-width='0.699998' /></g><circle  fill="black" cx="249.2" cy="55.48" r="1.44" stroke-width="0" stroke="none" /><g partID='66790'><line stroke-linecap='round' stroke='#404040' x1='278.4' y1='228.28' x2='278.4' y2='235.48' stroke-width='0.699998' /></g><g partID='68140'><line stroke-linecap='round' stroke='#404040' x1='250' y1='271.08' x2='278.4' y2='271.48' stroke-width='0.699998' /></g><circle  fill="black" cx="250" cy="271.08" r="1.44" stroke-width="0" stroke="none" /><g partID='67150'><line stroke-linecap='round' stroke='#404040' x1='156' y1='271.48' x2='250' y2='271.08' stroke-width='0.699998' /></g><circle  fill="black" cx="156" cy="271.48" r="1.44" stroke-width="0" stroke="none" /><g partID='68050'><line stroke-linecap='round' stroke='#404040' x1='278.4' y1='271.48' x2='278.4' y2='264.28' stroke-width='0.699998' /></g><circle  fill="black" cx="278.4" cy="271.48" r="1.44" stroke-width="0" stroke="none" /><g partID='68200'><line stroke-linecap='round' stroke='#404040' x1='250' y1='271.08' x2='249.6' y2='264.28' stroke-width='0.699998' /></g><g partID='68500'><line stroke-linecap='round' stroke='#404040' x1='285.6' y1='55.48' x2='285.6' y2='98.681' stroke-width='0.699998' /></g><circle  fill="black" cx="285.6" cy="55.48" r="1.44" stroke-width="0" stroke="none" /><g partID='68330'><line stroke-linecap='round' stroke='#404040' x1='249.2' y1='55.48' x2='285.6' y2='55.48' stroke-width='0.699998' /></g><g partID='68840'><line stroke-linecap='round' stroke='#404040' x1='372.4' y1='55.08' x2='372' y2='98.681' stroke-width='0.699998' /></g><g partID='68650'><line stroke-linecap='round' stroke='#404040' x1='285.6' y1='55.48' x2='372.4' y2='55.08' stroke-width='0.699998' /></g><g partID='71870'><line stroke-linecap='round' stroke='#404040' x1='285.6' y1='149.08' x2='285.6' y2='113.08' stroke-width='0.699998' /></g><g partID='71330'><line stroke-linecap='round' stroke='#404040' x1='321.6' y1='149.08' x2='285.6' y2='149.08' stroke-width='0.699998' /></g><circle  fill="black" cx="321.6" cy="149.08" r="1.44" stroke-width="0" stroke="none" /><g partID='69880'><line stroke-linecap='round' stroke='#404040' x1='322' y1='271.88' x2='321.6' y2='149.08' stroke-width='0.699998' /></g><g partID='69730'><line stroke-linecap='round' stroke='#404040' x1='278.4' y1='271.48' x2='322' y2='271.88' stroke-width='0.699998' /></g><g partID='71680'><line stroke-linecap='round' stroke='#404040' x1='372' y1='149.08' x2='372' y2='113.08' stroke-width='0.699998' /></g><g partID='71490'><line stroke-linecap='round' stroke='#404040' x1='321.6' y1='149.08' x2='372' y2='149.08' stroke-width='0.699998' /></g><g partID='72200'><line stroke-linecap='round' stroke='#404040' x1='220.8' y1='105.88' x2='285.6' y2='105.881' stroke-width='0.699998' /></g><g partID='72130'><line stroke-linecap='round' stroke='#404040' x1='220.8' y1='185.08' x2='220.8' y2='105.88' stroke-width='0.699998' /></g><g partID='72060'><line stroke-linecap='round' stroke='#404040' x1='206.4' y1='185.08' x2='220.8' y2='185.08' stroke-width='0.699998' /></g><g partID='72550'><line stroke-linecap='round' stroke='#404040' x1='228' y1='127.48' x2='350.4' y2='127.48' stroke-width='0.699998' /></g><g partID='72480'><line stroke-linecap='round' stroke='#404040' x1='350.4' y1='105.88' x2='372' y2='105.881' stroke-width='0.699998' /></g><g partID='72410'><line stroke-linecap='round' stroke='#404040' x1='350.4' y1='127.48' x2='350.4' y2='105.88' stroke-width='0.699998' /></g><g partID='72340'><line stroke-linecap='round' stroke='#404040' x1='228' y1='177.88' x2='228' y2='127.48' stroke-width='0.699998' /></g><g partID='72270'><line stroke-linecap='round' stroke='#404040' x1='206.4' y1='177.88' x2='228' y2='177.88' stroke-width='0.699998' /></g><g partID='72960'><line stroke-linecap='round' stroke='#404040' x1='235.2' y1='141.88' x2='235.2' y2='206.68' stroke-width='0.699998' /></g><g partID='72890'><line stroke-linecap='round' stroke='#404040' x1='235.2' y1='206.68' x2='249.6' y2='206.68' stroke-width='0.699998' /></g><circle  fill="black" cx="249.6" cy="206.68" r="1.44" stroke-width="0" stroke="none" /><g partID='72820'><line stroke-linecap='round' stroke='#404040' x1='206.4' y1='141.88' x2='235.2' y2='141.88' stroke-width='0.699998' /></g><g partID='73030'><line stroke-linecap='round' stroke='#404040' x1='249.6' y1='206.68' x2='249.6' y2='235.48' stroke-width='0.699998' /></g><circle  fill="black" cx="249.6" cy="206.68" r="1.44" stroke-width="0" stroke="none" /><g partID='79870'><line stroke-linecap='round' stroke='#404040' x1='98.4' y1='177.88' x2='47.9999' y2='177.88' stroke-width='0.699998' /></g><g partID='79940'><line stroke-linecap='round' stroke='#404040' x1='98.4' y1='185.08' x2='47.9999' y2='185.08' stroke-width='0.699998' /></g><g partID='80130'><line stroke-linecap='round' stroke='#404040' x1='249.6' y1='206.68' x2='278.4' y2='206.68' stroke-width='0.699998' /></g><g partID='61640' id='partLabel'><g transform='translate(206.4,78.6801)' ><g font-size='5' font-style='normal' font-weight='normal' fill='#000000' font-family="'DroidSans'" id='schematicLabel' fill-opacity='1' stroke='none' ><text x='0' y='3.75'>MCU</text></g></g></g><g partID='64520' id='partLabel'><g transform='translate(282.179,195.264)' ><g font-size='5' font-style='normal' font-weight='normal' fill='#000000' font-family="'DroidSans'" id='schematicLabel' fill-opacity='1' stroke='none' ><text x='0' y='3.75'>LED1</text><text x='0' y='8.75'>Red (633nm)</text></g></g></g><g partID='64980' id='partLabel'><g transform='translate(251.475,171.946)' ><g font-size='5' font-style='normal' font-weight='normal' fill='#000000' font-family="'DroidSans'" id='schematicLabel' fill-opacity='1' stroke='none' ><text x='0' y='3.75'>S1 / Magnetic sensor</text></g></g></g><g partID='65770' id='partLabel'><g transform='translate(233.704,222.33)' ><g font-size='5' font-style='normal' font-weight='normal' fill='#000000' font-family="'DroidSans'" id='schematicLabel' fill-opacity='1' stroke='none' ><text x='0' y='3.75'>R1</text><text x='0' y='8.75'>10k&#x3a9;</text></g></g></g><g partID='66770' id='partLabel'><g transform='translate(262.504,222.33)' ><g font-size='5' font-style='normal' font-weight='normal' fill='#000000' font-family="'DroidSans'" id='schematicLabel' fill-opacity='1' stroke='none' ><text x='0' y='3.75'>R2</text><text x='0' y='8.75'>330&#x3a9;</text></g></g></g><g partID='68310' id='partLabel'><g transform='translate(418.931,78.6805)' ><g font-size='5' font-style='normal' font-weight='normal' fill='#000000' font-family="'DroidSans'" id='schematicLabel' fill-opacity='1' stroke='none' ><text x='0' y='3.75'>J2 / Lock servo</text></g></g></g><g partID='67310' id='partLabel'><g transform='translate(332.531,78.6805)' ><g font-size='5' font-style='normal' font-weight='normal' fill='#000000' font-family="'DroidSans'" id='schematicLabel' fill-opacity='1' stroke='none' ><text x='0' y='3.75'>J1 / Door servo</text></g></g></g><g partID='79840' id='partLabel'><g transform='translate(52.821,188.688)' ><g transform='matrix(1,0,0,1,0,0)'  ><g font-size='5' font-style='normal' font-weight='normal' fill='#000000' font-family="'DroidSans'" id='schematicLabel' fill-opacity='1' stroke='none' ><text x='0' y='3.75'>J3 / i2c </text></g></g></g></g></svg>