<?xml version='1.0' encoding='UTF-8' standalone='no'?>
<!-- Created with Fritzing (http://www.fritzing.org/) -->
<svg xmlns:svg='http://www.w3.org/2000/svg' xmlns='http://www.w3.org/2000/svg' version='1.2' baseProfile='tiny' x='0in' y='0in' width='6.59627in' height='3.96393in' viewBox='0 0 474.931 285.403' >
<g partID='61640'><g transform='translate(98.4,84.2801)' ><g id="schematic">
<rect width="78.3" stroke-linecap="round" class="interior rect" stroke="#000000" height="135.9" fill="#FFFFFF" x="14.85" y="14.85" stroke-width="0.9"/>
<line id="connector61pin" y1="28.8" y2="28.8" stroke-linecap="round" class="pin" x1="93.2499" stroke="#787878" x2="107.65" fill="none" stroke-width="0.699999"/>
<text font-family="'Droid Sans'" class="text" stroke="none" font-size="3.49999" fill="#8c8c8c" text-anchor="end" x="91.8499" y="29.4999" stroke-width="0">D0/RX</text>
<g id="connector61terminal" width="0.699999" class="terminal" stroke="none" height="0.699999" fill="none" x="107.65" y="28.4499" stroke-width="0"/>
<line id="connector62pin" y1="36" y2="36" stroke-linecap="round" class="pin" x1="93.2499" stroke="#787878" x2="107.65" fill="none" stroke-width="0.699999"/>
<text font-family="'Droid Sans'" class="text" stroke="none" font-size="3.49999" fill="#8c8c8c" text-anchor="end" x="91.8499" y="36.6999" stroke-width="0">D1/TX</text>
<g id="connector62terminal" width="0.699999" class="terminal" stroke="none" height="0.699999" fill="none" x="107.65" y="35.6499" stroke-width="0"/>
<line id="connector63pin" y1="43.2" y2="43.2" stroke-linecap="round" class="pin" x1="93.2499" stroke="#787878" x2="107.65" fill="none" stroke-width="0.699999"/>
<text font-family="'Droid Sans'" class="text" stroke="none" font-size="3.49999" fill="#8c8c8c" text-anchor="end" x="91.8499" y="43.8999" stroke-width="0">D2</text>
<g id="connector63terminal" width="0.699999" class="terminal" stroke="none" height="0.699999" fill="none" x="107.65" y="42.8499" stroke-width="0"/>
<line id="connector64pin" y1="50.4" y2="50.4" stroke-linecap="round" class="pin" x1="93.2499" stroke="#787878" x2="107.65" fill="none" stroke-width="0.699999"/>
<text font-family="'Droid Sans'" class="text" stroke="none" font-size="3.49999" fill="#8c8c8c" text-anchor="end" x="91.8499" y="51.0999" stroke-width="0">D3 PWM</text>
<g id="connector64terminal" width="0.699999" class="terminal" stroke="none" height="0.699999" fill="none" x="107.65" y="50.0499" stroke-width="0"/>
<line id="connector65pin" y1="57.6" y2="57.6" stroke-linecap="round" class="pin" x1="93.2499" stroke="#787878" x2="107.65" fill="none" stroke-width="0.699999"/>
<text font-family="'Droid Sans'" class="text" stroke="none" font-size="3.49999" fill="#8c8c8c" text-anchor="end" x="91.8499" y="58.2999" stroke-width="0">D4</text>
<g id="connector65terminal" width="0.699999" class="terminal" stroke="none" height="0.699999" fill="none" x="107.65" y="57.2499" stroke-width="0"/>
<line id="connector66pin" y1="64.8" y2="64.8" stroke-linecap="round" class="pin" x1="93.2499" stroke="#787878" x2="107.65" fill="none" stroke-width="0.699999"/>
<text font-family="'Droid Sans'" class="text" stroke="none" font-size="3.49999" fill="#8c8c8c" text-anchor="end" x="91.8499" y="65.4999" stroke-width="0">D5 PWM</text>
<g id="connector66terminal" width="0.699999" class="terminal" stroke="none" height="0.699999" fill="none" x="107.65" y="64.4499" stroke-width="0"/>
<line id="connector67pin" y1="72" y2="72" stroke-linecap="round" class="pin" x1="93.2499" stroke="#787878" x2="107.65" fill="none" stroke-width="0.699999"/>
<text font-family="'Droid Sans'" class="text" stroke="none" font-size="3.49999" fill="#8c8c8c" text-anchor="end" x="91.8499" y="72.6999" stroke-width="0">D6 PWM</text>
<g id="connector67terminal" width="0.699999" class="terminal" stroke="none" height="0.699999" fill="none" x="107.65" y="71.6499" stroke-width="0"/>
<line id="connector68pin" y1="79.2" y2="79.2" stroke-linecap="round" class="pin" x1="93.2499" stroke="#787878" x2="107.65" fill="none" stroke-width="0.699999"/>
<text font-family="'Droid Sans'" class="text" stroke="none" font-size="3.49999" fill="#8c8c8c" text-anchor="end" x="91.8499" y="79.8999" stroke-width="0">D7</text>
<g id="connector68terminal" width="0.699999" class="terminal" stroke="none" height="0.699999" fill="none" x="107.65" y="78.8499" stroke-width="0"/>
<line id="connector51pin" y1="86.4" y2="86.4" stroke-linecap="round" class="pin" x1="93.2499" stroke="#787878" x2="107.65" fill="none" stroke-width="0.699999"/>
<text font-family="'Droid Sans'" class="text" stroke="none" font-size="3.49999" fill="#8c8c8c" text-anchor="end" x="91.8499" y="87.0999" stroke-width="0">D8</text>
<g id="connector51terminal" width="0.699999" class="terminal" stroke="none" height="0.699999" fill="none" x="107.65" y="86.0499" stroke-width="0"/>
<line id="connector52pin" y1="93.6" y2="93.6" stroke-linecap="round" class="pin" x1="93.2499" stroke="#787878" x2="107.65" fill="none" stroke-width="0.699999"/>
<text font-family="'Droid Sans'" class="text" stroke="none" font-size="3.49999" fill="#8c8c8c" text-anchor="end" x="91.8499" y="94.2999" stroke-width="0">D9 PWM</text>
<g id="connector52terminal" width="0.699999" class="terminal" stroke="none" height="0.699999" fill="none" x="107.65" y="93.2499" stroke-width="0"/>
<line id="connector53pin" y1="100.8" y2="100.8" stroke-linecap="round" class="pin" x1="93.2499" stroke="#787878" x2="107.65" fill="none" stroke-width="0.699999"/>
<text font-family="'Droid Sans'" class="text" stroke="none" font-size="3.49999" fill="#8c8c8c" text-anchor="end" x="91.8499" y="101.5" stroke-width="0">D10 PWM/SS</text>
<g id="connector53terminal" width="0.699999" class="terminal" stroke="none" height="0.699999" fill="none" x="107.65" y="100.45" stroke-width="0"/>
<line id="connector54pin" y1="108" y2="108" stroke-linecap="round" class="pin" x1="93.2499" stroke="#787878" x2="107.65" fill="none" stroke-width="0.699999"/>
<text font-family="'Droid Sans'" class="text" stroke="none" font-size="3.49999" fill="#8c8c8c" text-anchor="end" x="91.8499" y="108.7" stroke-width="0">D11 PWM/MOSI</text>
<g id="connector54terminal" width="0.699999" class="terminal" stroke="none" height="0.699999" fill="none" x="107.65" y="107.65" stroke-width="0"/>
<line id="connector55pin" y1="115.2" y2="115.2" stroke-linecap="round" class="pin" x1="93.2499" stroke="#787878" x2="107.65" fill="none" stroke-width="0.699999"/>
<text font-family="'Droid Sans'" class="text" stroke="none" font-size="3.49999" fill="#8c8c8c" text-anchor="end" x="91.8499" y="115.9" stroke-width="0">D12/MISO</text>
<g id="connector55terminal" width="0.699999" class="terminal" stroke="none" height="0.699999" fill="none" x="107.65" y="114.85" stroke-width="0"/>
<line id="connector41pin" y1="122.4" y2="122.4" stroke-linecap="round" class="pin" x1="93.2499" stroke="none" x2="107.65" fill="none" stroke-width="0"/>
<rect id="connector41terminal" width="0.699999" class="terminal" stroke="none" height="0.699999" fill="none" x="107.65" y="122.05" stroke-width="0"/>
<line id="connector56pin" y1="122.4" y2="122.4" stroke-linecap="round" class="pin" x1="93.2499" stroke="#787878" x2="107.65" fill="none" stroke-width="0.699999"/>
<text font-family="'Droid Sans'" class="text" stroke="none" font-size="3.49999" fill="#8c8c8c" text-anchor="end" x="91.8499" y="123.1" stroke-width="0">D13/SCK</text>
<g id="connector56terminal" width="0.699999" class="terminal" stroke="none" height="0.699999" fill="none" x="107.65" y="122.05" stroke-width="0"/>
<line id="connector43pin" y1="28.8" y2="28.8" stroke-linecap="round" class="pin" x1="0.349999" stroke="none" x2="14.75" fill="none" stroke-width="0"/>
<rect id="connector43terminal" width="0.699999" class="terminal" stroke="none" height="0.699999" fill="none" x="-0.349999" y="28.4499" stroke-width="0"/>
<line id="connector85pin" y1="28.8" y2="28.8" stroke-linecap="round" class="pin" x1="0.349999" stroke="#787878" x2="14.75" fill="none" stroke-width="0.699999"/>
<text font-family="'Droid Sans'" class="text" stroke="none" font-size="3.49999" fill="#8c8c8c" text-anchor="start" x="16.15" y="29.4999" stroke-width="0">RESET</text>
<g id="connector85terminal" width="0.699999" class="terminal" stroke="none" height="0.699999" fill="none" x="-0.349999" y="28.4499" stroke-width="0"/>
<line id="connector49pin" y1="36" y2="36" stroke-linecap="round" class="pin" x1="0.349999" stroke="#787878" x2="14.75" fill="none" stroke-width="0.699999"/>
<text font-family="'Droid Sans'" class="text" stroke="none" font-size="3.49999" fill="#8c8c8c" text-anchor="start" x="16.15" y="36.6999" stroke-width="0">RESET2</text>
<rect id="connector49terminal" width="0.699999" class="terminal" stroke="none" height="0.699999" fill="none" x="-0.349999" y="35.6499" stroke-width="0"/>
<line id="connector58pin" y1="43.2" y2="43.2" stroke-linecap="round" class="pin" x1="0.349999" stroke="#787878" x2="14.75" fill="none" stroke-width="0.699999"/>
<text font-family="'Droid Sans'" class="text" stroke="none" font-size="3.49999" fill="#8c8c8c" text-anchor="start" x="16.15" y="43.8999" stroke-width="0">AREF</text>
<g id="connector58terminal" width="0.699999" class="terminal" stroke="none" height="0.699999" fill="none" x="-0.349999" y="42.8499" stroke-width="0"/>
<line id="connector84pin" y1="50.4" y2="50.4" stroke-linecap="round" class="pin" x1="0.349999" stroke="#787878" x2="14.75" fill="none" stroke-width="0.699999"/>
<text font-family="'Droid Sans'" class="text" stroke="none" font-size="3.49999" fill="#8c8c8c" text-anchor="start" x="16.15" y="51.0999" stroke-width="0">ioref</text>
<g id="connector84terminal" width="0.699999" class="terminal" stroke="none" height="0.699999" fill="none" x="-0.349999" y="50.0499" stroke-width="0"/>
<line id="connector0pin" y1="64.8" y2="64.8" stroke-linecap="round" class="pin" x1="0.349999" stroke="#787878" x2="14.75" fill="none" stroke-width="0.699999"/>
<text font-family="'Droid Sans'" class="text" stroke="none" font-size="3.49999" fill="#8c8c8c" text-anchor="start" x="16.15" y="65.4999" stroke-width="0">A0</text>
<g id="connector0terminal" width="0.699999" class="terminal" stroke="none" height="0.699999" fill="none" x="-0.349999" y="64.4499" stroke-width="0"/>
<line id="connector1pin" y1="72" y2="72" stroke-linecap="round" class="pin" x1="0.349999" stroke="#787878" x2="14.75" fill="none" stroke-width="0.699999"/>
<text font-family="'Droid Sans'" class="text" stroke="none" font-size="3.49999" fill="#8c8c8c" text-anchor="start" x="16.15" y="72.6999" stroke-width="0">A1</text>
<g id="connector1terminal" width="0.699999" class="terminal" stroke="none" height="0.699999" fill="none" x="-0.349999" y="71.6499" stroke-width="0"/>
<line id="connector2pin" y1="79.2" y2="79.2" stroke-linecap="round" class="pin" x1="0.349999" stroke="#787878" x2="14.75" fill="none" stroke-width="0.699999"/>
<text font-family="'Droid Sans'" class="text" stroke="none" font-size="3.49999" fill="#8c8c8c" text-anchor="start" x="16.15" y="79.8999" stroke-width="0">A2</text>
<g id="connector2terminal" width="0.699999" class="terminal" stroke="none" height="0.699999" fill="none" x="-0.349999" y="78.8499" stroke-width="0"/>
<line id="connector3pin" y1="86.4" y2="86.4" stroke-linecap="round" class="pin" x1="0.349999" stroke="#787878" x2="14.75" fill="none" stroke-width="0.699999"/>
<text font-family="'Droid Sans'" class="text" stroke="none" font-size="3.49999" fill="#8c8c8c" text-anchor="start" x="16.15" y="87.0999" stroke-width="0">A3</text>
<g id="connector3terminal" width="0.699999" class="terminal" stroke="none" height="0.699999" fill="none" x="-0.349999" y="86.0499" stroke-width="0"/>
<line id="connector48pin" y1="93.6" y2="93.6" stroke-linecap="round" class="pin" x1="0.349999" stroke="none" x2="14.75" fill="none" stroke-width="0"/>
<rect id="connector48terminal" width="0.699999" class="terminal" stroke="none" height="0.699999" fill="none" x="-0.349999" y="93.2499" stroke-width="0"/>
<line id="connector45pin" y1="93.6" y2="93.6" stroke-linecap="round" class="pin" x1="0.349999" stroke="none" x2="14.75" fill="none" stroke-width="0"/>
<rect id="connector45terminal" width="0.699999" class="terminal" stroke="none" height="0.699999" fill="none" x="-0.349999" y="93.2499" stroke-width="0"/>
<line id="connector4pin" y1="93.6" y2="93.6" stroke-linecap="round" class="pin" x1="0.349999" stroke="none" x2="14.75" fill="none" stroke-width="0"/>
<g id="connector4terminal" width="0.699999" class="terminal" stroke="none" height="0.699999" fill="none" x="-0.349999" y="93.2499" stroke-width="0"/>
<line id="connector39pin" y1="93.6" y2="93.6" stroke-linecap="round" class="pin" x1="0.349999" stroke="none" x2="14.75" fill="none" stroke-width="0"/>
<rect id="connector39terminal" width="0.699999" class="terminal" stroke="none" height="0.699999" fill="none" x="-0.349999" y="93.2499" stroke-width="0"/>
<line id="connector47pin" y1="93.6" y2="93.6" stroke-linecap="round" class="pin" x1="0.349999" stroke="none" x2="14.75" fill="none" stroke-width="0"/>
<rect id="connector47terminal" width="0.699999" class="terminal" stroke="none" height="0.699999" fill="none" x="-0.349999" y="93.2499" stroke-width="0"/>
<line id="connector42pin" y1="93.6" y2="93.6" stroke-linecap="round" class="pin" x1="0.349999" stroke="none" x2="14.75" fill="none" stroke-width="0"/>
<rect id="connector42terminal" width="0.699999" class="terminal" stroke="none" height="0.699999" fill="none" x="-0.349999" y="93.2499" stroke-width="0"/>
<line id="connector59pin" y1="93.6" y2="93.6" stroke-linecap="round" class="pin" x1="0.349999" stroke="#787878" x2="14.75" fill="none" stroke-width="0.699999"/>
<text font-family="'Droid Sans'" class="text" stroke="none" font-size="3.49999" fill="#8c8c8c" text-anchor="start" x="16.15" y="94.2999" stroke-width="0">A4/SDA</text>
<g id="connector59terminal" width="0.699999" class="terminal" stroke="none" height="0.699999" fill="none" x="-0.349999" y="93.2499" stroke-width="0"/>
<line id="connector5pin" y1="100.8" y2="100.8" stroke-linecap="round" class="pin" x1="0.349999" stroke="none" x2="14.75" fill="none" stroke-width="0"/>
<g id="connector5terminal" width="0.699999" class="terminal" stroke="none" height="0.699999" fill="none" x="-0.349999" y="100.45" stroke-width="0"/>
<line id="connector60pin" y1="100.8" y2="100.8" stroke-linecap="round" class="pin" x1="0.349999" stroke="#787878" x2="14.75" fill="none" stroke-width="0.699999"/>
<text font-family="'Droid Sans'" class="text" stroke="none" font-size="3.49999" fill="#8c8c8c" text-anchor="start" x="16.15" y="101.5" stroke-width="0">A5/SCL</text>
<g id="connector60terminal" width="0.699999" class="terminal" stroke="none" height="0.699999" fill="none" x="-0.349999" y="100.45" stroke-width="0"/>
<line id="connector91pin" y1="136.8" y2="136.8" stroke-linecap="round" class="pin" x1="0.349999" stroke="#787878" x2="14.75" fill="none" stroke-width="0.699999"/>
<text font-family="'Droid Sans'" class="text" stroke="none" font-size="3.49999" fill="#8c8c8c" text-anchor="start" x="16.15" y="137.5" stroke-width="0">N/C</text>
<g id="connector91terminal" width="0.699999" class="terminal" stroke="none" height="0.699999" fill="none" x="-0.349999" y="136.45" stroke-width="0"/>
<line id="connector88pin" y1="150.85" y2="165.25" stroke-linecap="round" class="pin" x1="57.6" stroke="none" x2="57.6" fill="none" stroke-width="0"/>
<g id="connector88terminal" width="0.699999" class="terminal" stroke="none" height="0.699999" fill="none" x="57.2499" y="165.25" stroke-width="0"/>
<line id="connector57pin" y1="150.85" y2="165.25" stroke-linecap="round" class="pin" x1="57.6" stroke="none" x2="57.6" fill="none" stroke-width="0"/>
<g id="connector57terminal" width="0.699999" class="terminal" stroke="none" height="0.699999" fill="none" x="57.2499" y="165.25" stroke-width="0"/>
<line id="connector44pin" y1="150.85" y2="165.25" stroke-linecap="round" class="pin" x1="57.6" stroke="none" x2="57.6" fill="none" stroke-width="0"/>
<rect id="connector44terminal" width="0.699999" class="terminal" stroke="none" height="0.699999" fill="none" x="57.2499" y="165.25" stroke-width="0"/>
<line id="connector50pin" y1="150.85" y2="165.25" stroke-linecap="round" class="pin" x1="57.6" stroke="none" x2="57.6" fill="none" stroke-width="0"/>
<rect id="connector50terminal" width="0.699999" class="terminal" stroke="none" height="0.699999" fill="none" x="57.2499" y="165.25" stroke-width="0"/>
<line id="connector89pin" y1="150.85" y2="165.25" stroke-linecap="round" class="pin" x1="57.6" stroke="#787878" x2="57.6" fill="none" stroke-width="0.699999"/>
<g transform="matrix(1, 0, 0, 1, 58.2999, 149.45)">
<g>
<g transform="rotate(270)">
<g>
<text font-family="'Droid Sans'" class="text" stroke="none" font-size="3.49999" fill="#8c8c8c" text-anchor="start" x="0" y="0" stroke-width="0">GND</text>
</g>
</g>
</g>
</g>
<g id="connector89terminal" width="0.699999" class="terminal" stroke="none" height="0.699999" fill="none" x="57.2499" y="165.25" stroke-width="0"/>
<line id="connector86pin" y1="0.349999" y2="14.75" stroke-linecap="round" class="pin" x1="36" stroke="#787878" x2="36" fill="none" stroke-width="0.699999"/>
<g transform="matrix(1, 0, 0, 1, 36.6999, 16.15)">
<g>
<g transform="rotate(270)">
<g>
<text font-family="'Droid Sans'" class="text" stroke="none" font-size="3.49999" fill="#8c8c8c" text-anchor="end" x="0" y="0" stroke-width="0">3V3</text>
</g>
</g>
</g>
</g>
<g id="connector86terminal" width="0.699999" class="terminal" stroke="none" height="0.699999" fill="none" x="35.6499" y="-0.349999" stroke-width="0"/>
<line id="connector40pin" y1="0.349999" y2="14.75" stroke-linecap="round" class="pin" x1="50.4" stroke="none" x2="50.4" fill="none" stroke-width="0"/>
<rect id="connector40terminal" width="0.699999" class="terminal" stroke="none" height="0.699999" fill="none" x="50.0499" y="-0.349999" stroke-width="0"/>
<line id="connector46pin" y1="0.349999" y2="14.75" stroke-linecap="round" class="pin" x1="50.4" stroke="none" x2="50.4" fill="none" stroke-width="0"/>
<rect id="connector46terminal" width="0.699999" class="terminal" stroke="none" height="0.699999" fill="none" x="50.0499" y="-0.349999" stroke-width="0"/>
<line id="connector87pin" y1="0.349999" y2="14.75" stroke-linecap="round" class="pin" x1="50.4" stroke="#787878" x2="50.4" fill="none" stroke-width="0.699999"/>
<g transform="matrix(1, 0, 0, 1, 51.0999, 16.15)">
<g>
<g transform="rotate(270)">
<g>
<text font-family="'Droid Sans'" class="text" stroke="none" font-size="3.49999" fill="#8c8c8c" text-anchor="end" x="0" y="0" stroke-width="0">5V</text>
</g>
</g>
</g>
</g>
<g id="connector87terminal" width="0.699999" class="terminal" stroke="none" height="0.699999" fill="none" x="50.0499" y="-0.349999" stroke-width="0"/>
<line id="connector90pin" y1="0.349999" y2="14.75" stroke-linecap="round" class="pin" x1="64.8" stroke="#787878" x2="64.8" fill="none" stroke-width="0.699999"/>
<g transform="matrix(1, 0, 0, 1, 65.4999, 16.15)">
<g>
<g transform="rotate(270)">
<g>
<text font-family="'Droid Sans'" class="text" stroke="none" font-size="3.49999" fill="#8c8c8c" text-anchor="end" x="0" y="0" stroke-width="0">VIN</text>
</g>
</g>
</g>
</g>
<g id="connector90terminal" width="0.699999" class="terminal" stroke="none" height="0.699999" fill="none" x="64.4499" y="-0.349999" stroke-width="0"/>
<text id="label" font-family="'Droid Sans'" class="text" stroke="none" font-size="4.25001" fill="#000000" text-anchor="middle" x="54.4501" y="76.4498" stroke-width="0">Arduino</text>
<text id="label" font-family="'Droid Sans'" class="text" stroke="none" font-size="4.25001" fill="#000000" text-anchor="middle" x="54.4501" y="80.9833" stroke-width="0">Uno</text>
<text id="label" font-family="'Droid Sans'" class="text" stroke="none" font-size="4.25001" fill="#000000" text-anchor="middle" x="54.4501" y="85.5167" stroke-width="0">(Rev3)</text>
</g>
</g></g><g partID='64520'><g transform='translate(268.499,206.464)' ><g id="schematic">
<g>
<path d="M13.5,14.966L9.9,14.966c-0.193,0,-0.35,-0.156,-0.35,-0.35s0.156,-0.35,0.35,-0.35L13.5,14.266c0.193,0,0.35,0.156,0.35,0.35S13.694,14.966,13.5,14.966z"/>
</g>
<g>
<path d="M9.9,14.966L6.3,14.966c-0.193,0,-0.35,-0.156,-0.35,-0.35s0.157,-0.35,0.35,-0.35l3.6,0c0.193,0,0.35,0.156,0.35,0.35S10.093,14.966,9.9,14.966z"/>
</g>
<g>
<polygon points="9.9,14.616,6.3,7.416,9.9,7.416,13.5,7.416" fill="#FFFFFF"/>
<path d="M9.9,15.398L5.734,7.066l8.333,0L9.9,15.398zM6.866,7.766L9.9,13.834l3.034,-6.068L6.866,7.766z"/>
</g>
<g>
<path d="M9.9,14.841c-0.124,0,-0.225,-0.101,-0.225,-0.225l0,-7.2c0,-0.124,0.101,-0.225,0.225,-0.225s0.225,0.101,0.225,0.225l0,7.2C10.124,14.74,10.024,14.841,9.9,14.841z"/>
</g>
<g>
<path d="M1.8,12.141c-0.058,0,-0.115,-0.021,-0.159,-0.065c-0.088,-0.088,-0.088,-0.23,0,-0.318l2.34,-2.341c0.088,-0.088,0.23,-0.088,0.318,0s0.088,0.23,0,0.318l-2.34,2.341C1.915,12.12,1.858,12.141,1.8,12.141z"/>
</g>
<g>
<path d="M2.16,15.381c-0.058,0,-0.115,-0.021,-0.159,-0.065c-0.088,-0.088,-0.088,-0.23,0,-0.318l2.34,-2.34c0.088,-0.088,0.23,-0.088,0.318,0s0.088,0.23,0,0.318l-2.34,2.34C2.276,15.359,2.218,15.381,2.16,15.381z"/>
</g>
<g id="connector0pin">
<path d="M9.9,22.166c-0.193,0,-0.35,-0.156,-0.35,-0.35l0,-7.2c0,-0.193,0.156,-0.35,0.35,-0.35s0.35,0.156,0.35,0.35l0,7.2C10.249,22.01,10.093,22.166,9.9,22.166z" fill="#787878"/>
</g>
<g id="connector0terminal">
<rect width="0.001" height="0.001" fill="none" x="9.9" y="21.816"/>
</g>
<g transform="matrix(1, 0, 0, 1, 3.429, 6.4262)">
<g>
<g transform="rotate(270)">
<g>
<g enable-background="new    ">
<path d="M-11.647,5.54l-0.891,0L-12.538,5.388l0.342,-0.372c0.049,-0.053,0.093,-0.101,0.131,-0.145s0.071,-0.086,0.099,-0.128c0.026,-0.042,0.047,-0.084,0.062,-0.125c0.015,-0.043,0.021,-0.088,0.021,-0.138c0,-0.038,-0.005,-0.072,-0.017,-0.102s-0.027,-0.054,-0.047,-0.075c-0.021,-0.02,-0.045,-0.035,-0.073,-0.046s-0.06,-0.016,-0.094,-0.016c-0.062,0,-0.118,0.013,-0.167,0.038c-0.051,0.024,-0.098,0.057,-0.143,0.096l-0.1,-0.116c0.025,-0.023,0.055,-0.046,0.084,-0.065c0.029,-0.021,0.063,-0.039,0.097,-0.054s0.071,-0.026,0.109,-0.036c0.038,-0.008,0.079,-0.013,0.121,-0.013c0.063,0,0.119,0.009,0.169,0.026c0.051,0.018,0.094,0.043,0.129,0.076c0.035,0.032,0.063,0.072,0.082,0.119c0.019,0.048,0.028,0.101,0.028,0.16c0,0.056,-0.009,0.108,-0.026,0.158c-0.017,0.05,-0.041,0.1,-0.07,0.148c-0.031,0.048,-0.066,0.097,-0.109,0.146c-0.041,0.049,-0.087,0.1,-0.136,0.152L-12.32,5.37l0,0.008l0.673,0L-11.647,5.54z" fill="#787878"/>
</g>
</g>
</g>
</g>
</g>
<g id="connector1pin">
<path d="M9.9,7.766c-0.193,0,-0.35,-0.157,-0.35,-0.35l0,-7.2c0,-0.193,0.156,-0.35,0.35,-0.35s0.35,0.157,0.35,0.35l0,7.2C10.249,7.609,10.093,7.766,9.9,7.766z" fill="#787878"/>
</g>
<g id="connector1terminal">
<polygon points="9.9,0.216,9.901,0.216,9.901,0.216" fill="none"/>
</g>
<g transform="matrix(1, 0, 0, 1, 3.429, 1.3462)">
<g>
<g transform="rotate(270)">
<g>
<g enable-background="new    ">
<path d="M-2.616,5.54l-0.172,0L-2.788,4.648c0,-0.028,0,-0.058,0,-0.09s0.001,-0.063,0.002,-0.095c0.001,-0.032,0.002,-0.063,0.003,-0.092c0.001,-0.028,0.002,-0.054,0.002,-0.076c-0.011,0.012,-0.021,0.021,-0.029,0.03s-0.017,0.017,-0.026,0.024s-0.018,0.016,-0.028,0.025c-0.01,0.008,-0.021,0.019,-0.035,0.03l-0.145,0.118l-0.094,-0.12l0.374,-0.292l0.146,0L-2.618,5.54z" fill="#787878"/>
</g>
</g>
</g>
</g>
</g>
<g>
<path d="M0.18,13.536l1.08,-2.521l1.44,1.438L0.18,13.536z"/>
</g>
<g>
<path d="M0.54,16.776l1.08,-2.521l1.438,1.438L0.54,16.776z"/>
</g>
</g>
</g></g><g partID='83400'><g transform='translate(364.818,41.5072)' ><g id="schematic">
<line id="connector0pin" y1="6.78" y2="13.98" stroke-linecap="round" stroke="#787878" x1="7.2" x2="7.2" stroke-miterlimit="10" fill="none" stroke-width="0.75"/>
<g id="connector0terminal" points="6.817,13.567,7.546,13.546,7.546,14.4,6.859,14.359" fill="none"/>
<path stroke-linecap="round" stroke="#000000" d="M0.45,6.564l13.5,0" fill="none" stroke-width="0.9"/>
<g transform="matrix(1, 0, 0, 1, 1.4985, 4.9878)">
<text id="label" font-family="'DroidSans'" font-size="4.4991">5V</text>
</g>
</g>
</g></g><g partID='83140'><g transform='translate(278.418,41.5072)' ><g id="schematic">
<line id="connector0pin" y1="6.78" y2="13.98" stroke-linecap="round" stroke="#787878" x1="7.2" x2="7.2" stroke-miterlimit="10" fill="none" stroke-width="0.75"/>
<g id="connector0terminal" points="6.817,13.567,7.546,13.546,7.546,14.4,6.859,14.359" fill="none"/>
<path stroke-linecap="round" stroke="#000000" d="M0.45,6.564l13.5,0" fill="none" stroke-width="0.9"/>
<g transform="matrix(1, 0, 0, 1, 1.4985, 4.9878)">
<text id="label" font-family="'DroidSans'" font-size="4.4991">5V</text>
</g>
</g>
</g></g><g partID='64550'><g transform='translate(40.8185,41.5072)' ><g id="schematic">
<line id="connector0pin" y1="6.78" y2="13.98" stroke-linecap="round" stroke="#787878" x1="7.2" x2="7.2" stroke-miterlimit="10" fill="none" stroke-width="0.75"/>
<g id="connector0terminal" points="6.817,13.567,7.546,13.546,7.546,14.4,6.859,14.359" fill="none"/>
<path stroke-linecap="round" stroke="#000000" d="M0.45,6.564l13.5,0" fill="none" stroke-width="0.9"/>
<g transform="matrix(1, 0, 0, 1, 1.4985, 4.9878)">
<text id="label" font-family="'DroidSans'" font-size="4.4991">5V</text>
</g>
</g>
</g></g><g partID='64600'><g transform='translate(148.799,271.003)' ><g id="schematic" xmlns="http://www.w3.org/2000/svg">
<path id="connector0pin" stroke-linecap="round" stroke="#787878" xmlns="http://www.w3.org/2000/svg" d="M7.201,7.575l0,-7.2" fill="none" stroke-width="0.75"/>
<g id="connector0terminal" width="0.945" xmlns="http://www.w3.org/2000/svg" height="0.953" fill="none" x="6.728" y="0"/>
<path id="path4098" stroke-linecap="round" stroke="#000000" xmlns="http://www.w3.org/2000/svg" d="M0.5,7.711L13.9,7.711" fill="none" stroke-width="0.9"/>
<path id="path4100" stroke-linecap="round" stroke="#000000" xmlns="http://www.w3.org/2000/svg" d="M2.732,10.456l8.935,0" fill="none" stroke-width="0.9"/>
<path id="path4102" stroke-linecap="round" stroke="#000000" xmlns="http://www.w3.org/2000/svg" d="M9.431,13.175L4.967,13.175" fill="none" stroke-width="0.9"/>
</g>
</g></g><g partID='64980'><g transform='translate(244.859,177.546)' ><g id="schematic" xmlns="http://www.w3.org/2000/svg">
<line y1="9.333" y2="7.534" stroke-linecap="round" stroke="#000000" x1="4.741" x2="4.741" xmlns="http://www.w3.org/2000/svg" fill="none" stroke-width="0.7"/>
<line y1="21.934" y2="9.333" stroke-linecap="round" stroke="#000000" x1="4.741" x2="1.142" xmlns="http://www.w3.org/2000/svg" fill="none" stroke-width="0.7"/>
<circle cx="4.741" cy="21.934" stroke="#000000" r="0.36" xmlns="http://www.w3.org/2000/svg" fill="none" stroke-width="0.7"/>
<circle cx="4.741" cy="7.534" stroke="#000000" r="0.36" xmlns="http://www.w3.org/2000/svg" fill="none" stroke-width="0.7"/>
<line id="connector0pin" y1="29.135" y2="21.934" stroke-linecap="round" stroke="#555555" x1="4.741" x2="4.741" xmlns="http://www.w3.org/2000/svg" fill="none" stroke-width="0.7"/>
<g id="connector0terminal" width="0.002" xmlns="http://www.w3.org/2000/svg" height="0.001" fill="none" x="4.74" y="29.134"/>
<line id="connector1pin" y1="0.333" y2="7.534" stroke-linecap="round" stroke="#555555" x1="4.741" x2="4.741" xmlns="http://www.w3.org/2000/svg" fill="none" stroke-width="0.7"/>
<g id="connector1terminal" width="0" xmlns="http://www.w3.org/2000/svg" height="0.001" fill="none" x="4.741" y="0.333"/>
</g>
</g></g><g partID='66770'><g transform='translate(275.304,264.63)' ><g transform='matrix(0,-1,1,0,0,0)'  ><g id="schematic" xmlns="http://www.w3.org/2000/svg">
<line y1="3.096" y2="0.216" stroke-linecap="round" class="other" x1="7.55002" stroke="#000000" x2="8.63003" xmlns="http://www.w3.org/2000/svg" stroke-width="0.432002"/>
<line y1="0.216" y2="5.976" stroke-linecap="round" class="other" x1="8.63003" stroke="#000000" x2="10.43" xmlns="http://www.w3.org/2000/svg" stroke-width="0.432002"/>
<line y1="5.976" y2="0.216" stroke-linecap="round" class="other" x1="10.43" stroke="#000000" x2="12.23" xmlns="http://www.w3.org/2000/svg" stroke-width="0.432002"/>
<line y1="0.216" y2="5.976" stroke-linecap="round" class="other" x1="12.23" stroke="#000000" x2="14.03" xmlns="http://www.w3.org/2000/svg" stroke-width="0.432002"/>
<line y1="5.976" y2="0.216" stroke-linecap="round" class="other" x1="14.03" stroke="#000000" x2="15.8301" xmlns="http://www.w3.org/2000/svg" stroke-width="0.432002"/>
<line y1="0.216" y2="5.976" stroke-linecap="round" class="other" x1="15.8301" stroke="#000000" x2="17.6301" xmlns="http://www.w3.org/2000/svg" stroke-width="0.432002"/>
<line y1="5.976" y2="0.216" stroke-linecap="round" class="other" x1="17.6301" stroke="#000000" x2="19.4301" xmlns="http://www.w3.org/2000/svg" stroke-width="0.432002"/>
<line y1="0.216" y2="5.976" stroke-linecap="round" class="other" x1="19.4301" stroke="#000000" x2="21.2301" xmlns="http://www.w3.org/2000/svg" stroke-width="0.432002"/>
<line y1="5.976" y2="3.096" stroke-linecap="round" class="other" x1="21.2301" stroke="#000000" x2="21.9501" xmlns="http://www.w3.org/2000/svg" stroke-width="0.432002"/>
<line id="connector1pin" y1="3.096" y2="3.096" stroke-linecap="round" class="pin" x1="29.1502" stroke="#787878" x2="21.9501" xmlns="http://www.w3.org/2000/svg" connectorname="2" stroke-width="0.700001"/>
<g id="connector1terminal" width="0.000283466" class="terminal" stroke="none" xmlns="http://www.w3.org/2000/svg" height="0.000283465" fill="none" x="29.1502" y="3.096" stroke-width="0"/>
<text font-family="'Droid Sans'" class="text" stroke="none" font-size="2.50001" xmlns="http://www.w3.org/2000/svg" fill="#8c8c8c" text-anchor="middle" x="25.5501" y="2.046" stroke-width="0">2</text>
<line id="connector0pin" y1="3.096" y2="3.096" stroke-linecap="round" class="pin" x1="0.350001" stroke="#787878" x2="7.55002" xmlns="http://www.w3.org/2000/svg" connectorname="1" stroke-width="0.700001"/>
<g id="connector0terminal" width="0.000283466" class="terminal" stroke="none" xmlns="http://www.w3.org/2000/svg" height="0.000283465" fill="none" x="0.350001" y="3.096" stroke-width="0"/>
<text font-family="'Droid Sans'" class="text" stroke="none" font-size="2.50001" xmlns="http://www.w3.org/2000/svg" fill="#8c8c8c" text-anchor="middle" x="3.95001" y="2.046" stroke-width="0">1</text>
</g>
</g></g></g><g partID='65770'><g transform='translate(246.504,264.63)' ><g transform='matrix(0,-1,1,0,0,0)'  ><g id="schematic" xmlns="http://www.w3.org/2000/svg">
<line y1="3.096" y2="0.216" stroke-linecap="round" class="other" x1="7.55002" stroke="#000000" x2="8.63003" xmlns="http://www.w3.org/2000/svg" stroke-width="0.432002"/>
<line y1="0.216" y2="5.976" stroke-linecap="round" class="other" x1="8.63003" stroke="#000000" x2="10.43" xmlns="http://www.w3.org/2000/svg" stroke-width="0.432002"/>
<line y1="5.976" y2="0.216" stroke-linecap="round" class="other" x1="10.43" stroke="#000000" x2="12.23" xmlns="http://www.w3.org/2000/svg" stroke-width="0.432002"/>
<line y1="0.216" y2="5.976" stroke-linecap="round" class="other" x1="12.23" stroke="#000000" x2="14.03" xmlns="http://www.w3.org/2000/svg" stroke-width="0.432002"/>
<line y1="5.976" y2="0.216" stroke-linecap="round" class="other" x1="14.03" stroke="#000000" x2="15.8301" xmlns="http://www.w3.org/2000/svg" stroke-width="0.432002"/>
<line y1="0.216" y2="5.976" stroke-linecap="round" class="other" x1="15.8301" stroke="#000000" x2="17.6301" xmlns="http://www.w3.org/2000/svg" stroke-width="0.432002"/>
<line y1="5.976" y2="0.216" stroke-linecap="round" class="other" x1="17.6301" stroke="#000000" x2="19.4301" xmlns="http://www.w3.org/2000/svg" stroke-width="0.432002"/>
<line y1="0.216" y2="5.976" stroke-linecap="round" class="other" x1="19.4301" stroke="#000000" x2="21.2301" xmlns="http://www.w3.org/2000/svg" stroke-width="0.432002"/>
<line y1="5.976" y2="3.096" stroke-linecap="round" class="other" x1="21.2301" stroke="#000000" x2="21.9501" xmlns="http://www.w3.org/2000/svg" stroke-width="0.432002"/>
<line id="connector1pin" y1="3.096" y2="3.096" stroke-linecap="round" class="pin" x1="29.1502" stroke="#787878" x2="21.9501" xmlns="http://www.w3.org/2000/svg" connectorname="2" stroke-width="0.700001"/>
<g id="connector1terminal" width="0.000283466" class="terminal" stroke="none" xmlns="http://www.w3.org/2000/svg" height="0.000283465" fill="none" x="29.1502" y="3.096" stroke-width="0"/>
<text font-family="'Droid Sans'" class="text" stroke="none" font-size="2.50001" xmlns="http://www.w3.org/2000/svg" fill="#8c8c8c" text-anchor="middle" x="25.5501" y="2.046" stroke-width="0">2</text>
<line id="connector0pin" y1="3.096" y2="3.096" stroke-linecap="round" class="pin" x1="0.350001" stroke="#787878" x2="7.55002" xmlns="http://www.w3.org/2000/svg" connectorname="1" stroke-width="0.700001"/>
<g id="connector0terminal" width="0.000283466" class="terminal" stroke="none" xmlns="http://www.w3.org/2000/svg" height="0.000283465" fill="none" x="0.350001" y="3.096" stroke-width="0"/>
<text font-family="'Droid Sans'" class="text" stroke="none" font-size="2.50001" xmlns="http://www.w3.org/2000/svg" fill="#8c8c8c" text-anchor="middle" x="3.95001" y="2.046" stroke-width="0">1</text>
</g>
</g></g></g><g partID='68310'><g transform='translate(371.831,84.2805)' ><g id="schematic" xmlns="http://www.w3.org/2000/svg">
<rect id="connector0pin" width="4.063" xmlns="http://www.w3.org/2000/svg" height="0.677" fill="none" y="28.461"/>
<rect id="connector1pin" width="4.063" xmlns="http://www.w3.org/2000/svg" height="0.677" fill="none" y="14.062"/>
<rect id="connector2pin" width="4.063" xmlns="http://www.w3.org/2000/svg" height="0.677" fill="none" y="21.262"/>
<g id="connector0terminal" width="0.338" xmlns="http://www.w3.org/2000/svg" height="0.677" fill="none" y="28.461"/>
<g id="connector1terminal" width="0.338" xmlns="http://www.w3.org/2000/svg" height="0.677" fill="none" y="14.062"/>
<g id="connector2terminal" width="0.338" xmlns="http://www.w3.org/2000/svg" height="0.677" fill="none" y="21.262"/>
<g id="Diagram" xmlns="http://www.w3.org/2000/svg">
<rect width="28.8" stroke-linecap="round" stroke="#000000" xmlns="http://www.w3.org/2000/svg" height="28.8" fill="none" x="7.2" y="7.2" stroke-linejoin="round" stroke-width="0.9"/>
<line y1="28.8" y2="28.8" stroke-linecap="round" stroke="#787878" x1="7.2" x2="0" xmlns="http://www.w3.org/2000/svg" fill="none" stroke-linejoin="round" stroke-width="0.7"/>
<line y1="14.4" y2="14.4" stroke-linecap="round" stroke="#787878" x1="0" x2="7.2" xmlns="http://www.w3.org/2000/svg" fill="none" stroke-linejoin="round" stroke-width="0.7"/>
<line y1="21.6" y2="21.6" stroke-linecap="round" stroke="#787878" x1="0" x2="7.2" xmlns="http://www.w3.org/2000/svg" fill="none" stroke-linejoin="round" stroke-width="0.7"/>
<g xmlns="http://www.w3.org/2000/svg">
<path stroke-linecap="round" stroke="#000000" xmlns="http://www.w3.org/2000/svg" d="M46.091,15.05c-0.469,-1.065,-1.604,-1.63,-2.701,-1.424l0,0l-12.355,1.986l0.002,0.004c-0.513,0.071,-1.023,0.209,-1.521,0.427c-2.91,1.278,-4.233,4.675,-2.955,7.585c1.277,2.911,4.674,4.233,7.584,2.956c0.498,-0.219,0.944,-0.503,1.344,-0.832l0.002,0.004l9.823,-7.753l-0.001,-0.001C46.206,17.333,46.559,16.116,46.091,15.05z" fill="#FFFFFF" stroke-linejoin="round" stroke-width="0.9"/>
<circle cx="31.83" stroke-linecap="round" cy="21.313" stroke="#000000" r="3.301" xmlns="http://www.w3.org/2000/svg" fill="none" stroke-linejoin="round" stroke-width="0.9"/>
<circle cx="43.843" stroke-linecap="round" cy="16.037" stroke="#000000" r="1.051" xmlns="http://www.w3.org/2000/svg" fill="#FFFFFF" stroke-linejoin="round" stroke-width="0.9"/>
</g>
</g>
</g>
</g></g><g partID='67310'><g transform='translate(285.431,84.2805)' ><g id="schematic" xmlns="http://www.w3.org/2000/svg">
<rect id="connector0pin" width="4.063" xmlns="http://www.w3.org/2000/svg" height="0.677" fill="none" y="28.461"/>
<rect id="connector1pin" width="4.063" xmlns="http://www.w3.org/2000/svg" height="0.677" fill="none" y="14.062"/>
<rect id="connector2pin" width="4.063" xmlns="http://www.w3.org/2000/svg" height="0.677" fill="none" y="21.262"/>
<g id="connector0terminal" width="0.338" xmlns="http://www.w3.org/2000/svg" height="0.677" fill="none" y="28.461"/>
<g id="connector1terminal" width="0.338" xmlns="http://www.w3.org/2000/svg" height="0.677" fill="none" y="14.062"/>
<g id="connector2terminal" width="0.338" xmlns="http://www.w3.org/2000/svg" height="0.677" fill="none" y="21.262"/>
<g id="Diagram" xmlns="http://www.w3.org/2000/svg">
<rect width="28.8" stroke-linecap="round" stroke="#000000" xmlns="http://www.w3.org/2000/svg" height="28.8" fill="none" x="7.2" y="7.2" stroke-linejoin="round" stroke-width="0.9"/>
<line y1="28.8" y2="28.8" stroke-linecap="round" stroke="#787878" x1="7.2" x2="0" xmlns="http://www.w3.org/2000/svg" fill="none" stroke-linejoin="round" stroke-width="0.7"/>
<line y1="14.4" y2="14.4" stroke-linecap="round" stroke="#787878" x1="0" x2="7.2" xmlns="http://www.w3.org/2000/svg" fill="none" stroke-linejoin="round" stroke-width="0.7"/>
<line y1="21.6" y2="21.6" stroke-linecap="round" stroke="#787878" x1="0" x2="7.2" xmlns="http://www.w3.org/2000/svg" fill="none" stroke-linejoin="round" stroke-width="0.7"/>
<g xmlns="http://www.w3.org/2000/svg">
<path stroke-linecap="round" stroke="#000000" xmlns="http://www.w3.org/2000/svg" d="M46.091,15.05c-0.469,-1.065,-1.604,-1.63,-2.701,-1.424l0,0l-12.355,1.986l0.002,0.004c-0.513,0.071,-1.023,0.209,-1.521,0.427c-2.91,1.278,-4.233,4.675,-2.955,7.585c1.277,2.911,4.674,4.233,7.584,2.956c0.498,-0.219,0.944,-0.503,1.344,-0.832l0.002,0.004l9.823,-7.753l-0.001,-0.001C46.206,17.333,46.559,16.116,46.091,15.05z" fill="#FFFFFF" stroke-linejoin="round" stroke-width="0.9"/>
<circle cx="31.83" stroke-linecap="round" cy="21.313" stroke="#000000" r="3.301" xmlns="http://www.w3.org/2000/svg" fill="none" stroke-linejoin="round" stroke-width="0.9"/>
<circle cx="43.843" stroke-linecap="round" cy="16.037" stroke="#000000" r="1.051" xmlns="http://www.w3.org/2000/svg" fill="#FFFFFF" stroke-linejoin="round" stroke-width="0.9"/>
</g>
</g>
</g>
</g></g><g partID='79840'><g transform='translate(48.021,188.688)' ><g transform='matrix(-1,0,0,-1,0,0)'  ><g id="schematic" xmlns="http://www.w3.org/2000/svg">
<line id="connector0pin" y1="3.6" y2="3.6" stroke-linecap="round" stroke="#000000" x1="0.35" x2="7.346" xmlns="http://www.w3.org/2000/svg" fill="none" stroke-linejoin="round" stroke-width="0.7"/>
<g id="connector0terminal" width="0.546" xmlns="http://www.w3.org/2000/svg" height="0.208" fill="none" x="-0.252" y="3.504"/>
<polyline stroke-linecap="round" stroke="#000000" points="14.1,5.557,9.928,3.6,14.1,1.643" xmlns="http://www.w3.org/2000/svg" fill="none" stroke-linejoin="round" stroke-width="0.7"/>
<line id="line" y1="3.6" y2="3.6" stroke-linecap="round" stroke="#000000" x1="10.11" x2="4.804" xmlns="http://www.w3.org/2000/svg" fill="none" stroke-linejoin="round" stroke-width="0.7"/>
<text font-family="'Droid Sans'" class="text" stroke="none" font-size="2.5" xmlns="http://www.w3.org/2000/svg" fill="#8c8c8c" text-anchor="middle" x="5.05" y="2.58" stroke-width="0">1</text>
<line id="connector1pin" y1="10.8" y2="10.8" stroke-linecap="round" stroke="#000000" x1="0.35" x2="7.346" xmlns="http://www.w3.org/2000/svg" fill="none" stroke-linejoin="round" stroke-width="0.7"/>
<g id="connector1terminal" width="0.546" xmlns="http://www.w3.org/2000/svg" height="0.208" fill="none" x="-0.252" y="10.704"/>
<polyline stroke-linecap="round" stroke="#000000" points="14.1,12.757,9.928,10.8,14.1,8.843" xmlns="http://www.w3.org/2000/svg" fill="none" stroke-linejoin="round" stroke-width="0.7"/>
<line id="line" y1="10.8" y2="10.8" stroke-linecap="round" stroke="#000000" x1="10.11" x2="4.804" xmlns="http://www.w3.org/2000/svg" fill="none" stroke-linejoin="round" stroke-width="0.7"/>
<text font-family="'Droid Sans'" class="text" stroke="none" font-size="2.5" xmlns="http://www.w3.org/2000/svg" fill="#8c8c8c" text-anchor="middle" x="5.05" y="9.78" stroke-width="0">2</text>
</g>
</g></g></g><g partID='64720'><line stroke-linecap='round' stroke='#404040' x1='156' y1='249.88' x2='156' y2='271.48' stroke-width='0.699998' /></g><circle  fill="black" cx="156" cy="271.48" r="1.44" stroke-width="0" stroke="none" /><g partID='64840'><line stroke-linecap='round' stroke='#404040' x1='148.8' y1='55.48' x2='48' y2='55.4802' stroke-width='0.699998' /></g><circle  fill="black" cx="148.8" cy="55.48" r="1.44" stroke-width="0" stroke="none" /><g partID='64810'><line stroke-linecap='round' stroke='#404040' x1='148.8' y1='84.2801' x2='148.8' y2='55.48' stroke-width='0.699998' /></g><g partID='67340'><line stroke-linecap='round' stroke='#404040' x1='249.6' y1='55.48' x2='249.6' y2='55.48' stroke-width='0.699998' /></g><g partID='65940'><line stroke-linecap='round' stroke='#404040' x1='249.6' y1='55.48' x2='249.6' y2='177.879' stroke-width='0.699998' /></g><g partID='65870'><line stroke-linecap='round' stroke='#404040' x1='148.8' y1='55.48' x2='249.6' y2='55.48' stroke-width='0.699998' /></g><g partID='66790'><line stroke-linecap='round' stroke='#404040' x1='278.4' y1='228.28' x2='278.4' y2='235.48' stroke-width='0.699998' /></g><g partID='68140'><line stroke-linecap='round' stroke='#404040' x1='249.6' y1='271.48' x2='278.4' y2='271.48' stroke-width='0.699998' /></g><circle  fill="black" cx="249.6" cy="271.48" r="1.44" stroke-width="0" stroke="none" /><g partID='67150'><line stroke-linecap='round' stroke='#404040' x1='156' y1='271.48' x2='249.6' y2='271.48' stroke-width='0.699998' /></g><circle  fill="black" cx="156" cy="271.48" r="1.44" stroke-width="0" stroke="none" /><g partID='68050'><line stroke-linecap='round' stroke='#404040' x1='278.4' y1='271.48' x2='278.4' y2='264.28' stroke-width='0.699998' /></g><circle  fill="black" cx="278.4" cy="271.48" r="1.44" stroke-width="0" stroke="none" /><g partID='68200'><line stroke-linecap='round' stroke='#404040' x1='249.6' y1='271.48' x2='249.6' y2='264.28' stroke-width='0.699998' /></g><g partID='68500'><line stroke-linecap='round' stroke='#404040' x1='285.6' y1='55.48' x2='285.6' y2='98.681' stroke-width='0.699998' /></g><g partID='83420'><line stroke-linecap='round' stroke='#404040' x1='372' y1='98.68' x2='372' y2='98.681' stroke-width='0.699998' /></g><g partID='68840'><line stroke-linecap='round' stroke='#404040' x1='372' y1='55.4802' x2='372' y2='98.68' stroke-width='0.699998' /></g><g partID='71870'><line stroke-linecap='round' stroke='#404040' x1='285.6' y1='149.08' x2='285.6' y2='113.08' stroke-width='0.699998' /></g><g partID='71330'><line stroke-linecap='round' stroke='#404040' x1='321.6' y1='149.08' x2='285.6' y2='149.08' stroke-width='0.699998' /></g><circle  fill="black" cx="321.6" cy="149.08" r="1.44" stroke-width="0" stroke="none" /><g partID='69880'><line stroke-linecap='round' stroke='#404040' x1='321.6' y1='271.48' x2='321.6' y2='149.08' stroke-width='0.699998' /></g><g partID='69730'><line stroke-linecap='round' stroke='#404040' x1='278.4' y1='271.48' x2='321.6' y2='271.48' stroke-width='0.699998' /></g><g partID='71680'><line stroke-linecap='round' stroke='#404040' x1='372' y1='149.08' x2='372' y2='113.08' stroke-width='0.699998' /></g><g partID='71490'><line stroke-linecap='round' stroke='#404040' x1='321.6' y1='149.08' x2='372' y2='149.08' stroke-width='0.699998' /></g><g partID='72200'><line stroke-linecap='round' stroke='#404040' x1='220.8' y1='105.88' x2='285.6' y2='105.881' stroke-width='0.699998' /></g><g partID='72130'><line stroke-linecap='round' stroke='#404040' x1='220.8' y1='185.08' x2='220.8' y2='105.88' stroke-width='0.699998' /></g><g partID='72060'><line stroke-linecap='round' stroke='#404040' x1='206.4' y1='185.08' x2='220.8' y2='185.08' stroke-width='0.699998' /></g><g partID='72550'><line stroke-linecap='round' stroke='#404040' x1='228' y1='127.48' x2='350.4' y2='127.48' stroke-width='0.699998' /></g><g partID='72480'><line stroke-linecap='round' stroke='#404040' x1='350.4' y1='105.88' x2='372' y2='105.881' stroke-width='0.699998' /></g><g partID='72410'><line stroke-linecap='round' stroke='#404040' x1='350.4' y1='127.48' x2='350.4' y2='105.88' stroke-width='0.699998' /></g><g partID='72340'><line stroke-linecap='round' stroke='#404040' x1='228' y1='177.88' x2='228' y2='127.48' stroke-width='0.699998' /></g><g partID='72270'><line stroke-linecap='round' stroke='#404040' x1='206.4' y1='177.88' x2='228' y2='177.88' stroke-width='0.699998' /></g><g partID='72960'><line stroke-linecap='round' stroke='#404040' x1='235.2' y1='141.88' x2='235.2' y2='206.68' stroke-width='0.699998' /></g><g partID='72890'><line stroke-linecap='round' stroke='#404040' x1='235.2' y1='206.68' x2='249.6' y2='206.68' stroke-width='0.699998' /></g><circle  fill="black" cx="249.6" cy="206.68" r="1.44" stroke-width="0" stroke="none" /><g partID='72820'><line stroke-linecap='round' stroke='#404040' x1='206.4' y1='141.88' x2='235.2' y2='141.88' stroke-width='0.699998' /></g><g partID='73030'><line stroke-linecap='round' stroke='#404040' x1='249.6' y1='206.68' x2='249.6' y2='235.48' stroke-width='0.699998' /></g><circle  fill="black" cx="249.6" cy="206.68" r="1.44" stroke-width="0" stroke="none" /><g partID='79870'><line stroke-linecap='round' stroke='#404040' x1='98.4' y1='177.88' x2='48' y2='177.88' stroke-width='0.699998' /></g><g partID='79940'><line stroke-linecap='round' stroke='#404040' x1='98.4' y1='185.08' x2='48' y2='185.08' stroke-width='0.699998' /></g><g partID='80130'><line stroke-linecap='round' stroke='#404040' x1='249.6' y1='206.68' x2='278.4' y2='206.68' stroke-width='0.699998' /></g><g partID='61640' id='partLabel'><g transform='translate(206.4,78.6801)' ><g font-size='5' font-style='normal' font-weight='normal' fill='#000000' font-family="'DroidSans'" id='schematicLabel' fill-opacity='1' stroke='none' ><text x='0' y='3.75'>MCU</text></g></g></g><g partID='64520' id='partLabel'><g transform='translate(282.179,195.264)' ><g font-size='5' font-style='normal' font-weight='normal' fill='#000000' font-family="'DroidSans'" id='schematicLabel' fill-opacity='1' stroke='none' ><text x='0' y='3.75'>LED1</text><text x='0' y='8.75'>Red (633nm)</text></g></g></g><g partID='64980' id='partLabel'><g transform='translate(251.475,171.946)' ><g font-size='5' font-style='normal' font-weight='normal' fill='#000000' font-family="'DroidSans'" id='schematicLabel' fill-opacity='1' stroke='none' ><text x='0' y='3.75'>S1 / Magnetic sensor</text></g></g></g><g partID='65770' id='partLabel'><g transform='translate(233.704,222.33)' ><g font-size='5' font-style='normal' font-weight='normal' fill='#000000' font-family="'DroidSans'" id='schematicLabel' fill-opacity='1' stroke='none' ><text x='0' y='3.75'>R1</text><text x='0' y='8.75'>10k&#x3a9;</text></g></g></g><g partID='66770' id='partLabel'><g transform='translate(262.504,222.33)' ><g font-size='5' font-style='normal' font-weight='normal' fill='#000000' font-family="'DroidSans'" id='schematicLabel' fill-opacity='1' stroke='none' ><text x='0' y='3.75'>R2</text><text x='0' y='8.75'>330&#x3a9;</text></g></g></g><g partID='68310' id='partLabel'><g transform='translate(418.931,78.6805)' ><g font-size='5' font-style='normal' font-weight='normal' fill='#000000' font-family="'DroidSans'" id='schematicLabel' fill-opacity='1' stroke='none' ><text x='0' y='3.75'>J2 / Lock servo</text></g></g></g><g partID='67310' id='partLabel'><g transform='translate(332.531,78.6805)' ><g font-size='5' font-style='normal' font-weight='normal' fill='#000000' font-family="'DroidSans'" id='schematicLabel' fill-opacity='1' stroke='none' ><text x='0' y='3.75'>J1 / Door servo</text></g></g></g><g partID='79840' id='partLabel'><g transform='translate(52.821,188.688)' ><g transform='matrix(1,0,0,1,0,0)'  ><g font-size='5' font-style='normal' font-weight='normal' fill='#000000' font-family="'DroidSans'" id='schematicLabel' fill-opacity='1' stroke='none' ><text x='0' y='3.75'>J3 / i2c </text></g></g></g></g></svg>