<?xml version='1.0' encoding='UTF-8' standalone='no'?>
<!-- Created with Fritzing (http://www.fritzing.org/) -->
<svg xmlns:svg='http://www.w3.org/2000/svg' xmlns='http://www.w3.org/2000/svg' version='1.2' baseProfile='tiny' x='0in' y='0in' width='5.38264in' height='3.16394in' viewBox='0 0 387.55 227.803' >
<g partID='854215180'><g transform='translate(261.299,148.864)' ><g id="schematic">
<g>
<path d="M13.5,14.966L9.9,14.966c-0.193,0,-0.35,-0.156,-0.35,-0.35s0.156,-0.35,0.35,-0.35L13.5,14.266c0.193,0,0.35,0.156,0.35,0.35S13.694,14.966,13.5,14.966z"/>
</g>
<g>
<path d="M9.9,14.966L6.3,14.966c-0.193,0,-0.35,-0.156,-0.35,-0.35s0.157,-0.35,0.35,-0.35l3.6,0c0.193,0,0.35,0.156,0.35,0.35S10.093,14.966,9.9,14.966z"/>
</g>
<g>
<polygon fill="#FFFFFF" points="9.9,14.616,6.3,7.416,9.9,7.416,13.5,7.416"/>
<path d="M9.9,15.398L5.734,7.066l8.333,0L9.9,15.398zM6.866,7.766L9.9,13.834l3.034,-6.068L6.866,7.766z"/>
</g>
<g>
<path d="M9.9,14.841c-0.124,0,-0.225,-0.101,-0.225,-0.225l0,-7.2c0,-0.124,0.101,-0.225,0.225,-0.225s0.225,0.101,0.225,0.225l0,7.2C10.124,14.74,10.024,14.841,9.9,14.841z"/>
</g>
<g>
<path d="M1.8,12.141c-0.058,0,-0.115,-0.021,-0.159,-0.065c-0.088,-0.088,-0.088,-0.23,0,-0.318l2.34,-2.341c0.088,-0.088,0.23,-0.088,0.318,0s0.088,0.23,0,0.318l-2.34,2.341C1.915,12.12,1.858,12.141,1.8,12.141z"/>
</g>
<g>
<path d="M2.16,15.381c-0.058,0,-0.115,-0.021,-0.159,-0.065c-0.088,-0.088,-0.088,-0.23,0,-0.318l2.34,-2.34c0.088,-0.088,0.23,-0.088,0.318,0s0.088,0.23,0,0.318l-2.34,2.34C2.276,15.359,2.218,15.381,2.16,15.381z"/>
</g>
<g id="connector0pin">
<path fill="#787878" d="M9.9,22.166c-0.193,0,-0.35,-0.156,-0.35,-0.35l0,-7.2c0,-0.193,0.156,-0.35,0.35,-0.35s0.35,0.156,0.35,0.35l0,7.2C10.249,22.01,10.093,22.166,9.9,22.166z"/>
</g>
<g id="connector0terminal">
<rect height="0.001" fill="none" width="0.001" x="9.9" y="21.816"/>
</g>
<g transform="matrix(1, 0, 0, 1, 3.429, 6.4262)">
<g>
<g transform="rotate(270)">
<g>
<g enable-background="new    ">
<path fill="#787878" d="M-11.647,5.54l-0.891,0L-12.538,5.388l0.342,-0.372c0.049,-0.053,0.093,-0.101,0.131,-0.145s0.071,-0.086,0.099,-0.128c0.026,-0.042,0.047,-0.084,0.062,-0.125c0.015,-0.043,0.021,-0.088,0.021,-0.138c0,-0.038,-0.005,-0.072,-0.017,-0.102s-0.027,-0.054,-0.047,-0.075c-0.021,-0.02,-0.045,-0.035,-0.073,-0.046s-0.06,-0.016,-0.094,-0.016c-0.062,0,-0.118,0.013,-0.167,0.038c-0.051,0.024,-0.098,0.057,-0.143,0.096l-0.1,-0.116c0.025,-0.023,0.055,-0.046,0.084,-0.065c0.029,-0.021,0.063,-0.039,0.097,-0.054s0.071,-0.026,0.109,-0.036c0.038,-0.008,0.079,-0.013,0.121,-0.013c0.063,0,0.119,0.009,0.169,0.026c0.051,0.018,0.094,0.043,0.129,0.076c0.035,0.032,0.063,0.072,0.082,0.119c0.019,0.048,0.028,0.101,0.028,0.16c0,0.056,-0.009,0.108,-0.026,0.158c-0.017,0.05,-0.041,0.1,-0.07,0.148c-0.031,0.048,-0.066,0.097,-0.109,0.146c-0.041,0.049,-0.087,0.1,-0.136,0.152L-12.32,5.37l0,0.008l0.673,0L-11.647,5.54z"/>
</g>
</g>
</g>
</g>
</g>
<g id="connector1pin">
<path fill="#787878" d="M9.9,7.766c-0.193,0,-0.35,-0.157,-0.35,-0.35l0,-7.2c0,-0.193,0.156,-0.35,0.35,-0.35s0.35,0.157,0.35,0.35l0,7.2C10.249,7.609,10.093,7.766,9.9,7.766z"/>
</g>
<g id="connector1terminal">
<polygon fill="none" points="9.9,0.216,9.901,0.216,9.901,0.216"/>
</g>
<g transform="matrix(1, 0, 0, 1, 3.429, 1.3462)">
<g>
<g transform="rotate(270)">
<g>
<g enable-background="new    ">
<path fill="#787878" d="M-2.616,5.54l-0.172,0L-2.788,4.648c0,-0.028,0,-0.058,0,-0.09s0.001,-0.063,0.002,-0.095c0.001,-0.032,0.002,-0.063,0.003,-0.092c0.001,-0.028,0.002,-0.054,0.002,-0.076c-0.011,0.012,-0.021,0.021,-0.029,0.03s-0.017,0.017,-0.026,0.024s-0.018,0.016,-0.028,0.025c-0.01,0.008,-0.021,0.019,-0.035,0.03l-0.145,0.118l-0.094,-0.12l0.374,-0.292l0.146,0L-2.618,5.54z"/>
</g>
</g>
</g>
</g>
</g>
<g>
<path d="M0.18,13.536l1.08,-2.521l1.44,1.438L0.18,13.536z"/>
</g>
<g>
<path d="M0.54,16.776l1.08,-2.521l1.438,1.438L0.54,16.776z"/>
</g>
</g>
</g></g><g partID='854216330'><g transform='translate(274.296,170.33)' ><g transform='matrix(0,1,-1,0,0,0)'  ><g id="schematic" xmlns="http://www.w3.org/2000/svg">
<line stroke-linecap="round" y1="3.096" y2="0.216" class="other" x1="7.55002" x2="8.63003" stroke-width="0.432002" xmlns="http://www.w3.org/2000/svg" stroke="#000000"/>
<line stroke-linecap="round" y1="0.216" y2="5.976" class="other" x1="8.63003" x2="10.43" stroke-width="0.432002" xmlns="http://www.w3.org/2000/svg" stroke="#000000"/>
<line stroke-linecap="round" y1="5.976" y2="0.216" class="other" x1="10.43" x2="12.23" stroke-width="0.432002" xmlns="http://www.w3.org/2000/svg" stroke="#000000"/>
<line stroke-linecap="round" y1="0.216" y2="5.976" class="other" x1="12.23" x2="14.03" stroke-width="0.432002" xmlns="http://www.w3.org/2000/svg" stroke="#000000"/>
<line stroke-linecap="round" y1="5.976" y2="0.216" class="other" x1="14.03" x2="15.8301" stroke-width="0.432002" xmlns="http://www.w3.org/2000/svg" stroke="#000000"/>
<line stroke-linecap="round" y1="0.216" y2="5.976" class="other" x1="15.8301" x2="17.6301" stroke-width="0.432002" xmlns="http://www.w3.org/2000/svg" stroke="#000000"/>
<line stroke-linecap="round" y1="5.976" y2="0.216" class="other" x1="17.6301" x2="19.4301" stroke-width="0.432002" xmlns="http://www.w3.org/2000/svg" stroke="#000000"/>
<line stroke-linecap="round" y1="0.216" y2="5.976" class="other" x1="19.4301" x2="21.2301" stroke-width="0.432002" xmlns="http://www.w3.org/2000/svg" stroke="#000000"/>
<line stroke-linecap="round" y1="5.976" y2="3.096" class="other" x1="21.2301" x2="21.9501" stroke-width="0.432002" xmlns="http://www.w3.org/2000/svg" stroke="#000000"/>
<line stroke-linecap="round" connectorname="2" id="connector1pin" y1="3.096" y2="3.096" class="pin" x1="29.1502" x2="21.9501" stroke-width="0.700001" xmlns="http://www.w3.org/2000/svg" stroke="#787878"/>
<g height="0.000283465" id="connector1terminal" fill="none" width="0.000283466" x="29.1502" class="terminal" y="3.096" stroke-width="0" xmlns="http://www.w3.org/2000/svg" stroke="none"/>
<text font-family="'Droid Sans'" fill="#8c8c8c" x="25.5501" class="text" y="2.046" text-anchor="middle" stroke-width="0" xmlns="http://www.w3.org/2000/svg" stroke="none" font-size="2.50001">2</text>
<line stroke-linecap="round" connectorname="1" id="connector0pin" y1="3.096" y2="3.096" class="pin" x1="0.350001" x2="7.55002" stroke-width="0.700001" xmlns="http://www.w3.org/2000/svg" stroke="#787878"/>
<g height="0.000283465" id="connector0terminal" fill="none" width="0.000283466" x="0.350001" class="terminal" y="3.096" stroke-width="0" xmlns="http://www.w3.org/2000/svg" stroke="none"/>
<text font-family="'Droid Sans'" fill="#8c8c8c" x="3.95001" class="text" y="2.046" text-anchor="middle" stroke-width="0" xmlns="http://www.w3.org/2000/svg" stroke="none" font-size="2.50001">1</text>
</g>
</g></g></g><g partID='854200750'><g transform='translate(306.85,90.9035)' ><g id="schematic">
<rect height="43.199" fill="#FFFFFF" width="21.6" x="14.75" y="0.576"/>
<rect height="43.199" fill="#FFFFFF" width="21.6" x="14.75" y="0.576"/>
<rect height="43.199" fill="#FFFFFF" width="21.6" x="14.75" y="0.576"/>
<g transform="matrix(1, 0, 0, 1, 18.5647, 14.0002)">
<text font-family="'DroidSans'" id="label_3_" font-size="4.25">RF LINK</text>
</g>
<g transform="matrix(1, 0, 0, 1, 23.6921, 18.5334)">
<text font-family="'DroidSans'" id="label_4_" font-size="4.25">TX</text>
</g>
<line stroke-linecap="round" fill="none" y1="43.776" y2="43.776" x1="36.35" x2="14.75" stroke-width="0.9" stroke="#000000"/>
<line stroke-linecap="round" fill="none" y1="0.576" y2="43.776" x1="14.75" x2="14.75" stroke-width="0.9" stroke="#000000"/>
<line stroke-linecap="round" fill="none" y1="43.776" y2="0.576" x1="36.35" x2="36.35" stroke-width="0.9" stroke="#000000"/>
<line stroke-linecap="round" fill="none" y1="0.576" y2="0.576" x1="14.75" x2="36.35" stroke-width="0.9" stroke="#000000"/>
<line stroke-linecap="round" id="connector2pin" fill="none" y1="36.576" y2="36.576" x1="0.35" x2="14.75" stroke-width="0.75" stroke="#787878"/>
<g height="0" id="connector2terminal" fill="none" width="0" x="0.35" y="36.576"/>
<g transform="matrix(1, 0, 0, 1, 6.8616, 35.5256)">
<text font-family="'DroidSans'" fill="#8C8C8C" font-size="2.5">3</text>
</g>
<g transform="matrix(1, 0, 0, 1, 16.8499, 37.2756)">
<text font-family="'DroidSans'" fill="#787878" font-size="3.5">GND</text>
</g>
<line stroke-linecap="round" id="connector1pin" fill="none" y1="22.176" y2="22.176" x1="0.35" x2="14.75" stroke-width="0.75" stroke="#787878"/>
<g height="0" id="connector1terminal" fill="none" width="0" x="0.35" y="22.176"/>
<g transform="matrix(1, 0, 0, 1, 6.8616, 21.1252)">
<text font-family="'DroidSans'" fill="#8C8C8C" font-size="2.5">2</text>
</g>
<g transform="matrix(1, 0, 0, 1, 16.8499, 22.8752)">
<text font-family="'DroidSans'" fill="#787878" font-size="3.5">DATA</text>
</g>
<line stroke-linecap="round" id="connector0pin" fill="none" y1="7.776" y2="7.776" x1="50.75" x2="36.35" stroke-width="0.75" stroke="#787878"/>
<g height="0.001" id="connector0terminal" fill="none" width="0" x="50.75" y="7.776"/>
<g transform="matrix(1, 0, 0, 1, 42.8616, 6.7249)">
<text font-family="'DroidSans'" fill="#8C8C8C" font-size="2.5">1</text>
</g>
<g transform="matrix(1, 0, 0, 1, 27.7542, 8.4749)">
<text font-family="'DroidSans'" fill="#787878" font-size="3.5">ANT</text>
</g>
<line stroke-linecap="round" id="connector3pin" fill="none" y1="7.776" y2="7.776" x1="0.35" x2="14.75" stroke-width="0.75" stroke="#787878"/>
<g height="0.001" id="connector3terminal" fill="none" width="0" x="0.35" y="7.776"/>
<g transform="matrix(1, 0, 0, 1, 6.8616, 6.7249)">
<text font-family="'DroidSans'" fill="#8C8C8C" font-size="2.5">4</text>
</g>
<g transform="matrix(1, 0, 0, 1, 16.8499, 8.4749)">
<text font-family="'DroidSans'" fill="#787878" font-size="3.5">+5V</text>
</g>
</g>
</g></g><g partID='854205740'><g transform='translate(62.4001,149.08)' ><g gorn="0.0" id="schematic">
<rect stroke-linecap="round" height="35.1" fill="#FFFFFF" width="27.9" x="14.85" y="14.85" class="interior rect" stroke-width="0.9" stroke="#000000"/>
<line stroke-linecap="round" gorn="0.0.1" id="connector9" fill="none" y1="28.8" y2="28.8" class="pin" x1="42.8499" x2="57.2499" stroke-width="0.699999" stroke="#787878"/>
<text font-family="'Droid Sans'" fill="#8c8c8c" x="41.4499" y="29.4999" class="text" text-anchor="end" stroke-width="0" stroke="none" font-size="3.49999">SCL</text>
<g gorn="0.0.3" height="0.699999" id="connector9terminal" fill="none" width="0.699999" x="57.2499" y="28.4499" class="terminal" stroke-width="0" stroke="none"/>
<line stroke-linecap="round" gorn="0.0.4" id="connector10" fill="none" y1="36" y2="36" class="pin" x1="42.8499" x2="57.2499" stroke-width="0.699999" stroke="#787878"/>
<text font-family="'Droid Sans'" fill="#8c8c8c" x="41.4499" y="36.6999" class="text" text-anchor="end" stroke-width="0" stroke="none" font-size="3.49999">SDA</text>
<g gorn="0.0.6" height="0.699999" id="connector10terminal" fill="none" width="0.699999" x="57.2499" y="35.6499" class="terminal" stroke-width="0" stroke="none"/>
<line stroke-linecap="round" gorn="0.0.7" id="connector7" fill="none" y1="28.8" y2="28.8" class="pin" x1="0.349999" x2="14.75" stroke-width="0.699999" stroke="#787878"/>
<text font-family="'Droid Sans'" fill="#8c8c8c" x="16.15" y="29.4999" class="text" text-anchor="start" stroke-width="0" stroke="none" font-size="3.49999">ADDR</text>
<g gorn="0.0.9" height="0.699999" id="connector7terminal" fill="none" width="0.699999" x="-0.349999" y="28.4499" class="terminal" stroke-width="0" stroke="none"/>
<line stroke-linecap="round" gorn="0.0.10" id="connector8" fill="none" y1="36" y2="36" class="pin" x1="0.349999" x2="14.75" stroke-width="0.699999" stroke="#787878"/>
<text font-family="'Droid Sans'" fill="#8c8c8c" x="16.15" y="36.6999" class="text" text-anchor="start" stroke-width="0" stroke="none" font-size="3.49999">INT</text>
<g gorn="0.0.12" height="0.699999" id="connector8terminal" fill="none" width="0.699999" x="-0.349999" y="35.6499" class="terminal" stroke-width="0" stroke="none"/>
<line stroke-linecap="round" gorn="0.0.13" id="connector6" fill="none" y1="50.0499" y2="64.4499" class="pin" x1="28.8" x2="28.8" stroke-width="0.699999" stroke="#787878"/>
<g transform="matrix(1, 0, 0, 1, 29.4999, 48.6499)">
<g>
<g>
<g transform="rotate(270)">
<g>
<g>
<text font-family="'Droid Sans'" fill="#8c8c8c" x="0" y="0" class="text" text-anchor="start" stroke-width="0" stroke="none" font-size="3.49999">GND</text>
</g>
</g>
</g>
</g>
</g>
</g>
<g gorn="0.0.15" height="0.699999" id="connector6terminal" fill="none" width="0.699999" x="28.4499" y="64.4499" class="terminal" stroke-width="0" stroke="none"/>
<line stroke-linecap="round" gorn="0.0.16" id="connector11" fill="none" y1="0.349999" y2="14.75" class="pin" x1="28.8" x2="28.8" stroke-width="0.699999" stroke="#787878"/>
<g transform="matrix(1, 0, 0, 1, 29.4999, 16.15)">
<g>
<g>
<g transform="rotate(270)">
<g>
<g>
<text font-family="'Droid Sans'" fill="#8c8c8c" x="0" y="0" class="text" text-anchor="end" stroke-width="0" stroke="none" font-size="3.49999">Vcc</text>
</g>
</g>
</g>
</g>
</g>
</g>
<g gorn="0.0.18" height="0.699999" id="connector11terminal" fill="none" width="0.699999" x="28.4499" y="-0.349999" class="terminal" stroke-width="0" stroke="none"/>
</g>
</g></g><g partID='854206480'><g transform='translate(170.4,33.88)' ><g id="schematic">
<rect stroke-linecap="round" height="108" fill="none" width="64.35" stroke-linejoin="round" x="14.4" y="14.4" stroke-width="0.9" stroke="#000000"/>
<text font-family="'Droid Sans'" id="label" x="46.8" y="57.8" text-anchor="middle" font-size="3.5">Pro</text>
<text font-family="'Droid Sans'" id="label" x="46.8" y="61.3" text-anchor="middle" font-size="3.5">Trinket</text>
<text font-family="'Droid Sans'" id="label" x="46.8" y="64.8" text-anchor="middle" font-size="3.5">3.3V</text>
<line stroke-linecap="round" fill="none" y1="28.8" stroke-linejoin="round" y2="28.8" x1="0.349999" x2="14.4" stroke-width="0.699998" stroke="#787878"/>
<rect connectorName="A0" height="0.699998" id="connector93pin" fill="none" width="14.4" y="28.45" stroke-width="0"/>
<g height="0.699998" id="connector93terminal" fill="none" width="0" y="28.45" stroke-width="0"/>
<text font-family="'Droid Sans'" id="label93" fill="#8c8c8c" x="15.8" y="29.5" text-anchor="start" font-size="3.5">A0</text>
<line stroke-linecap="round" fill="none" y1="36" stroke-linejoin="round" y2="36" x1="0.349999" x2="14.4" stroke-width="0.699998" stroke="#787878"/>
<rect connectorName="A1" height="0.699998" id="connector94pin" fill="none" width="14.4" y="35.65" stroke-width="0"/>
<g height="0.699998" id="connector94terminal" fill="none" width="0" y="35.65" stroke-width="0"/>
<text font-family="'Droid Sans'" id="label94" fill="#8c8c8c" x="15.8" y="36.7" text-anchor="start" font-size="3.5">A1</text>
<line stroke-linecap="round" fill="none" y1="43.2" stroke-linejoin="round" y2="43.2" x1="0.349999" x2="14.4" stroke-width="0.699998" stroke="#787878"/>
<rect connectorName="A2" height="0.699998" id="connector95pin" fill="none" width="14.4" y="42.85" stroke-width="0"/>
<g height="0.699998" id="connector95terminal" fill="none" width="0" y="42.85" stroke-width="0"/>
<text font-family="'Droid Sans'" id="label95" fill="#8c8c8c" x="15.8" y="43.9" text-anchor="start" font-size="3.5">A2</text>
<line stroke-linecap="round" fill="none" y1="50.4" stroke-linejoin="round" y2="50.4" x1="0.349999" x2="14.4" stroke-width="0.699998" stroke="#787878"/>
<rect connectorName="A3" height="0.699998" id="connector96pin" fill="none" width="14.4" y="50.05" stroke-width="0"/>
<g height="0.699998" id="connector96terminal" fill="none" width="0" y="50.05" stroke-width="0"/>
<text font-family="'Droid Sans'" id="label96" fill="#8c8c8c" x="15.8" y="51.1" text-anchor="start" font-size="3.5">A3</text>
<line stroke-linecap="round" fill="none" y1="57.6" stroke-linejoin="round" y2="57.6" x1="0.349999" x2="14.4" stroke-width="0.699998" stroke="#787878"/>
<rect connectorName="A4" height="0.699998" id="connector97pin" fill="none" width="14.4" y="57.25" stroke-width="0"/>
<g height="0.699998" id="connector97terminal" fill="none" width="0" y="57.25" stroke-width="0"/>
<text font-family="'Droid Sans'" id="label97" fill="#8c8c8c" x="15.8" y="58.3" text-anchor="start" font-size="3.5">A4</text>
<line stroke-linecap="round" fill="none" y1="64.8" stroke-linejoin="round" y2="64.8" x1="0.349999" x2="14.4" stroke-width="0.699998" stroke="#787878"/>
<rect connectorName="A5" height="0.699998" id="connector98pin" fill="none" width="14.4" y="64.45" stroke-width="0"/>
<g height="0.699998" id="connector98terminal" fill="none" width="0" y="64.45" stroke-width="0"/>
<text font-family="'Droid Sans'" id="label98" fill="#8c8c8c" x="15.8" y="65.5" text-anchor="start" font-size="3.5">A5</text>
<line stroke-linecap="round" fill="none" y1="72" stroke-linejoin="round" y2="72" x1="0.349999" x2="14.4" stroke-width="0.699998" stroke="#787878"/>
<rect connectorName="A6" height="0.699998" id="connector85pin" fill="none" width="14.4" y="71.65" stroke-width="0"/>
<g height="0.699998" id="connector85terminal" fill="none" width="0" y="71.65" stroke-width="0"/>
<text font-family="'Droid Sans'" id="label85" fill="#8c8c8c" x="15.8" y="72.6998" text-anchor="start" font-size="3.5">A6</text>
<line stroke-linecap="round" fill="none" y1="79.2" stroke-linejoin="round" y2="79.2" x1="0.349999" x2="14.4" stroke-width="0.699998" stroke="#787878"/>
<rect connectorName="A7" height="0.699998" id="connector86pin" fill="none" width="14.4" y="78.8501" stroke-width="0"/>
<g height="0.699998" id="connector86terminal" fill="none" width="0" y="78.8501" stroke-width="0"/>
<text font-family="'Droid Sans'" id="label86" fill="#8c8c8c" x="15.8" y="79.8998" text-anchor="start" font-size="3.5">A7</text>
<line stroke-linecap="round" fill="none" y1="86.4" stroke-linejoin="round" y2="86.4" x1="0.349999" x2="14.4" stroke-width="0.699998" stroke="#787878"/>
<rect connectorName="AREF" height="0.699998" id="connector92pin" fill="none" width="14.4" y="86.0501" stroke-width="0"/>
<g height="0.699998" id="connector92terminal" fill="none" width="0" y="86.0501" stroke-width="0"/>
<text font-family="'Droid Sans'" id="label92" fill="#8c8c8c" x="15.8" y="87.0998" text-anchor="start" font-size="3.5">AREF</text>
<line stroke-linecap="round" fill="none" y1="93.6" stroke-linejoin="round" y2="93.6" x1="0.349999" x2="14.4" stroke-width="0.699998" stroke="#787878"/>
<rect connectorName="RESET" height="0.699998" id="connector84pin" fill="none" width="14.4" y="93.2501" stroke-width="0"/>
<g height="0.699998" id="connector84terminal" fill="none" width="0" y="93.2501" stroke-width="0"/>
<text font-family="'Droid Sans'" id="label84" fill="#8c8c8c" x="15.8" y="94.2998" text-anchor="start" font-size="3.5">RESET</text>
<line stroke-linecap="round" fill="none" y1="100.8" stroke-linejoin="round" y2="100.8" x1="0.349999" x2="14.4" stroke-width="0.699998" stroke="#787878"/>
<rect connectorName="DTR/RTS" height="0.699998" id="connector34pin" fill="none" width="14.4" y="100.45" stroke-width="0"/>
<g height="0.699998" id="connector34terminal" fill="none" width="0" y="100.45" stroke-width="0"/>
<text font-family="'Droid Sans'" id="label34" fill="#8c8c8c" x="15.8" y="101.5" text-anchor="start" font-size="3.5">DTR/RTS</text>
<line stroke-linecap="round" fill="none" y1="28.8" stroke-linejoin="round" y2="28.8" x1="78.8501" x2="93.2501" stroke-width="0.699998" stroke="#787878"/>
<rect height="0.699998" connectorname="RXD" id="connector32pin" fill="none" width="14.4" x="79.2" y="28.45" stroke-width="0"/>
<g height="0.699998" id="connector32terminal" fill="none" width="0" x="93.6" y="28.45" stroke-width="0"/>
<text font-family="'Droid Sans'" id="label32" fill="#8c8c8c" x="77.8003" y="29.5" text-anchor="end" font-size="3.5">RXD</text>
<line stroke-linecap="round" fill="none" y1="36" stroke-linejoin="round" y2="36" x1="78.8501" x2="93.2501" stroke-width="0.699998" stroke="#787878"/>
<rect height="0.699998" connectorname="TXD" id="connector33pin" fill="none" width="14.4" x="79.2" y="35.65" stroke-width="0"/>
<g height="0.699998" id="connector33terminal" fill="none" width="0" x="93.6" y="35.65" stroke-width="0"/>
<text font-family="'Droid Sans'" id="label33" fill="#8c8c8c" x="77.8003" y="36.7" text-anchor="end" font-size="3.5">TXD</text>
<line stroke-linecap="round" fill="none" y1="43.2" stroke-linejoin="round" y2="43.2" x1="78.8501" x2="93.2501" stroke-width="0.699998" stroke="#787878"/>
<rect height="0.699998" connectorname="D3" id="connector81pin" fill="none" width="14.4" x="79.2" y="42.85" stroke-width="0"/>
<g height="0.699998" id="connector81terminal" fill="none" width="0" x="93.6" y="42.85" stroke-width="0"/>
<text font-family="'Droid Sans'" id="label81" fill="#8c8c8c" x="77.8003" y="43.9" text-anchor="end" font-size="3.5">D3</text>
<line stroke-linecap="round" fill="none" y1="50.4" stroke-linejoin="round" y2="50.4" x1="78.8501" x2="93.2501" stroke-width="0.699998" stroke="#787878"/>
<rect height="0.699998" connectorname="D4" id="connector80pin" fill="none" width="14.4" x="79.2" y="50.05" stroke-width="0"/>
<g height="0.699998" id="connector80terminal" fill="none" width="0" x="93.6" y="50.05" stroke-width="0"/>
<text font-family="'Droid Sans'" id="label80" fill="#8c8c8c" x="77.8003" y="51.1" text-anchor="end" font-size="3.5">D4</text>
<line stroke-linecap="round" fill="none" y1="57.6" stroke-linejoin="round" y2="57.6" x1="78.8501" x2="93.2501" stroke-width="0.699998" stroke="#787878"/>
<rect height="0.699998" connectorname="D5" id="connector79pin" fill="none" width="14.4" x="79.2" y="57.25" stroke-width="0"/>
<g height="0.699998" id="connector79terminal" fill="none" width="0" x="93.6" y="57.25" stroke-width="0"/>
<text font-family="'Droid Sans'" id="label79" fill="#8c8c8c" x="77.8003" y="58.3" text-anchor="end" font-size="3.5">D5</text>
<line stroke-linecap="round" fill="none" y1="64.8" stroke-linejoin="round" y2="64.8" x1="78.8501" x2="93.2501" stroke-width="0.699998" stroke="#787878"/>
<rect height="0.699998" connectorname="D6" id="connector78pin" fill="none" width="14.4" x="79.2" y="64.45" stroke-width="0"/>
<g height="0.699998" id="connector78terminal" fill="none" width="0" x="93.6" y="64.45" stroke-width="0"/>
<text font-family="'Droid Sans'" id="label78" fill="#8c8c8c" x="77.8003" y="65.5" text-anchor="end" font-size="3.5">D6</text>
<line stroke-linecap="round" fill="none" y1="72" stroke-linejoin="round" y2="72" x1="78.8501" x2="93.2501" stroke-width="0.699998" stroke="#787878"/>
<rect height="0.699998" connectorname="D8" id="connector77pin" fill="none" width="14.4" x="79.2" y="71.65" stroke-width="0"/>
<g height="0.699998" id="connector77terminal" fill="none" width="0" x="93.6" y="71.65" stroke-width="0"/>
<text font-family="'Droid Sans'" id="label77" fill="#8c8c8c" x="77.8003" y="72.6998" text-anchor="end" font-size="3.5">D8</text>
<line stroke-linecap="round" fill="none" y1="79.2" stroke-linejoin="round" y2="79.2" x1="78.8501" x2="93.2501" stroke-width="0.699998" stroke="#787878"/>
<rect height="0.699998" connectorname="D9" id="connector87pin" fill="none" width="14.4" x="79.2" y="78.8501" stroke-width="0"/>
<g height="0.699998" id="connector87terminal" fill="none" width="0" x="93.6" y="78.8501" stroke-width="0"/>
<text font-family="'Droid Sans'" id="label87" fill="#8c8c8c" x="77.8003" y="79.8998" text-anchor="end" font-size="3.5">D9</text>
<line stroke-linecap="round" fill="none" y1="86.4" stroke-linejoin="round" y2="86.4" x1="78.8501" x2="93.2501" stroke-width="0.699998" stroke="#787878"/>
<rect height="0.699998" connectorname="D10" id="connector88pin" fill="none" width="14.4" x="79.2" y="86.0501" stroke-width="0"/>
<g height="0.699998" id="connector88terminal" fill="none" width="0" x="93.6" y="86.0501" stroke-width="0"/>
<text font-family="'Droid Sans'" id="label88" fill="#8c8c8c" x="77.8003" y="87.0998" text-anchor="end" font-size="3.5">D10</text>
<line stroke-linecap="round" fill="none" y1="93.6" stroke-linejoin="round" y2="93.6" x1="78.8501" x2="93.2501" stroke-width="0.699998" stroke="#787878"/>
<rect height="0.699998" connectorname="D11" id="connector89pin" fill="none" width="14.4" x="79.2" y="93.2501" stroke-width="0"/>
<g height="0.699998" id="connector89terminal" fill="none" width="0" x="93.6" y="93.2501" stroke-width="0"/>
<text font-family="'Droid Sans'" id="label89" fill="#8c8c8c" x="77.8003" y="94.2998" text-anchor="end" font-size="3.5">D11</text>
<line stroke-linecap="round" fill="none" y1="100.8" stroke-linejoin="round" y2="100.8" x1="78.8501" x2="93.2501" stroke-width="0.699998" stroke="#787878"/>
<rect height="0.699998" connectorname="D12" id="connector90pin" fill="none" width="14.4" x="79.2" y="100.45" stroke-width="0"/>
<g height="0.699998" id="connector90terminal" fill="none" width="0" x="93.6" y="100.45" stroke-width="0"/>
<text font-family="'Droid Sans'" id="label90" fill="#8c8c8c" x="77.8003" y="101.5" text-anchor="end" font-size="3.5">D12</text>
<line stroke-linecap="round" fill="none" y1="108" stroke-linejoin="round" y2="108" x1="78.8501" x2="93.2501" stroke-width="0.699998" stroke="#787878"/>
<rect height="0.699998" connectorname="D13" id="connector91pin" fill="none" width="14.4" x="79.2" y="107.65" stroke-width="0"/>
<g height="0.699998" id="connector91terminal" fill="none" width="0" x="93.6" y="107.65" stroke-width="0"/>
<text font-family="'Droid Sans'" id="label91" fill="#8c8c8c" x="77.8003" y="108.7" text-anchor="end" font-size="3.5">D13</text>
<line stroke-linecap="round" fill="none" y1="0.349999" stroke-linejoin="round" y2="14.4" x1="36" x2="36" stroke-width="0.699998" stroke="#787878"/>
<rect height="14.4" connectorname="VBAT" id="connector73pin" fill="none" width="0.699998" x="35.65" stroke-width="0"/>
<g height="0" id="connector73terminal" fill="none" width="0.699998" x="35.65" stroke-width="0"/>
<g transform="matrix(0, -1, 1, 0, 37.4, 16)">
<text font-family="'Droid Sans'" id="label73" fill="#8c8c8c" x="0" y="0" text-anchor="end" font-size="3.5">VBAT</text>
</g>
<line stroke-linecap="round" fill="none" y1="0.349999" stroke-linejoin="round" y2="14.4" x1="43.2" x2="43.2" stroke-width="0.699998" stroke="#787878"/>
<rect height="14.4" connectorname="+3V3" id="connector76pin" fill="none" width="0.699998" x="42.85" stroke-width="0"/>
<g height="0" id="connector76terminal" fill="none" width="0.699998" x="42.85" stroke-width="0"/>
<g transform="matrix(0, -1, 1, 0, 44.6, 16)">
<text font-family="'Droid Sans'" id="label76" fill="#8c8c8c" x="0" y="0" text-anchor="end" font-size="3.5">+3V3</text>
</g>
<line stroke-linecap="round" fill="none" y1="0.349999" stroke-linejoin="round" y2="14.4" x1="50.4" x2="50.4" stroke-width="0.699998" stroke="#787878"/>
<rect height="14.4" connectorname="VBUS" id="connector31pin" fill="none" width="0.699998" x="50.05" stroke-width="0"/>
<g height="0" id="connector31terminal" fill="none" width="0.699998" x="50.05" stroke-width="0"/>
<g transform="matrix(0, -1, 1, 0, 51.8, 16)">
<text font-family="'Droid Sans'" id="label31" fill="#8c8c8c" x="0" y="0" text-anchor="end" font-size="3.5">VBUS</text>
</g>
<line stroke-linecap="round" fill="none" y1="122.4" stroke-linejoin="round" y2="136.45" x1="43.2" x2="43.2" stroke-width="0.699998" stroke="#787878"/>
<rect height="14.4" connectorname="GND" id="connector29pin" fill="none" width="0.699998" x="42.85" y="122.4" stroke-width="0"/>
<g height="0" id="connector29terminal" fill="none" width="0.699998" x="42.85" y="136.8" stroke-width="0"/>
<g transform="matrix(0, -1, 1, 0, 44.6, 120.8)">
<text font-family="'Droid Sans'" id="label29" fill="#8c8c8c" x="0" y="0" font-size="3.5">GND</text>
</g>
<rect height="14.4" connectorname="VBUS" id="connector75pin" fill="none" width="0.699998" x="50.05" stroke-width="0"/>
<g height="0" id="connector75terminal" fill="none" width="0.699998" x="50.05" stroke-width="0"/>
<rect height="14.4" connectorname="GND" id="connector74pin" fill="none" width="0.699998" x="42.85" y="122.4" stroke-width="0"/>
<g height="0" id="connector74terminal" fill="none" width="0.699998" x="42.85" y="136.8" stroke-width="0"/>
<rect height="14.4" connectorname="GND" id="connector30pin" fill="none" width="0.699998" x="42.85" y="122.4" stroke-width="0"/>
<g height="0" id="connector30terminal" fill="none" width="0.699998" x="42.85" y="136.8" stroke-width="0"/>
<rect height="0.699998" connectorname="TXD" id="connector82pin" fill="none" width="14.4" x="79.2" y="35.65" stroke-width="0"/>
<g height="0.699998" id="connector82terminal" fill="none" width="0" x="93.6" y="35.65" stroke-width="0"/>
<rect height="0.699998" connectorname="RXD" id="connector83pin" fill="none" width="14.4" x="79.2" y="28.45" stroke-width="0"/>
<g height="0.699998" id="connector83terminal" fill="none" width="0" x="93.6" y="28.45" stroke-width="0"/>
</g>
</g></g><g partID='854207570'><g transform='translate(84.0185,135.107)' ><g id="schematic">
<line stroke-linecap="round" id="connector0pin" fill="none" y1="6.78" y2="13.98" x1="7.2" x2="7.2" stroke-width="0.75" stroke-miterlimit="10" stroke="#787878"/>
<g id="connector0terminal" fill="none" points="6.817,13.567,7.546,13.546,7.546,14.4,6.859,14.359"/>
<path stroke-linecap="round" fill="none" d="M0.45,6.564l13.5,0" stroke-width="0.9" stroke="#000000"/>
<g transform="matrix(1, 0, 0, 1, 1.4985, 4.9878)">
<text font-family="'DroidSans'" id="label" font-size="4.4991">5V</text>
</g>
</g>
</g></g><g partID='854206630'><g transform='translate(300.018,41.5072)' ><g id="schematic">
<line stroke-linecap="round" id="connector0pin" fill="none" y1="6.78" y2="13.98" x1="7.2" x2="7.2" stroke-width="0.75" stroke-miterlimit="10" stroke="#787878"/>
<g id="connector0terminal" fill="none" points="6.817,13.567,7.546,13.546,7.546,14.4,6.859,14.359"/>
<path stroke-linecap="round" fill="none" d="M0.45,6.564l13.5,0" stroke-width="0.9" stroke="#000000"/>
<g transform="matrix(1, 0, 0, 1, 1.4985, 4.9878)">
<text font-family="'DroidSans'" id="label" font-size="4.4991">5V</text>
</g>
</g>
</g></g><g partID='64550'><g transform='translate(206.419,19.907)' ><g id="schematic">
<line stroke-linecap="round" id="connector0pin" fill="none" y1="6.78" y2="13.98" x1="7.2" x2="7.2" stroke-width="0.75" stroke-miterlimit="10" stroke="#787878"/>
<g id="connector0terminal" fill="none" points="6.817,13.567,7.546,13.546,7.546,14.4,6.859,14.359"/>
<path stroke-linecap="round" fill="none" d="M0.45,6.564l13.5,0" stroke-width="0.9" stroke="#000000"/>
<g transform="matrix(1, 0, 0, 1, 1.4985, 4.9878)">
<text font-family="'DroidSans'" id="label" font-size="4.4991">3.3V</text>
</g>
</g>
</g></g><g partID='64600'><g transform='translate(206.399,213.403)' ><g id="schematic" xmlns="http://www.w3.org/2000/svg">
<path stroke-linecap="round" id="connector0pin" fill="none" d="M7.201,7.575l0,-7.2" stroke-width="0.75" xmlns="http://www.w3.org/2000/svg" stroke="#787878"/>
<g height="0.953" id="connector0terminal" fill="none" width="0.945" x="6.728" y="0" xmlns="http://www.w3.org/2000/svg"/>
<path stroke-linecap="round" id="path4098" fill="none" d="M0.5,7.711L13.9,7.711" stroke-width="0.9" xmlns="http://www.w3.org/2000/svg" stroke="#000000"/>
<path stroke-linecap="round" id="path4100" fill="none" d="M2.732,10.456l8.935,0" stroke-width="0.9" xmlns="http://www.w3.org/2000/svg" stroke="#000000"/>
<path stroke-linecap="round" id="path4102" fill="none" d="M9.431,13.175L4.967,13.175" stroke-width="0.9" xmlns="http://www.w3.org/2000/svg" stroke="#000000"/>
</g>
</g></g><g partID='854198500'><g transform='translate(141.621,102.288)' ><g transform='matrix(-1,0,0,-1,0,0)'  ><g id="schematic" xmlns="http://www.w3.org/2000/svg">
<line stroke-linecap="round" id="connector0pin" fill="none" y1="3.6" stroke-linejoin="round" y2="3.6" x1="0.35" x2="7.346" stroke-width="0.7" xmlns="http://www.w3.org/2000/svg" stroke="#000000"/>
<g height="0.208" id="connector0terminal" fill="none" width="0.546" x="-0.252" y="3.504" xmlns="http://www.w3.org/2000/svg"/>
<polyline stroke-linecap="round" fill="none" stroke-linejoin="round" stroke-width="0.7" xmlns="http://www.w3.org/2000/svg" stroke="#000000" points="14.1,5.557,9.928,3.6,14.1,1.643"/>
<line stroke-linecap="round" id="line" fill="none" y1="3.6" stroke-linejoin="round" y2="3.6" x1="10.11" x2="4.804" stroke-width="0.7" xmlns="http://www.w3.org/2000/svg" stroke="#000000"/>
<text font-family="'Droid Sans'" fill="#8c8c8c" x="5.05" class="text" y="2.58" text-anchor="middle" stroke-width="0" xmlns="http://www.w3.org/2000/svg" stroke="none" font-size="2.5">1</text>
<line stroke-linecap="round" id="connector1pin" fill="none" y1="10.8" stroke-linejoin="round" y2="10.8" x1="0.35" x2="7.346" stroke-width="0.7" xmlns="http://www.w3.org/2000/svg" stroke="#000000"/>
<g height="0.208" id="connector1terminal" fill="none" width="0.546" x="-0.252" y="10.704" xmlns="http://www.w3.org/2000/svg"/>
<polyline stroke-linecap="round" fill="none" stroke-linejoin="round" stroke-width="0.7" xmlns="http://www.w3.org/2000/svg" stroke="#000000" points="14.1,12.757,9.928,10.8,14.1,8.843"/>
<line stroke-linecap="round" id="line" fill="none" y1="10.8" stroke-linejoin="round" y2="10.8" x1="10.11" x2="4.804" stroke-width="0.7" xmlns="http://www.w3.org/2000/svg" stroke="#000000"/>
<text font-family="'Droid Sans'" fill="#8c8c8c" x="5.05" class="text" y="9.78" text-anchor="middle" stroke-width="0" xmlns="http://www.w3.org/2000/svg" stroke="none" font-size="2.5">2</text>
</g>
</g></g></g><g partID='854215280'><line stroke-linecap='round' stroke='#404040' x1='271.143' y1='127.48' x2='264' y2='127.48' stroke-width='0.699998' /></g><g partID='854215210'><line stroke-linecap='round' stroke='#404040' x1='271.2' y1='149.08' x2='271.143' y2='127.48' stroke-width='0.699998' /></g><g partID='854216360'><line stroke-linecap='round' stroke='#404040' x1='271.2' y1='170.68' x2='271.2' y2='170.68' stroke-width='0.699998' /></g><g partID='854216530'><line stroke-linecap='round' stroke='#404040' x1='271.2' y1='213.88' x2='271.2' y2='199.48' stroke-width='0.699998' /></g><g partID='854205770'><line stroke-linecap='round' stroke='#404040' x1='213.6' y1='213.88' x2='91.2' y2='213.88' stroke-width='0.699998' /></g><circle  fill="black" cx="213.6" cy="213.88" r="1.44" stroke-width="0" stroke="none" /><g partID='854206180'><line stroke-linecap='round' stroke='#404040' x1='307.2' y1='213.88' x2='307.243' y2='127.48' stroke-width='0.699998' /></g><g partID='854205950'><line stroke-linecap='round' stroke='#404040' x1='307.243' y1='127.48' x2='314.4' y2='127.48' stroke-width='0.699998' /></g><g partID='854216430'><line stroke-linecap='round' stroke='#404040' x1='271.2' y1='213.88' x2='307.2' y2='213.88' stroke-width='0.699998' /></g><circle  fill="black" cx="271.2" cy="213.88" r="1.44" stroke-width="0" stroke="none" /><g partID='854205840'><line stroke-linecap='round' stroke='#404040' x1='213.6' y1='213.88' x2='271.2' y2='213.88' stroke-width='0.699998' /></g><circle  fill="black" cx="213.6" cy="213.88" r="1.44" stroke-width="0" stroke="none" /><g partID='854206550'><line stroke-linecap='round' stroke='#404040' x1='213.6' y1='33.88' x2='213.6' y2='33.88' stroke-width='0.699998' /></g><g partID='854206740'><line stroke-linecap='round' stroke='#404040' x1='307.2' y1='98.68' x2='307.2' y2='55.48' stroke-width='0.699998' /></g><g partID='854206910'><line stroke-linecap='round' stroke='#404040' x1='148.8' y1='91.48' x2='141.6' y2='91.48' stroke-width='0.699998' /></g><circle  fill="black" cx="148.8" cy="91.48" r="1.44" stroke-width="0" stroke="none" /><g partID='854206770'><line stroke-linecap='round' stroke='#404040' x1='170.4' y1='91.48' x2='148.8' y2='91.48' stroke-width='0.699998' /></g><g partID='854207080'><line stroke-linecap='round' stroke='#404040' x1='148.913' y1='185.184' x2='120' y2='185.08' stroke-width='0.699998' /></g><g partID='854206970'><line stroke-linecap='round' stroke='#404040' x1='148.8' y1='91.48' x2='148.913' y2='185.184' stroke-width='0.699998' /></g><g partID='854223430'><line stroke-linecap='round' stroke='#404040' x1='156' y1='177.88' x2='120' y2='177.88' stroke-width='0.699998' /></g><g partID='854207460'><line stroke-linecap='round' stroke='#404040' x1='156' y1='98.68' x2='156' y2='177.88' stroke-width='0.699998' /></g><g partID='854207610'><line stroke-linecap='round' stroke='#404040' x1='91.2' y1='149.08' x2='91.2' y2='149.08' stroke-width='0.699998' /></g><g partID='854207680'><line stroke-linecap='round' stroke='#404040' x1='213.6' y1='213.88' x2='213.6' y2='170.68' stroke-width='0.699998' /></g><circle  fill="black" cx="213.6" cy="213.88" r="1.44" stroke-width="0" stroke="none" /><g partID='854207930'><line stroke-linecap='round' stroke='#404040' x1='278.4' y1='77.08' x2='278.4' y2='113.08' stroke-width='0.699998' /></g><g partID='854207860'><line stroke-linecap='round' stroke='#404040' x1='278.4' y1='113.08' x2='314.4' y2='113.08' stroke-width='0.699998' /></g><g partID='854207790'><line stroke-linecap='round' stroke='#404040' x1='264' y1='77.08' x2='278.4' y2='77.08' stroke-width='0.699998' /></g><g partID='854223290'><line stroke-linecap='round' stroke='#404040' x1='156' y1='98.68' x2='141.6' y2='98.68' stroke-width='0.699998' /></g><g partID='854223110'><line stroke-linecap='round' stroke='#404040' x1='170.4' y1='98.68' x2='156' y2='98.68' stroke-width='0.699998' /></g><circle  fill="black" cx="156" cy="98.68" r="1.44" stroke-width="0" stroke="none" /><g partID='854200750' id='partLabel'><g transform='translate(357.95,85.3035)' ><g font-size='5' font-style='normal' font-weight='normal' fill='#000000' font-family="'DroidSans'" id='schematicLabel' fill-opacity='1' stroke='none' ><text x='0' y='3.75'>RF443MHZ</text></g></g></g><g partID='854215180' id='partLabel'><g transform='translate(274.979,137.664)' ><g font-size='5' font-style='normal' font-weight='normal' fill='#000000' font-family="'DroidSans'" id='schematicLabel' fill-opacity='1' stroke='none' ><text x='0' y='3.75'>LED1</text><text x='0' y='8.75'>Red (633nm)</text></g></g></g><g partID='854216330' id='partLabel'><g transform='translate(272.696,201.43)' ><g font-size='5' font-style='normal' font-weight='normal' fill='#000000' font-family="'DroidSans'" id='schematicLabel' fill-opacity='1' stroke='none' ><text x='0' y='3.75'>R1</text><text x='0' y='8.75'>330&#x3a9;</text></g></g></g><g partID='854205740' id='partLabel'><g transform='translate(120,143.48)' ><g font-size='5' font-style='normal' font-weight='normal' fill='#000000' font-family="'DroidSans'" id='schematicLabel' fill-opacity='1' stroke='none' ><text x='0' y='3.75'>TSL2561</text></g></g></g><g partID='854206480' id='partLabel'><g transform='translate(264,28.28)' ><g font-size='5' font-style='normal' font-weight='normal' fill='#000000' font-family="'DroidSans'" id='schematicLabel' fill-opacity='1' stroke='none' ><text x='0' y='3.75'>MCU</text></g></g></g><g partID='854198500' id='partLabel'><g transform='translate(141.621,82.288)' ><g font-size='5' font-style='normal' font-weight='normal' fill='#000000' font-family="'DroidSans'" id='schematicLabel' fill-opacity='1' stroke='none' ><text x='0' y='3.75'>J1 / i2c </text></g></g></g></svg>