<?xml version='1.0' encoding='UTF-8' standalone='no'?>
<!-- Created with Fritzing (http://www.fritzing.org/) -->
<svg xmlns:svg='http://www.w3.org/2000/svg' xmlns='http://www.w3.org/2000/svg' version='1.2' baseProfile='tiny' x='0in' y='0in' width='6.07778in' height='3.06506in' viewBox='0 0 437.6 220.684' >
<g partID='854215180'><g transform='translate(261.299,141.744)' ><g id="schematic">
<g>
<path d="M13.5,14.966L9.9,14.966c-0.193,0,-0.35,-0.156,-0.35,-0.35s0.156,-0.35,0.35,-0.35L13.5,14.266c0.193,0,0.35,0.156,0.35,0.35S13.694,14.966,13.5,14.966z"/>
</g>
<g>
<path d="M9.9,14.966L6.3,14.966c-0.193,0,-0.35,-0.156,-0.35,-0.35s0.157,-0.35,0.35,-0.35l3.6,0c0.193,0,0.35,0.156,0.35,0.35S10.093,14.966,9.9,14.966z"/>
</g>
<g>
<polygon fill="#FFFFFF" points="9.9,14.616,6.3,7.416,9.9,7.416,13.5,7.416"/>
<path d="M9.9,15.398L5.734,7.066l8.333,0L9.9,15.398zM6.866,7.766L9.9,13.834l3.034,-6.068L6.866,7.766z"/>
</g>
<g>
<path d="M9.9,14.841c-0.124,0,-0.225,-0.101,-0.225,-0.225l0,-7.2c0,-0.124,0.101,-0.225,0.225,-0.225s0.225,0.101,0.225,0.225l0,7.2C10.124,14.74,10.024,14.841,9.9,14.841z"/>
</g>
<g>
<path d="M1.8,12.141c-0.058,0,-0.115,-0.021,-0.159,-0.065c-0.088,-0.088,-0.088,-0.23,0,-0.318l2.34,-2.341c0.088,-0.088,0.23,-0.088,0.318,0s0.088,0.23,0,0.318l-2.34,2.341C1.915,12.12,1.858,12.141,1.8,12.141z"/>
</g>
<g>
<path d="M2.16,15.381c-0.058,0,-0.115,-0.021,-0.159,-0.065c-0.088,-0.088,-0.088,-0.23,0,-0.318l2.34,-2.34c0.088,-0.088,0.23,-0.088,0.318,0s0.088,0.23,0,0.318l-2.34,2.34C2.276,15.359,2.218,15.381,2.16,15.381z"/>
</g>
<g id="connector0pin">
<path fill="#787878" d="M9.9,22.166c-0.193,0,-0.35,-0.156,-0.35,-0.35l0,-7.2c0,-0.193,0.156,-0.35,0.35,-0.35s0.35,0.156,0.35,0.35l0,7.2C10.249,22.01,10.093,22.166,9.9,22.166z"/>
</g>
<g id="connector0terminal">
<rect fill="none" height="0.001" width="0.001" x="9.9" y="21.816"/>
</g>
<g transform="matrix(1, 0, 0, 1, 3.429, 6.4262)">
<g>
<g transform="rotate(270)">
<g>
<g enable-background="new    ">
<path fill="#787878" d="M-11.647,5.54l-0.891,0L-12.538,5.388l0.342,-0.372c0.049,-0.053,0.093,-0.101,0.131,-0.145s0.071,-0.086,0.099,-0.128c0.026,-0.042,0.047,-0.084,0.062,-0.125c0.015,-0.043,0.021,-0.088,0.021,-0.138c0,-0.038,-0.005,-0.072,-0.017,-0.102s-0.027,-0.054,-0.047,-0.075c-0.021,-0.02,-0.045,-0.035,-0.073,-0.046s-0.06,-0.016,-0.094,-0.016c-0.062,0,-0.118,0.013,-0.167,0.038c-0.051,0.024,-0.098,0.057,-0.143,0.096l-0.1,-0.116c0.025,-0.023,0.055,-0.046,0.084,-0.065c0.029,-0.021,0.063,-0.039,0.097,-0.054s0.071,-0.026,0.109,-0.036c0.038,-0.008,0.079,-0.013,0.121,-0.013c0.063,0,0.119,0.009,0.169,0.026c0.051,0.018,0.094,0.043,0.129,0.076c0.035,0.032,0.063,0.072,0.082,0.119c0.019,0.048,0.028,0.101,0.028,0.16c0,0.056,-0.009,0.108,-0.026,0.158c-0.017,0.05,-0.041,0.1,-0.07,0.148c-0.031,0.048,-0.066,0.097,-0.109,0.146c-0.041,0.049,-0.087,0.1,-0.136,0.152L-12.32,5.37l0,0.008l0.673,0L-11.647,5.54z"/>
</g>
</g>
</g>
</g>
</g>
<g id="connector1pin">
<path fill="#787878" d="M9.9,7.766c-0.193,0,-0.35,-0.157,-0.35,-0.35l0,-7.2c0,-0.193,0.156,-0.35,0.35,-0.35s0.35,0.157,0.35,0.35l0,7.2C10.249,7.609,10.093,7.766,9.9,7.766z"/>
</g>
<g id="connector1terminal">
<polygon fill="none" points="9.9,0.216,9.901,0.216,9.901,0.216"/>
</g>
<g transform="matrix(1, 0, 0, 1, 3.429, 1.3462)">
<g>
<g transform="rotate(270)">
<g>
<g enable-background="new    ">
<path fill="#787878" d="M-2.616,5.54l-0.172,0L-2.788,4.648c0,-0.028,0,-0.058,0,-0.09s0.001,-0.063,0.002,-0.095c0.001,-0.032,0.002,-0.063,0.003,-0.092c0.001,-0.028,0.002,-0.054,0.002,-0.076c-0.011,0.012,-0.021,0.021,-0.029,0.03s-0.017,0.017,-0.026,0.024s-0.018,0.016,-0.028,0.025c-0.01,0.008,-0.021,0.019,-0.035,0.03l-0.145,0.118l-0.094,-0.12l0.374,-0.292l0.146,0L-2.618,5.54z"/>
</g>
</g>
</g>
</g>
</g>
<g>
<path d="M0.18,13.536l1.08,-2.521l1.44,1.438L0.18,13.536z"/>
</g>
<g>
<path d="M0.54,16.776l1.08,-2.521l1.438,1.438L0.54,16.776z"/>
</g>
</g>
</g></g><g partID='854216330'><g transform='translate(274.296,163.211)' ><g transform='matrix(0,1,-1,0,0,0)'  ><g id="schematic" xmlns="http://www.w3.org/2000/svg">
<line x1="7.55002" x2="8.63003" stroke-width="0.432002" class="other" stroke-linecap="round" xmlns="http://www.w3.org/2000/svg" y1="3.096" y2="0.216" stroke="#000000"/>
<line x1="8.63003" x2="10.43" stroke-width="0.432002" class="other" stroke-linecap="round" xmlns="http://www.w3.org/2000/svg" y1="0.216" y2="5.976" stroke="#000000"/>
<line x1="10.43" x2="12.23" stroke-width="0.432002" class="other" stroke-linecap="round" xmlns="http://www.w3.org/2000/svg" y1="5.976" y2="0.216" stroke="#000000"/>
<line x1="12.23" x2="14.03" stroke-width="0.432002" class="other" stroke-linecap="round" xmlns="http://www.w3.org/2000/svg" y1="0.216" y2="5.976" stroke="#000000"/>
<line x1="14.03" x2="15.8301" stroke-width="0.432002" class="other" stroke-linecap="round" xmlns="http://www.w3.org/2000/svg" y1="5.976" y2="0.216" stroke="#000000"/>
<line x1="15.8301" x2="17.6301" stroke-width="0.432002" class="other" stroke-linecap="round" xmlns="http://www.w3.org/2000/svg" y1="0.216" y2="5.976" stroke="#000000"/>
<line x1="17.6301" x2="19.4301" stroke-width="0.432002" class="other" stroke-linecap="round" xmlns="http://www.w3.org/2000/svg" y1="5.976" y2="0.216" stroke="#000000"/>
<line x1="19.4301" x2="21.2301" stroke-width="0.432002" class="other" stroke-linecap="round" xmlns="http://www.w3.org/2000/svg" y1="0.216" y2="5.976" stroke="#000000"/>
<line x1="21.2301" x2="21.9501" stroke-width="0.432002" class="other" stroke-linecap="round" xmlns="http://www.w3.org/2000/svg" y1="5.976" y2="3.096" stroke="#000000"/>
<line x1="29.1502" x2="21.9501" stroke-width="0.700001" connectorname="2" class="pin" id="connector1pin" stroke-linecap="round" xmlns="http://www.w3.org/2000/svg" y1="3.096" y2="3.096" stroke="#787878"/>
<g fill="none" height="0.000283465" stroke-width="0" width="0.000283466" x="29.1502" class="terminal" id="connector1terminal" y="3.096" xmlns="http://www.w3.org/2000/svg" stroke="none"/>
<text fill="#8c8c8c" font-family="'Droid Sans'" stroke-width="0" font-size="2.50001" x="25.5501" class="text" y="2.046" xmlns="http://www.w3.org/2000/svg" text-anchor="middle" stroke="none">2</text>
<line x1="0.350001" x2="7.55002" stroke-width="0.700001" connectorname="1" class="pin" id="connector0pin" stroke-linecap="round" xmlns="http://www.w3.org/2000/svg" y1="3.096" y2="3.096" stroke="#787878"/>
<g fill="none" height="0.000283465" stroke-width="0" width="0.000283466" x="0.350001" class="terminal" id="connector0terminal" y="3.096" xmlns="http://www.w3.org/2000/svg" stroke="none"/>
<text fill="#8c8c8c" font-family="'Droid Sans'" stroke-width="0" font-size="2.50001" x="3.95001" class="text" y="2.046" xmlns="http://www.w3.org/2000/svg" text-anchor="middle" stroke="none">1</text>
</g>
</g></g></g><g partID='854205740'><g transform='translate(62.4001,141.961)' ><g gorn="0.0" id="schematic">
<rect fill="#FFFFFF" height="35.1" stroke-width="0.9" width="27.9" x="14.85" y="14.85" class="interior rect" stroke-linecap="round" stroke="#000000"/>
<line fill="none" x1="42.8499" x2="57.2499" stroke-width="0.699999" gorn="0.0.1" id="connector9" class="pin" stroke-linecap="round" y1="28.8" y2="28.8" stroke="#787878"/>
<text fill="#8c8c8c" font-family="'Droid Sans'" font-size="3.49999" stroke-width="0" x="41.4499" y="29.4999" class="text" text-anchor="end" stroke="none">SCL</text>
<g fill="none" height="0.699999" stroke-width="0" width="0.699999" x="57.2499" y="28.4499" gorn="0.0.3" id="connector9terminal" class="terminal" stroke="none"/>
<line fill="none" x1="42.8499" x2="57.2499" stroke-width="0.699999" gorn="0.0.4" id="connector10" class="pin" stroke-linecap="round" y1="36" y2="36" stroke="#787878"/>
<text fill="#8c8c8c" font-family="'Droid Sans'" font-size="3.49999" stroke-width="0" x="41.4499" y="36.6999" class="text" text-anchor="end" stroke="none">SDA</text>
<g fill="none" height="0.699999" stroke-width="0" width="0.699999" x="57.2499" y="35.6499" gorn="0.0.6" id="connector10terminal" class="terminal" stroke="none"/>
<line fill="none" x1="0.349999" x2="14.75" stroke-width="0.699999" gorn="0.0.7" id="connector7" class="pin" stroke-linecap="round" y1="28.8" y2="28.8" stroke="#787878"/>
<text fill="#8c8c8c" font-family="'Droid Sans'" font-size="3.49999" stroke-width="0" x="16.15" y="29.4999" class="text" text-anchor="start" stroke="none">ADDR</text>
<g fill="none" height="0.699999" stroke-width="0" width="0.699999" x="-0.349999" y="28.4499" gorn="0.0.9" id="connector7terminal" class="terminal" stroke="none"/>
<line fill="none" x1="0.349999" x2="14.75" stroke-width="0.699999" gorn="0.0.10" id="connector8" class="pin" stroke-linecap="round" y1="36" y2="36" stroke="#787878"/>
<text fill="#8c8c8c" font-family="'Droid Sans'" font-size="3.49999" stroke-width="0" x="16.15" y="36.6999" class="text" text-anchor="start" stroke="none">INT</text>
<g fill="none" height="0.699999" stroke-width="0" width="0.699999" x="-0.349999" y="35.6499" gorn="0.0.12" id="connector8terminal" class="terminal" stroke="none"/>
<line fill="none" x1="28.8" x2="28.8" stroke-width="0.699999" gorn="0.0.13" id="connector6" class="pin" stroke-linecap="round" y1="50.0499" y2="64.4499" stroke="#787878"/>
<g transform="matrix(1, 0, 0, 1, 29.4999, 48.6499)">
<g>
<g>
<g transform="rotate(270)">
<g>
<g>
<text fill="#8c8c8c" font-family="'Droid Sans'" font-size="3.49999" stroke-width="0" x="0" y="0" class="text" text-anchor="start" stroke="none">GND</text>
</g>
</g>
</g>
</g>
</g>
</g>
<g fill="none" height="0.699999" stroke-width="0" width="0.699999" x="28.4499" y="64.4499" gorn="0.0.15" id="connector6terminal" class="terminal" stroke="none"/>
<line fill="none" x1="28.8" x2="28.8" stroke-width="0.699999" gorn="0.0.16" id="connector11" class="pin" stroke-linecap="round" y1="0.349999" y2="14.75" stroke="#787878"/>
<g transform="matrix(1, 0, 0, 1, 29.4999, 16.15)">
<g>
<g>
<g transform="rotate(270)">
<g>
<g>
<text fill="#8c8c8c" font-family="'Droid Sans'" font-size="3.49999" stroke-width="0" x="0" y="0" class="text" text-anchor="end" stroke="none">Vcc</text>
</g>
</g>
</g>
</g>
</g>
</g>
<g fill="none" height="0.699999" stroke-width="0" width="0.699999" x="28.4499" y="-0.349999" gorn="0.0.18" id="connector11terminal" class="terminal" stroke="none"/>
</g>
</g></g><g partID='854206480'><g transform='translate(170.4,26.7608)' ><g id="schematic">
<rect fill="none" height="108" stroke-width="0.9" width="64.35" x="14.4" y="14.4" stroke-linejoin="round" stroke-linecap="round" stroke="#000000"/>
<text font-family="'Droid Sans'" font-size="3.5" x="46.8" y="57.8" id="label" text-anchor="middle">Pro</text>
<text font-family="'Droid Sans'" font-size="3.5" x="46.8" y="61.3" id="label" text-anchor="middle">Trinket</text>
<text font-family="'Droid Sans'" font-size="3.5" x="46.8" y="64.8" id="label" text-anchor="middle">3.3V</text>
<line fill="none" x1="0.349999" x2="14.4" stroke-width="0.699998" stroke-linejoin="round" stroke-linecap="round" y1="28.8" y2="28.8" stroke="#787878"/>
<rect fill="none" height="0.699998" connectorName="A0" stroke-width="0" width="14.4" y="28.45" id="connector93pin"/>
<g fill="none" height="0.699998" stroke-width="0" width="0" y="28.45" id="connector93terminal"/>
<text fill="#8c8c8c" font-family="'Droid Sans'" font-size="3.5" x="15.8" y="29.5" id="label93" text-anchor="start">A0</text>
<line fill="none" x1="0.349999" x2="14.4" stroke-width="0.699998" stroke-linejoin="round" stroke-linecap="round" y1="36" y2="36" stroke="#787878"/>
<rect fill="none" height="0.699998" connectorName="A1" stroke-width="0" width="14.4" y="35.65" id="connector94pin"/>
<g fill="none" height="0.699998" stroke-width="0" width="0" y="35.65" id="connector94terminal"/>
<text fill="#8c8c8c" font-family="'Droid Sans'" font-size="3.5" x="15.8" y="36.7" id="label94" text-anchor="start">A1</text>
<line fill="none" x1="0.349999" x2="14.4" stroke-width="0.699998" stroke-linejoin="round" stroke-linecap="round" y1="43.2" y2="43.2" stroke="#787878"/>
<rect fill="none" height="0.699998" connectorName="A2" stroke-width="0" width="14.4" y="42.85" id="connector95pin"/>
<g fill="none" height="0.699998" stroke-width="0" width="0" y="42.85" id="connector95terminal"/>
<text fill="#8c8c8c" font-family="'Droid Sans'" font-size="3.5" x="15.8" y="43.9" id="label95" text-anchor="start">A2</text>
<line fill="none" x1="0.349999" x2="14.4" stroke-width="0.699998" stroke-linejoin="round" stroke-linecap="round" y1="50.4" y2="50.4" stroke="#787878"/>
<rect fill="none" height="0.699998" connectorName="A3" stroke-width="0" width="14.4" y="50.05" id="connector96pin"/>
<g fill="none" height="0.699998" stroke-width="0" width="0" y="50.05" id="connector96terminal"/>
<text fill="#8c8c8c" font-family="'Droid Sans'" font-size="3.5" x="15.8" y="51.1" id="label96" text-anchor="start">A3</text>
<line fill="none" x1="0.349999" x2="14.4" stroke-width="0.699998" stroke-linejoin="round" stroke-linecap="round" y1="57.6" y2="57.6" stroke="#787878"/>
<rect fill="none" height="0.699998" connectorName="A4" stroke-width="0" width="14.4" y="57.25" id="connector97pin"/>
<g fill="none" height="0.699998" stroke-width="0" width="0" y="57.25" id="connector97terminal"/>
<text fill="#8c8c8c" font-family="'Droid Sans'" font-size="3.5" x="15.8" y="58.3" id="label97" text-anchor="start">A4</text>
<line fill="none" x1="0.349999" x2="14.4" stroke-width="0.699998" stroke-linejoin="round" stroke-linecap="round" y1="64.8" y2="64.8" stroke="#787878"/>
<rect fill="none" height="0.699998" connectorName="A5" stroke-width="0" width="14.4" y="64.45" id="connector98pin"/>
<g fill="none" height="0.699998" stroke-width="0" width="0" y="64.45" id="connector98terminal"/>
<text fill="#8c8c8c" font-family="'Droid Sans'" font-size="3.5" x="15.8" y="65.5" id="label98" text-anchor="start">A5</text>
<line fill="none" x1="0.349999" x2="14.4" stroke-width="0.699998" stroke-linejoin="round" stroke-linecap="round" y1="72" y2="72" stroke="#787878"/>
<rect fill="none" height="0.699998" connectorName="A6" stroke-width="0" width="14.4" y="71.65" id="connector85pin"/>
<g fill="none" height="0.699998" stroke-width="0" width="0" y="71.65" id="connector85terminal"/>
<text fill="#8c8c8c" font-family="'Droid Sans'" font-size="3.5" x="15.8" y="72.6998" id="label85" text-anchor="start">A6</text>
<line fill="none" x1="0.349999" x2="14.4" stroke-width="0.699998" stroke-linejoin="round" stroke-linecap="round" y1="79.2" y2="79.2" stroke="#787878"/>
<rect fill="none" height="0.699998" connectorName="A7" stroke-width="0" width="14.4" y="78.8501" id="connector86pin"/>
<g fill="none" height="0.699998" stroke-width="0" width="0" y="78.8501" id="connector86terminal"/>
<text fill="#8c8c8c" font-family="'Droid Sans'" font-size="3.5" x="15.8" y="79.8998" id="label86" text-anchor="start">A7</text>
<line fill="none" x1="0.349999" x2="14.4" stroke-width="0.699998" stroke-linejoin="round" stroke-linecap="round" y1="86.4" y2="86.4" stroke="#787878"/>
<rect fill="none" height="0.699998" connectorName="AREF" stroke-width="0" width="14.4" y="86.0501" id="connector92pin"/>
<g fill="none" height="0.699998" stroke-width="0" width="0" y="86.0501" id="connector92terminal"/>
<text fill="#8c8c8c" font-family="'Droid Sans'" font-size="3.5" x="15.8" y="87.0998" id="label92" text-anchor="start">AREF</text>
<line fill="none" x1="0.349999" x2="14.4" stroke-width="0.699998" stroke-linejoin="round" stroke-linecap="round" y1="93.6" y2="93.6" stroke="#787878"/>
<rect fill="none" height="0.699998" connectorName="RESET" stroke-width="0" width="14.4" y="93.2501" id="connector84pin"/>
<g fill="none" height="0.699998" stroke-width="0" width="0" y="93.2501" id="connector84terminal"/>
<text fill="#8c8c8c" font-family="'Droid Sans'" font-size="3.5" x="15.8" y="94.2998" id="label84" text-anchor="start">RESET</text>
<line fill="none" x1="0.349999" x2="14.4" stroke-width="0.699998" stroke-linejoin="round" stroke-linecap="round" y1="100.8" y2="100.8" stroke="#787878"/>
<rect fill="none" height="0.699998" connectorName="DTR/RTS" stroke-width="0" width="14.4" y="100.45" id="connector34pin"/>
<g fill="none" height="0.699998" stroke-width="0" width="0" y="100.45" id="connector34terminal"/>
<text fill="#8c8c8c" font-family="'Droid Sans'" font-size="3.5" x="15.8" y="101.5" id="label34" text-anchor="start">DTR/RTS</text>
<line fill="none" x1="78.8501" x2="93.2501" stroke-width="0.699998" stroke-linejoin="round" stroke-linecap="round" y1="28.8" y2="28.8" stroke="#787878"/>
<rect fill="none" height="0.699998" stroke-width="0" width="14.4" connectorname="RXD" x="79.2" y="28.45" id="connector32pin"/>
<g fill="none" height="0.699998" stroke-width="0" width="0" x="93.6" y="28.45" id="connector32terminal"/>
<text fill="#8c8c8c" font-family="'Droid Sans'" font-size="3.5" x="77.8003" y="29.5" id="label32" text-anchor="end">RXD</text>
<line fill="none" x1="78.8501" x2="93.2501" stroke-width="0.699998" stroke-linejoin="round" stroke-linecap="round" y1="36" y2="36" stroke="#787878"/>
<rect fill="none" height="0.699998" stroke-width="0" width="14.4" connectorname="TXD" x="79.2" y="35.65" id="connector33pin"/>
<g fill="none" height="0.699998" stroke-width="0" width="0" x="93.6" y="35.65" id="connector33terminal"/>
<text fill="#8c8c8c" font-family="'Droid Sans'" font-size="3.5" x="77.8003" y="36.7" id="label33" text-anchor="end">TXD</text>
<line fill="none" x1="78.8501" x2="93.2501" stroke-width="0.699998" stroke-linejoin="round" stroke-linecap="round" y1="43.2" y2="43.2" stroke="#787878"/>
<rect fill="none" height="0.699998" stroke-width="0" width="14.4" connectorname="D3" x="79.2" y="42.85" id="connector81pin"/>
<g fill="none" height="0.699998" stroke-width="0" width="0" x="93.6" y="42.85" id="connector81terminal"/>
<text fill="#8c8c8c" font-family="'Droid Sans'" font-size="3.5" x="77.8003" y="43.9" id="label81" text-anchor="end">D3</text>
<line fill="none" x1="78.8501" x2="93.2501" stroke-width="0.699998" stroke-linejoin="round" stroke-linecap="round" y1="50.4" y2="50.4" stroke="#787878"/>
<rect fill="none" height="0.699998" stroke-width="0" width="14.4" connectorname="D4" x="79.2" y="50.05" id="connector80pin"/>
<g fill="none" height="0.699998" stroke-width="0" width="0" x="93.6" y="50.05" id="connector80terminal"/>
<text fill="#8c8c8c" font-family="'Droid Sans'" font-size="3.5" x="77.8003" y="51.1" id="label80" text-anchor="end">D4</text>
<line fill="none" x1="78.8501" x2="93.2501" stroke-width="0.699998" stroke-linejoin="round" stroke-linecap="round" y1="57.6" y2="57.6" stroke="#787878"/>
<rect fill="none" height="0.699998" stroke-width="0" width="14.4" connectorname="D5" x="79.2" y="57.25" id="connector79pin"/>
<g fill="none" height="0.699998" stroke-width="0" width="0" x="93.6" y="57.25" id="connector79terminal"/>
<text fill="#8c8c8c" font-family="'Droid Sans'" font-size="3.5" x="77.8003" y="58.3" id="label79" text-anchor="end">D5</text>
<line fill="none" x1="78.8501" x2="93.2501" stroke-width="0.699998" stroke-linejoin="round" stroke-linecap="round" y1="64.8" y2="64.8" stroke="#787878"/>
<rect fill="none" height="0.699998" stroke-width="0" width="14.4" connectorname="D6" x="79.2" y="64.45" id="connector78pin"/>
<g fill="none" height="0.699998" stroke-width="0" width="0" x="93.6" y="64.45" id="connector78terminal"/>
<text fill="#8c8c8c" font-family="'Droid Sans'" font-size="3.5" x="77.8003" y="65.5" id="label78" text-anchor="end">D6</text>
<line fill="none" x1="78.8501" x2="93.2501" stroke-width="0.699998" stroke-linejoin="round" stroke-linecap="round" y1="72" y2="72" stroke="#787878"/>
<rect fill="none" height="0.699998" stroke-width="0" width="14.4" connectorname="D8" x="79.2" y="71.65" id="connector77pin"/>
<g fill="none" height="0.699998" stroke-width="0" width="0" x="93.6" y="71.65" id="connector77terminal"/>
<text fill="#8c8c8c" font-family="'Droid Sans'" font-size="3.5" x="77.8003" y="72.6998" id="label77" text-anchor="end">D8</text>
<line fill="none" x1="78.8501" x2="93.2501" stroke-width="0.699998" stroke-linejoin="round" stroke-linecap="round" y1="79.2" y2="79.2" stroke="#787878"/>
<rect fill="none" height="0.699998" stroke-width="0" width="14.4" connectorname="D9" x="79.2" y="78.8501" id="connector87pin"/>
<g fill="none" height="0.699998" stroke-width="0" width="0" x="93.6" y="78.8501" id="connector87terminal"/>
<text fill="#8c8c8c" font-family="'Droid Sans'" font-size="3.5" x="77.8003" y="79.8998" id="label87" text-anchor="end">D9</text>
<line fill="none" x1="78.8501" x2="93.2501" stroke-width="0.699998" stroke-linejoin="round" stroke-linecap="round" y1="86.4" y2="86.4" stroke="#787878"/>
<rect fill="none" height="0.699998" stroke-width="0" width="14.4" connectorname="D10" x="79.2" y="86.0501" id="connector88pin"/>
<g fill="none" height="0.699998" stroke-width="0" width="0" x="93.6" y="86.0501" id="connector88terminal"/>
<text fill="#8c8c8c" font-family="'Droid Sans'" font-size="3.5" x="77.8003" y="87.0998" id="label88" text-anchor="end">D10</text>
<line fill="none" x1="78.8501" x2="93.2501" stroke-width="0.699998" stroke-linejoin="round" stroke-linecap="round" y1="93.6" y2="93.6" stroke="#787878"/>
<rect fill="none" height="0.699998" stroke-width="0" width="14.4" connectorname="D11" x="79.2" y="93.2501" id="connector89pin"/>
<g fill="none" height="0.699998" stroke-width="0" width="0" x="93.6" y="93.2501" id="connector89terminal"/>
<text fill="#8c8c8c" font-family="'Droid Sans'" font-size="3.5" x="77.8003" y="94.2998" id="label89" text-anchor="end">D11</text>
<line fill="none" x1="78.8501" x2="93.2501" stroke-width="0.699998" stroke-linejoin="round" stroke-linecap="round" y1="100.8" y2="100.8" stroke="#787878"/>
<rect fill="none" height="0.699998" stroke-width="0" width="14.4" connectorname="D12" x="79.2" y="100.45" id="connector90pin"/>
<g fill="none" height="0.699998" stroke-width="0" width="0" x="93.6" y="100.45" id="connector90terminal"/>
<text fill="#8c8c8c" font-family="'Droid Sans'" font-size="3.5" x="77.8003" y="101.5" id="label90" text-anchor="end">D12</text>
<line fill="none" x1="78.8501" x2="93.2501" stroke-width="0.699998" stroke-linejoin="round" stroke-linecap="round" y1="108" y2="108" stroke="#787878"/>
<rect fill="none" height="0.699998" stroke-width="0" width="14.4" connectorname="D13" x="79.2" y="107.65" id="connector91pin"/>
<g fill="none" height="0.699998" stroke-width="0" width="0" x="93.6" y="107.65" id="connector91terminal"/>
<text fill="#8c8c8c" font-family="'Droid Sans'" font-size="3.5" x="77.8003" y="108.7" id="label91" text-anchor="end">D13</text>
<line fill="none" x1="36" x2="36" stroke-width="0.699998" stroke-linejoin="round" stroke-linecap="round" y1="0.349999" y2="14.4" stroke="#787878"/>
<rect fill="none" height="14.4" stroke-width="0" width="0.699998" connectorname="VBAT" x="35.65" id="connector73pin"/>
<g fill="none" height="0" stroke-width="0" width="0.699998" x="35.65" id="connector73terminal"/>
<g transform="matrix(0, -1, 1, 0, 37.4, 16)">
<text fill="#8c8c8c" font-family="'Droid Sans'" font-size="3.5" x="0" y="0" id="label73" text-anchor="end">VBAT</text>
</g>
<line fill="none" x1="43.2" x2="43.2" stroke-width="0.699998" stroke-linejoin="round" stroke-linecap="round" y1="0.349999" y2="14.4" stroke="#787878"/>
<rect fill="none" height="14.4" stroke-width="0" width="0.699998" connectorname="+3V3" x="42.85" id="connector76pin"/>
<g fill="none" height="0" stroke-width="0" width="0.699998" x="42.85" id="connector76terminal"/>
<g transform="matrix(0, -1, 1, 0, 44.6, 16)">
<text fill="#8c8c8c" font-family="'Droid Sans'" font-size="3.5" x="0" y="0" id="label76" text-anchor="end">+3V3</text>
</g>
<line fill="none" x1="50.4" x2="50.4" stroke-width="0.699998" stroke-linejoin="round" stroke-linecap="round" y1="0.349999" y2="14.4" stroke="#787878"/>
<rect fill="none" height="14.4" stroke-width="0" width="0.699998" connectorname="VBUS" x="50.05" id="connector31pin"/>
<g fill="none" height="0" stroke-width="0" width="0.699998" x="50.05" id="connector31terminal"/>
<g transform="matrix(0, -1, 1, 0, 51.8, 16)">
<text fill="#8c8c8c" font-family="'Droid Sans'" font-size="3.5" x="0" y="0" id="label31" text-anchor="end">VBUS</text>
</g>
<line fill="none" x1="43.2" x2="43.2" stroke-width="0.699998" stroke-linejoin="round" stroke-linecap="round" y1="122.4" y2="136.45" stroke="#787878"/>
<rect fill="none" height="14.4" stroke-width="0" width="0.699998" connectorname="GND" x="42.85" y="122.4" id="connector29pin"/>
<g fill="none" height="0" stroke-width="0" width="0.699998" x="42.85" y="136.8" id="connector29terminal"/>
<g transform="matrix(0, -1, 1, 0, 44.6, 120.8)">
<text fill="#8c8c8c" font-family="'Droid Sans'" font-size="3.5" x="0" y="0" id="label29">GND</text>
</g>
<rect fill="none" height="14.4" stroke-width="0" width="0.699998" connectorname="VBUS" x="50.05" id="connector75pin"/>
<g fill="none" height="0" stroke-width="0" width="0.699998" x="50.05" id="connector75terminal"/>
<rect fill="none" height="14.4" stroke-width="0" width="0.699998" connectorname="GND" x="42.85" y="122.4" id="connector74pin"/>
<g fill="none" height="0" stroke-width="0" width="0.699998" x="42.85" y="136.8" id="connector74terminal"/>
<rect fill="none" height="14.4" stroke-width="0" width="0.699998" connectorname="GND" x="42.85" y="122.4" id="connector30pin"/>
<g fill="none" height="0" stroke-width="0" width="0.699998" x="42.85" y="136.8" id="connector30terminal"/>
<rect fill="none" height="0.699998" stroke-width="0" width="14.4" connectorname="TXD" x="79.2" y="35.65" id="connector82pin"/>
<g fill="none" height="0.699998" stroke-width="0" width="0" x="93.6" y="35.65" id="connector82terminal"/>
<rect fill="none" height="0.699998" stroke-width="0" width="14.4" connectorname="RXD" x="79.2" y="28.45" id="connector83pin"/>
<g fill="none" height="0.699998" stroke-width="0" width="0" x="93.6" y="28.45" id="connector83terminal"/>
</g>
</g></g><g partID='854207570'><g transform='translate(84.0185,127.988)' ><g id="schematic">
<line fill="none" stroke-miterlimit="10" x1="7.2" x2="7.2" stroke-width="0.75" id="connector0pin" stroke-linecap="round" y1="6.78" y2="13.98" stroke="#787878"/>
<g fill="none" points="6.817,13.567,7.546,13.546,7.546,14.4,6.859,14.359" id="connector0terminal"/>
<path fill="none" stroke-width="0.9" d="M0.45,6.564l13.5,0" stroke-linecap="round" stroke="#000000"/>
<g transform="matrix(1, 0, 0, 1, 1.4985, 4.9878)">
<text font-family="'DroidSans'" font-size="4.4991" id="label">3.3V</text>
</g>
</g>
</g></g><g partID='854206630'><g transform='translate(336.018,12.788)' ><g id="schematic">
<line fill="none" stroke-miterlimit="10" x1="7.2" x2="7.2" stroke-width="0.75" id="connector0pin" stroke-linecap="round" y1="6.78" y2="13.98" stroke="#787878"/>
<g fill="none" points="6.817,13.567,7.546,13.546,7.546,14.4,6.859,14.359" id="connector0terminal"/>
<path fill="none" stroke-width="0.9" d="M0.45,6.564l13.5,0" stroke-linecap="round" stroke="#000000"/>
<g transform="matrix(1, 0, 0, 1, 1.4985, 4.9878)">
<text font-family="'DroidSans'" font-size="4.4991" id="label">9V</text>
</g>
</g>
</g></g><g partID='64550'><g transform='translate(206.418,12.788)' ><g id="schematic">
<line fill="none" stroke-miterlimit="10" x1="7.2" x2="7.2" stroke-width="0.75" id="connector0pin" stroke-linecap="round" y1="6.78" y2="13.98" stroke="#787878"/>
<g fill="none" points="6.817,13.567,7.546,13.546,7.546,14.4,6.859,14.359" id="connector0terminal"/>
<path fill="none" stroke-width="0.9" d="M0.45,6.564l13.5,0" stroke-linecap="round" stroke="#000000"/>
<g transform="matrix(1, 0, 0, 1, 1.4985, 4.9878)">
<text font-family="'DroidSans'" font-size="4.4991" id="label">3.3V</text>
</g>
</g>
</g></g><g partID='64600'><g transform='translate(206.399,206.284)' ><g id="schematic" xmlns="http://www.w3.org/2000/svg">
<path fill="none" stroke-width="0.75" d="M7.201,7.575l0,-7.2" id="connector0pin" stroke-linecap="round" xmlns="http://www.w3.org/2000/svg" stroke="#787878"/>
<g fill="none" height="0.953" width="0.945" x="6.728" id="connector0terminal" y="0" xmlns="http://www.w3.org/2000/svg"/>
<path fill="none" stroke-width="0.9" d="M0.5,7.711L13.9,7.711" id="path4098" stroke-linecap="round" xmlns="http://www.w3.org/2000/svg" stroke="#000000"/>
<path fill="none" stroke-width="0.9" d="M2.732,10.456l8.935,0" id="path4100" stroke-linecap="round" xmlns="http://www.w3.org/2000/svg" stroke="#000000"/>
<path fill="none" stroke-width="0.9" d="M9.431,13.175L4.967,13.175" id="path4102" stroke-linecap="round" xmlns="http://www.w3.org/2000/svg" stroke="#000000"/>
</g>
</g></g><g partID='854198500'><g transform='translate(141.621,95.1688)' ><g transform='matrix(-1,0,0,-1,0,0)'  ><g id="schematic" xmlns="http://www.w3.org/2000/svg">
<line fill="none" x1="0.35" x2="7.346" stroke-width="0.7" id="connector0pin" stroke-linecap="round" stroke-linejoin="round" xmlns="http://www.w3.org/2000/svg" y1="3.6" y2="3.6" stroke="#000000"/>
<g fill="none" height="0.208" width="0.546" x="-0.252" id="connector0terminal" y="3.504" xmlns="http://www.w3.org/2000/svg"/>
<polyline fill="none" points="14.1,5.557,9.928,3.6,14.1,1.643" stroke-width="0.7" stroke-linecap="round" stroke-linejoin="round" xmlns="http://www.w3.org/2000/svg" stroke="#000000"/>
<line fill="none" x1="10.11" x2="4.804" stroke-width="0.7" id="line" stroke-linecap="round" stroke-linejoin="round" xmlns="http://www.w3.org/2000/svg" y1="3.6" y2="3.6" stroke="#000000"/>
<text fill="#8c8c8c" font-family="'Droid Sans'" stroke-width="0" font-size="2.5" x="5.05" class="text" y="2.58" xmlns="http://www.w3.org/2000/svg" text-anchor="middle" stroke="none">1</text>
<line fill="none" x1="0.35" x2="7.346" stroke-width="0.7" id="connector1pin" stroke-linecap="round" stroke-linejoin="round" xmlns="http://www.w3.org/2000/svg" y1="10.8" y2="10.8" stroke="#000000"/>
<g fill="none" height="0.208" width="0.546" x="-0.252" id="connector1terminal" y="10.704" xmlns="http://www.w3.org/2000/svg"/>
<polyline fill="none" points="14.1,12.757,9.928,10.8,14.1,8.843" stroke-width="0.7" stroke-linecap="round" stroke-linejoin="round" xmlns="http://www.w3.org/2000/svg" stroke="#000000"/>
<line fill="none" x1="10.11" x2="4.804" stroke-width="0.7" id="line" stroke-linecap="round" stroke-linejoin="round" xmlns="http://www.w3.org/2000/svg" y1="10.8" y2="10.8" stroke="#000000"/>
<text fill="#8c8c8c" font-family="'Droid Sans'" stroke-width="0" font-size="2.5" x="5.05" class="text" y="9.78" xmlns="http://www.w3.org/2000/svg" text-anchor="middle" stroke="none">2</text>
</g>
</g></g></g><g partID='854261130'><g transform='translate(343.2,55.5608)' ><g id="schematic" gorn="0.0" xmlns="http://www.w3.org/2000/svg">
<rect fill="#FFFFFF" height="27.9" stroke-width="0.9" width="35.1" x="14.85" class="interior rect" stroke-linecap="round" y="0.45" xmlns="http://www.w3.org/2000/svg" stroke="#000000"/>
<line x1="50.0499" fill="none" x2="64.4499" stroke-width="0.699999" id="connector0pin" class="pin" gorn="0.0.1" stroke-linecap="round" xmlns="http://www.w3.org/2000/svg" y1="7.2" y2="7.2" stroke="#787878"/>
<text fill="#8c8c8c" font-family="'Droid Sans'" font-size="2.5" stroke-width="0" x="57.2499" class="text" y="6.14999" xmlns="http://www.w3.org/2000/svg" text-anchor="middle" stroke="none">1</text>
<text fill="#8c8c8c" font-family="'Droid Sans'" font-size="3.49999" stroke-width="0" x="48.6499" class="text" y="7.89999" xmlns="http://www.w3.org/2000/svg" text-anchor="end" stroke="none">ANT</text>
<g fill="none" height="0.699999" stroke-width="0" width="0.699999" x="64.4499" id="connector0terminal" class="terminal" gorn="0.0.4" y="6.85001" xmlns="http://www.w3.org/2000/svg" stroke="none"/>
<line x1="0.349999" fill="none" x2="14.75" stroke-width="0.699999" id="connector3pin" class="pin" gorn="0.0.5" stroke-linecap="round" xmlns="http://www.w3.org/2000/svg" y1="7.2" y2="7.2" stroke="#787878"/>
<text fill="#8c8c8c" font-family="'Droid Sans'" font-size="2.5" stroke-width="0" x="7.54999" class="text" y="6.14999" xmlns="http://www.w3.org/2000/svg" text-anchor="middle" stroke="none">4</text>
<text fill="#8c8c8c" font-family="'Droid Sans'" font-size="3.49999" stroke-width="0" x="16.15" class="text" y="7.89999" xmlns="http://www.w3.org/2000/svg" text-anchor="start" stroke="none">+12V</text>
<g fill="none" height="0.699999" stroke-width="0" width="0.699999" x="-0.349999" id="connector3terminal" class="terminal" gorn="0.0.8" y="6.85001" xmlns="http://www.w3.org/2000/svg" stroke="none"/>
<line x1="0.349999" fill="none" x2="14.75" stroke-width="0.699999" id="connector1pin" class="pin" gorn="0.0.9" stroke-linecap="round" xmlns="http://www.w3.org/2000/svg" y1="14.4" y2="14.4" stroke="#787878"/>
<text fill="#8c8c8c" font-family="'Droid Sans'" font-size="2.5" stroke-width="0" x="7.54999" class="text" y="13.35" xmlns="http://www.w3.org/2000/svg" text-anchor="middle" stroke="none">2</text>
<text fill="#8c8c8c" font-family="'Droid Sans'" font-size="3.49999" stroke-width="0" x="16.15" class="text" y="15.1" xmlns="http://www.w3.org/2000/svg" text-anchor="start" stroke="none">DATA</text>
<g fill="none" height="0.699999" stroke-width="0" width="0.699999" x="-0.349999" id="connector1terminal" class="terminal" gorn="0.0.12" y="14.05" xmlns="http://www.w3.org/2000/svg" stroke="none"/>
<line x1="0.349999" fill="none" x2="14.75" stroke-width="0.699999" id="connector2pin" class="pin" gorn="0.0.13" stroke-linecap="round" xmlns="http://www.w3.org/2000/svg" y1="21.6" y2="21.6" stroke="#787878"/>
<text fill="#8c8c8c" font-family="'Droid Sans'" font-size="2.5" stroke-width="0" x="7.54999" class="text" y="20.55" xmlns="http://www.w3.org/2000/svg" text-anchor="middle" stroke="none">3</text>
<text fill="#8c8c8c" font-family="'Droid Sans'" font-size="3.49999" stroke-width="0" x="16.15" class="text" y="22.3" xmlns="http://www.w3.org/2000/svg" text-anchor="start" stroke="none">GND</text>
<g fill="none" height="0.699999" stroke-width="0" width="0.699999" x="-0.349999" id="connector2terminal" class="terminal" gorn="0.0.16" y="21.25" xmlns="http://www.w3.org/2000/svg" stroke="none"/>
<text fill="#000000" font-family="'Droid Sans'" font-size="4.25001" stroke-width="0" x="32.8501" id="label" class="text" gorn="0.0.17" y="8.0498" xmlns="http://www.w3.org/2000/svg" text-anchor="middle" stroke="none">RF-</text>
<text fill="#000000" font-family="'Droid Sans'" font-size="4.25001" stroke-width="0" x="32.8501" id="label" class="text" gorn="0.0.18" y="12.5833" xmlns="http://www.w3.org/2000/svg" text-anchor="middle" stroke="none">LINK_</text>
<text fill="#000000" font-family="'Droid Sans'" font-size="4.25001" stroke-width="0" x="32.8501" id="label" class="text" gorn="0.0.19" y="17.1167" xmlns="http://www.w3.org/2000/svg" text-anchor="middle" stroke="none">TX</text>
</g>
</g></g><g partID='854223290'><line stroke-linecap='round' stroke='#404040' x1='156' y1='91.5608' x2='141.6' y2='91.5608' stroke-width='0.699998' /></g><g partID='854223110'><line stroke-linecap='round' stroke='#404040' x1='170.4' y1='91.5608' x2='156' y2='91.5608' stroke-width='0.699998' /></g><circle  fill="black" cx="156" cy="91.5608" r="1.44" stroke-width="0" stroke="none" /><g partID='854215280'><line stroke-linecap='round' stroke='#404040' x1='271.142' y1='120.361' x2='264' y2='120.361' stroke-width='0.699998' /></g><g partID='854215210'><line stroke-linecap='round' stroke='#404040' x1='271.2' y1='141.96' x2='271.143' y2='120.361' stroke-width='0.699998' /></g><g partID='854216360'><line stroke-linecap='round' stroke='#404040' x1='271.2' y1='163.561' x2='271.2' y2='163.561' stroke-width='0.699998' /></g><g partID='854216530'><line stroke-linecap='round' stroke='#404040' x1='271.2' y1='206.761' x2='271.2' y2='192.361' stroke-width='0.699998' /></g><g partID='854205770'><line stroke-linecap='round' stroke='#404040' x1='213.6' y1='206.761' x2='91.2' y2='206.761' stroke-width='0.699998' /></g><circle  fill="black" cx="213.6" cy="206.761" r="1.44" stroke-width="0" stroke="none" /><g partID='854206180'><line stroke-linecap='round' stroke='#404040' x1='307.2' y1='206.761' x2='307.2' y2='127.561' stroke-width='0.699998' /></g><g partID='854261750'><line stroke-linecap='round' stroke='#404040' x1='307.22' y1='77.0516' x2='343.2' y2='77.1608' stroke-width='0.699998' /></g><g partID='854205950'><line stroke-linecap='round' stroke='#404040' x1='307.2' y1='127.561' x2='307.22' y2='77.0516' stroke-width='0.699998' /></g><g partID='854216430'><line stroke-linecap='round' stroke='#404040' x1='271.2' y1='206.761' x2='307.2' y2='206.761' stroke-width='0.699998' /></g><circle  fill="black" cx="271.2" cy="206.761" r="1.44" stroke-width="0" stroke="none" /><g partID='854205840'><line stroke-linecap='round' stroke='#404040' x1='213.6' y1='206.761' x2='271.2' y2='206.761' stroke-width='0.699998' /></g><circle  fill="black" cx="213.6" cy="206.761" r="1.44" stroke-width="0" stroke="none" /><g partID='854206550'><line stroke-linecap='round' stroke='#404040' x1='213.6' y1='26.7608' x2='213.6' y2='26.7608' stroke-width='0.699998' /></g><g partID='854206910'><line stroke-linecap='round' stroke='#404040' x1='148.8' y1='84.3608' x2='141.6' y2='84.3608' stroke-width='0.699998' /></g><circle  fill="black" cx="148.8" cy="84.3608" r="1.44" stroke-width="0" stroke="none" /><g partID='854206770'><line stroke-linecap='round' stroke='#404040' x1='170.4' y1='84.3608' x2='148.8' y2='84.3608' stroke-width='0.699998' /></g><g partID='854207080'><line stroke-linecap='round' stroke='#404040' x1='148.914' y1='178.064' x2='120' y2='177.961' stroke-width='0.699998' /></g><g partID='854206970'><line stroke-linecap='round' stroke='#404040' x1='148.8' y1='84.3608' x2='148.913' y2='178.064' stroke-width='0.699998' /></g><g partID='854223430'><line stroke-linecap='round' stroke='#404040' x1='156' y1='170.761' x2='120' y2='170.761' stroke-width='0.699998' /></g><g partID='854207460'><line stroke-linecap='round' stroke='#404040' x1='156' y1='91.5608' x2='156' y2='170.761' stroke-width='0.699998' /></g><g partID='854207680'><line stroke-linecap='round' stroke='#404040' x1='213.6' y1='206.761' x2='213.6' y2='163.561' stroke-width='0.699998' /></g><circle  fill="black" cx="213.6" cy="206.761" r="1.44" stroke-width="0" stroke="none" /><g partID='854261650'><line stroke-linecap='round' stroke='#404040' x1='343.2' y1='26.761' x2='343.2' y2='62.7608' stroke-width='0.699998' /></g><g partID='854261680'><line stroke-linecap='round' stroke='#404040' x1='343.2' y1='69.9608' x2='264' y2='69.9608' stroke-width='0.699998' /></g><g partID='854215180' id='partLabel'><g transform='translate(274.979,130.544)' ><g font-size='5' font-style='normal' font-weight='normal' fill='#000000' font-family="'DroidSans'" id='schematicLabel' fill-opacity='1' stroke='none' ><text x='0' y='3.75'>LED1</text><text x='0' y='8.75'>Red (633nm)</text></g></g></g><g partID='854216330' id='partLabel'><g transform='translate(272.696,194.311)' ><g font-size='5' font-style='normal' font-weight='normal' fill='#000000' font-family="'DroidSans'" id='schematicLabel' fill-opacity='1' stroke='none' ><text x='0' y='3.75'>R1</text><text x='0' y='8.75'>330&#x3a9;</text></g></g></g><g partID='854205740' id='partLabel'><g transform='translate(120,136.361)' ><g font-size='5' font-style='normal' font-weight='normal' fill='#000000' font-family="'DroidSans'" id='schematicLabel' fill-opacity='1' stroke='none' ><text x='0' y='3.75'>TSL2561</text></g></g></g><g partID='854206480' id='partLabel'><g transform='translate(264,21.1608)' ><g font-size='5' font-style='normal' font-weight='normal' fill='#000000' font-family="'DroidSans'" id='schematicLabel' fill-opacity='1' stroke='none' ><text x='0' y='3.75'>MCU</text></g></g></g><g partID='854261130' id='partLabel'><g transform='translate(408,49.9608)' ><g font-size='5' font-style='normal' font-weight='normal' fill='#000000' font-family="'DroidSans'" id='schematicLabel' fill-opacity='1' stroke='none' ><text x='0' y='3.75'>RF433MHZ</text></g></g></g><g partID='854198500' id='partLabel'><g transform='translate(141.621,75.1688)' ><g font-size='5' font-style='normal' font-weight='normal' fill='#000000' font-family="'DroidSans'" id='schematicLabel' fill-opacity='1' stroke='none' ><text x='0' y='3.75'>J1 / i2c </text></g></g></g></svg>